<?xml version="1.0" encoding="utf-8"?>
<!-- Generator: Adobe Illustrator 16.0.0, SVG Export Plug-In . SVG Version: 6.00 Build 0)  -->
<!DOCTYPE svg PUBLIC "-//W3C//DTD SVG 1.1//EN" "http://www.w3.org/Graphics/SVG/1.1/DTD/svg11.dtd">
<svg version="1.1" id="Layer_1" xmlns="http://www.w3.org/2000/svg" xmlns:xlink="http://www.w3.org/1999/xlink" x="0px" y="0px"
	 width="600px" height="400px" viewBox="0 0 600 400" enable-background="new 0 0 600 400" xml:space="preserve">
<g>
	<path fill="#40A8C9" d="M266.117,100.508c-1-1.466-2.625-2.2-4.875-2.2c-1.75,0-3.146,0.367-4.188,1.1
		c-1.043,0.734-1.834,2.035-2.375,3.9c-0.543,1.867-0.896,4.385-1.062,7.55c-0.168,3.167-0.25,7.15-0.25,11.95
		c0,4.8,0.082,8.785,0.25,11.95c0.166,3.167,0.52,5.685,1.062,7.55c0.541,1.867,1.332,3.167,2.375,3.9
		c1.041,0.734,2.438,1.1,4.188,1.1c1.416,0,2.582-0.283,3.5-0.85c0.916-0.566,1.625-1.516,2.125-2.85
		c0.5-1.333,0.854-3.116,1.062-5.35c0.207-2.233,0.312-5.05,0.312-8.45h22.5v5.3c0,5-0.834,9.1-2.5,12.3
		c-1.668,3.2-3.875,5.717-6.625,7.55c-2.75,1.834-5.896,3.067-9.438,3.7c-3.543,0.633-7.188,0.95-10.938,0.95
		c-6.5,0-11.834-0.634-16-1.9c-4.168-1.266-7.418-3.383-9.75-6.35c-2.334-2.966-3.938-6.8-4.812-11.5
		c-0.875-4.7-1.312-10.383-1.312-17.05c0-6.8,0.52-12.565,1.562-17.3c1.041-4.733,2.812-8.565,5.312-11.5
		c2.5-2.933,5.791-5.05,9.875-6.35c4.082-1.3,9.125-1.95,15.125-1.95c5.25,0,9.707,0.534,13.375,1.6
		c3.666,1.067,6.645,2.584,8.938,4.55c2.291,1.967,3.957,4.334,5,7.1c1.041,2.767,1.562,5.884,1.562,9.35v4.5h-22.5v-4
		C267.617,104.742,267.117,101.975,266.117,100.508z"/>
	<path fill="#40A8C9" d="M322.365,87.108v56.2h28.625v15.2h-51.875v-71.4H322.365z"/>
	<path fill="#40A8C9" d="M379.365,87.108v71.4h-23.25v-71.4H379.365z"/>
	<path fill="#40A8C9" d="M423.614,100.508c-1-1.466-2.625-2.2-4.875-2.2c-1.75,0-3.146,0.367-4.188,1.1
		c-1.043,0.734-1.834,2.035-2.375,3.9c-0.543,1.867-0.896,4.385-1.062,7.55c-0.168,3.167-0.25,7.15-0.25,11.95
		c0,4.8,0.082,8.785,0.25,11.95c0.166,3.167,0.52,5.685,1.062,7.55c0.541,1.867,1.332,3.167,2.375,3.9
		c1.041,0.734,2.438,1.1,4.188,1.1c1.416,0,2.582-0.283,3.5-0.85c0.916-0.566,1.625-1.516,2.125-2.85
		c0.5-1.333,0.854-3.116,1.062-5.35c0.207-2.233,0.312-5.05,0.312-8.45h22.5v5.3c0,5-0.834,9.1-2.5,12.3
		c-1.668,3.2-3.875,5.717-6.625,7.55c-2.75,1.834-5.896,3.067-9.438,3.7c-3.543,0.633-7.188,0.95-10.938,0.95
		c-6.5,0-11.834-0.634-16-1.9c-4.168-1.266-7.418-3.383-9.75-6.35c-2.334-2.966-3.938-6.8-4.812-11.5
		c-0.875-4.7-1.312-10.383-1.312-17.05c0-6.8,0.52-12.565,1.562-17.3c1.041-4.733,2.812-8.565,5.312-11.5
		c2.5-2.933,5.791-5.05,9.875-6.35c4.082-1.3,9.125-1.95,15.125-1.95c5.25,0,9.707,0.534,13.375,1.6
		c3.666,1.067,6.645,2.584,8.938,4.55c2.291,1.967,3.957,4.334,5,7.1c1.041,2.767,1.562,5.884,1.562,9.35v4.5h-22.5v-4
		C425.114,104.742,424.614,101.975,423.614,100.508z"/>
	<path fill="#40A8C9" d="M478.988,87.108v27.4h0.25l17.25-27.4h24.75l-22.5,31.2l25.25,40.2h-26.5l-13.625-24.9l-4.875,6v18.9
		h-23.25v-71.4H478.988z"/>
	<path fill="#40A8C9" d="M573.863,158.508l-3.875-4.2c-1.668,0.8-3.293,1.535-4.875,2.2c-1.584,0.667-3.23,1.217-4.938,1.65
		c-1.709,0.433-3.521,0.783-5.438,1.05c-1.918,0.266-4.043,0.4-6.375,0.4c-3.75,0-7.271-0.384-10.562-1.15
		c-3.293-0.766-6.188-1.966-8.688-3.6c-2.5-1.633-4.48-3.7-5.938-6.2c-1.459-2.5-2.188-5.45-2.188-8.85
		c0-4.2,1.354-8.083,4.062-11.65c2.707-3.565,6.938-6.583,12.688-9.05c-2.25-2.466-4.23-5.083-5.938-7.85
		c-1.709-2.766-2.562-5.55-2.562-8.35c0-2.465,0.604-4.715,1.812-6.75c1.207-2.033,2.916-3.783,5.125-5.25
		c2.207-1.465,4.854-2.6,7.938-3.4c3.082-0.8,6.541-1.2,10.375-1.2c3.916,0,7.438,0.4,10.562,1.2s5.791,1.935,8,3.4
		c2.207,1.467,3.916,3.217,5.125,5.25c1.207,2.035,1.812,4.285,1.812,6.75c0,3.467-1.334,6.75-4,9.85
		c-2.668,3.1-6.5,5.917-11.5,8.45l10.125,10.9c0.916-1.2,1.604-2.516,2.062-3.95c0.457-1.433,0.77-2.916,0.938-4.45h19.5
		c-0.25,4-1.168,7.867-2.75,11.6c-1.584,3.734-4.168,7-7.75,9.8l12,13.4H573.863z M544.113,134.258
		c-0.918,1.3-1.375,2.484-1.375,3.55c0,1.135,0.27,2.2,0.812,3.2c0.541,1,1.27,1.867,2.188,2.6c0.916,0.734,1.938,1.3,3.062,1.7
		c1.125,0.4,2.312,0.6,3.562,0.6c1.332,0,2.729-0.25,4.188-0.75c1.457-0.5,2.645-1.05,3.562-1.65l-11.875-12.9
		C546.404,131.742,545.029,132.958,544.113,134.258z M549.363,105.308c0.916,1.334,2.416,3.067,4.5,5.2c2.75-2,4.666-3.7,5.75-5.1
		c1.082-1.4,1.625-2.633,1.625-3.7c0-1.466-0.625-2.666-1.875-3.6c-1.25-0.933-2.834-1.4-4.75-1.4c-1.918,0-3.5,0.467-4.75,1.4
		c-1.25,0.934-1.875,2.134-1.875,3.6C547.988,102.775,548.445,103.975,549.363,105.308z"/>
	<path fill="#40A8C9" d="M255.242,159.108v56.2h28.625v15.2h-51.875v-71.4H255.242z"/>
	<path fill="#40A8C9" d="M342.742,159.108v15.2h-29.625v12.2h27.75v14.6h-27.75v14.2h30.75v15.2h-54v-71.4H342.742z"/>
	<path fill="#40A8C9" d="M396.242,159.108l21.75,71.4h-24.75l-2.375-12.5h-18.5l-2.375,12.5h-24.375l21.375-71.4H396.242z
		 M381.492,173.708l-6.375,30.3h13l-6.375-30.3H381.492z"/>
	<path fill="#40A8C9" d="M458.242,159.108c4.416,0,8.188,0.467,11.312,1.4c3.125,0.935,5.666,2.25,7.625,3.95
		c1.957,1.7,3.375,3.717,4.25,6.05c0.875,2.334,1.312,4.867,1.312,7.6c0,4.8-1.209,8.667-3.625,11.6
		c-2.418,2.934-6.293,4.734-11.625,5.4v0.2c5.582,0.4,9.416,1.967,11.5,4.7c2.082,2.734,3.125,6.5,3.125,11.3v6.101
		c0,0.934,0,1.899,0,2.899s0.041,1.95,0.125,2.851c0.082,0.899,0.207,1.717,0.375,2.449c0.166,0.734,0.375,1.301,0.625,1.7
		c0.332,0.4,0.666,0.784,1,1.15c0.332,0.367,0.875,0.717,1.625,1.05v1h-24.75c-0.584-0.933-1.021-2.033-1.312-3.3
		c-0.293-1.266-0.5-2.533-0.625-3.8c-0.125-1.266-0.209-2.483-0.25-3.65c-0.043-1.166-0.062-2.115-0.062-2.85v-4.801
		c0-2-0.125-3.665-0.375-5c-0.25-1.332-0.688-2.383-1.312-3.149c-0.625-0.766-1.418-1.3-2.375-1.601
		c-0.959-0.3-2.146-0.449-3.562-0.449h-6.125v28.6h-23.25v-71.4H458.242z M449.742,189.308c3.332,0,5.791-0.783,7.375-2.35
		c1.582-1.566,2.375-3.616,2.375-6.15c0-3-0.771-5.133-2.312-6.4c-1.543-1.266-4.062-1.9-7.562-1.9h-4.5v16.8H449.742z"/>
	<path fill="#40A8C9" d="M519.615,159.108l15,44h0.25v-44h21.75v71.4h-25.5l-15.5-44.1h-0.25v44.1h-21.75v-71.4H519.615z"/>
	<path fill="#40A8C9" d="M264.367,231.107l9.375,42.301h0.25l9.375-42.301h33.25v71.4h-21.75v-53.2h-0.25l-12.375,53.2h-16.75
		l-12.375-53.2h-0.25v53.2h-21.75v-71.4H264.367z"/>
	<path fill="#40A8C9" d="M325.741,249.758c1.082-4.7,2.875-8.533,5.375-11.5c2.5-2.966,5.791-5.133,9.875-6.5
		c4.082-1.365,9.082-2.05,15-2.05c5.916,0,10.916,0.685,15,2.05c4.082,1.367,7.375,3.534,9.875,6.5c2.5,2.967,4.291,6.8,5.375,11.5
		c1.082,4.7,1.625,10.385,1.625,17.05c0,6.667-0.543,12.351-1.625,17.05c-1.084,4.7-2.875,8.535-5.375,11.5
		c-2.5,2.968-5.793,5.085-9.875,6.351c-4.084,1.266-9.084,1.899-15,1.899c-5.918,0-10.918-0.634-15-1.899
		c-4.084-1.266-7.375-3.383-9.875-6.351c-2.5-2.965-4.293-6.8-5.375-11.5c-1.084-4.699-1.625-10.383-1.625-17.05
		C324.116,260.143,324.657,254.458,325.741,249.758z M348.366,278.758c0.166,3.167,0.52,5.685,1.062,7.55
		c0.541,1.867,1.332,3.167,2.375,3.9c1.041,0.734,2.438,1.1,4.188,1.1s3.145-0.365,4.188-1.1c1.041-0.733,1.832-2.033,2.375-3.9
		c0.541-1.865,0.895-4.383,1.062-7.55c0.166-3.166,0.25-7.15,0.25-11.95s-0.084-8.782-0.25-11.95
		c-0.168-3.165-0.521-5.683-1.062-7.55c-0.543-1.865-1.334-3.165-2.375-3.899c-1.043-0.733-2.438-1.101-4.188-1.101
		s-3.146,0.367-4.188,1.101c-1.043,0.734-1.834,2.034-2.375,3.899c-0.543,1.867-0.896,4.385-1.062,7.55
		c-0.168,3.168-0.25,7.15-0.25,11.95S348.198,275.592,348.366,278.758z"/>
	<path fill="#40A8C9" d="M432.616,231.107c4.416,0,8.188,0.468,11.312,1.4c3.125,0.935,5.666,2.25,7.625,3.95
		c1.957,1.7,3.375,3.717,4.25,6.05c0.875,2.334,1.312,4.867,1.312,7.6c0,4.801-1.209,8.668-3.625,11.601
		c-2.418,2.935-6.293,4.734-11.625,5.399v0.2c5.582,0.4,9.416,1.968,11.5,4.7c2.082,2.734,3.125,6.5,3.125,11.3v6.101
		c0,0.934,0,1.899,0,2.899s0.041,1.95,0.125,2.851c0.082,0.899,0.207,1.717,0.375,2.449c0.166,0.734,0.375,1.301,0.625,1.7
		c0.332,0.4,0.666,0.784,1,1.15c0.332,0.367,0.875,0.717,1.625,1.05v1h-24.75c-0.584-0.933-1.021-2.033-1.312-3.3
		c-0.293-1.266-0.5-2.533-0.625-3.8c-0.125-1.266-0.209-2.483-0.25-3.65c-0.043-1.166-0.062-2.115-0.062-2.85v-4.801
		c0-2-0.125-3.665-0.375-5c-0.25-1.332-0.688-2.383-1.312-3.149c-0.625-0.766-1.418-1.3-2.375-1.601
		c-0.959-0.3-2.146-0.449-3.562-0.449h-6.125v28.6h-23.25v-71.4H432.616z M424.116,261.308c3.332,0,5.791-0.782,7.375-2.35
		c1.582-1.565,2.375-3.616,2.375-6.15c0-3-0.771-5.133-2.312-6.399c-1.543-1.266-4.062-1.9-7.562-1.9h-4.5v16.8H424.116z"/>
	<path fill="#40A8C9" d="M520.865,231.107v15.2H491.24v12.2h27.75v14.6h-27.75v14.2h30.75v15.2h-54v-71.4H520.865z"/>
</g>
<polyline fill="#40A8C9" points="0,200 179.27,2.095 179.27,400 0,201.048 "/>
<g>
</g>
<g>
</g>
<g>
</g>
<g>
</g>
<g>
</g>
<g>
</g>
</svg>
