<?xml version="1.0" encoding="utf-8"?>
<!-- Generator: Adobe Illustrator 16.0.0, SVG Export Plug-In . SVG Version: 6.00 Build 0)  -->
<!DOCTYPE svg PUBLIC "-//W3C//DTD SVG 1.1//EN" "http://www.w3.org/Graphics/SVG/1.1/DTD/svg11.dtd">
<svg version="1.1" id="Layer_1" xmlns="http://www.w3.org/2000/svg" xmlns:xlink="http://www.w3.org/1999/xlink" x="0px" y="0px"
	 width="295.457px" height="421.025px" viewBox="0 0 295.457 421.025" enable-background="new 0 0 295.457 421.025"
	 xml:space="preserve">
<g>
	<path fill="#004D72" d="M3.081,21.938c0-0.884,0.201-1.716,0.604-2.496c0.402-0.78,0.955-1.456,1.657-2.028
		c0.702-0.571,1.515-1.026,2.438-1.364s1.917-0.508,2.983-0.508c1.04,0,2.028,0.17,2.964,0.508c0.937,0.338,1.756,0.793,2.457,1.364
		c0.702,0.572,1.255,1.248,1.658,2.028c0.402,0.78,0.604,1.612,0.604,2.496s-0.202,1.71-0.604,2.477
		c-0.403,0.768-0.956,1.437-1.658,2.009c-0.701,0.572-1.521,1.027-2.457,1.364c-0.936,0.339-1.924,0.508-2.964,0.508
		c-1.066,0-2.061-0.169-2.983-0.508c-0.923-0.337-1.735-0.792-2.438-1.364s-1.255-1.241-1.657-2.009
		C3.282,23.647,3.081,22.821,3.081,21.938z"/>
	<path fill="#004D72" d="M36.074,4.271h2.964l3.782,30.459l-2.712,0.002l-0.709-6.984h-3.963l-0.741,6.985l-2.716-0.003
		L36.074,4.271z M35.724,25.614l3.408-0.022l-1.59-14.065l-0.103-1.406l-0.137,1.407L35.724,25.614z"/>
	<path fill="#004D72" d="M44.381,13.162h1.911v1.209c0.571-0.649,1.098-1.059,1.579-1.229c0.481-0.168,1.021-0.253,1.619-0.253
		v1.911c-0.989,0-1.749,0.136-2.282,0.409s-0.799,0.565-0.799,0.878v18.642h-2.028V13.162z"/>
	<path fill="#004D72" d="M50.933,4.271h2.028v2.223h-2.028V4.271z M52.961,34.729h-2.028V13.162h2.028V34.729z"/>
	<path fill="#004D72" d="M62.32,13.162v2.73l-4.29,17.004h4.992v1.833h-7.021l-0.01-3.161l4.149-16.767l-4.14-0.001v-1.639H62.32z"
		/>
	<path fill="#004D72" d="M65.323,31.103V16.789c0-1.248,0.377-2.235,1.131-2.964c0.754-0.728,1.664-1.092,2.73-1.092
		c1.014,0,1.897,0.352,2.651,1.053c0.754,0.702,1.131,1.703,1.131,3.003v14.313c0,1.248-0.39,2.236-1.17,2.964
		c-0.779,0.728-1.651,1.092-2.612,1.092c-0.989,0-1.879-0.37-2.672-1.111S65.323,32.325,65.323,31.103z M70.939,31.492V16.399
		c0-0.624-0.185-1.117-0.553-1.481s-0.775-0.547-1.222-0.547c-0.474,0-0.894,0.183-1.262,0.547s-0.552,0.857-0.552,1.481v15.093
		c0,0.65,0.177,1.15,0.531,1.502c0.355,0.351,0.782,0.526,1.282,0.526c0.473,0,0.887-0.169,1.241-0.507
		C70.762,32.676,70.939,32.169,70.939,31.492z"/>
	<path fill="#004D72" d="M81.353,16.867c0-0.728-0.119-1.248-0.355-1.56c-0.236-0.312-0.525-0.468-0.867-0.468
		s-0.736,0.228-1.184,0.683s-0.789,0.969-1.025,1.54v17.667h-2.028V13.046h1.953l0.075,1.248c0.659-0.521,1.232-0.91,1.721-1.171
		c0.488-0.259,0.97-0.39,1.444-0.39c0.844,0,1.438,0.436,1.78,1.307s0.515,2.048,0.515,3.529v17.16h-2.028V16.867z"/>
	<path fill="#004D72" d="M93.754,34.729h-1.872l-0.468-0.585c-0.65,0.39-1.132,0.656-1.443,0.8
		c-0.312,0.143-0.663,0.214-1.053,0.214c-0.312,0-0.683-0.104-1.112-0.312c-0.429-0.208-0.806-0.591-1.131-1.15
		s-0.56-1.177-0.702-1.853s-0.214-1.352-0.214-2.028c0-1.195,0.169-2.34,0.507-3.432c0.338-1.093,0.78-1.931,1.326-2.516
		s0.857-0.91,0.936-0.976c0.078-0.064,0.546-0.396,1.404-0.994l1.911-1.014v-4.642c0-0.598-0.137-1.059-0.41-1.384
		c-0.272-0.325-0.617-0.488-1.033-0.488c-0.39,0-0.729,0.176-1.014,0.527c-0.286,0.351-0.429,0.852-0.429,1.501v3.354h-2.028v-2.965
		c0-1.273,0.344-2.268,1.033-2.983c0.688-0.715,1.515-1.072,2.477-1.072c0.91,0,1.689,0.352,2.34,1.053
		c0.649,0.702,0.976,1.703,0.976,3.003V34.729z M89.4,24.395c-0.473,0.546-0.847,1.32-1.122,2.32
		c-0.276,1.001-0.414,1.996-0.414,2.983c0,0.807,0.112,1.548,0.335,2.224s0.624,1.079,1.201,1.209
		c0.211,0.077,0.407,0.116,0.592,0.116c0.209,0,0.394-0.039,0.551-0.116c0.342-0.078,0.592-0.169,0.749-0.273
		c0.157-0.104,0.302-0.208,0.434-0.312v-9.867c-0.578,0.286-1.024,0.553-1.34,0.799C90.07,23.726,89.742,24.03,89.4,24.395z"/>
	<path fill="#004D72" d="M3.081,68.737c0-0.884,0.201-1.716,0.604-2.496c0.402-0.78,0.955-1.456,1.657-2.028
		c0.702-0.571,1.515-1.026,2.438-1.364s1.917-0.508,2.983-0.508c1.04,0,2.028,0.17,2.964,0.508c0.937,0.338,1.756,0.793,2.457,1.364
		c0.702,0.572,1.255,1.248,1.658,2.028c0.402,0.78,0.604,1.612,0.604,2.496s-0.202,1.71-0.604,2.477
		c-0.403,0.768-0.956,1.437-1.658,2.009c-0.701,0.572-1.521,1.027-2.457,1.364c-0.936,0.339-1.924,0.508-2.964,0.508
		c-1.066,0-2.061-0.169-2.983-0.508c-0.923-0.337-1.735-0.792-2.438-1.364s-1.255-1.241-1.657-2.009
		C3.282,70.447,3.081,69.621,3.081,68.737z"/>
	<path fill="#004D72" d="M51.667,78.254h2.399l-2.285-6.551H40.679l-2.228,6.551h2.971v3.275h-9.369v-3.275h2.514l8.988-25.594
		h5.618l8.969,25.594h2.895v3.275h-9.369V78.254z M41.765,68.542h8.912l-4.494-12.911L41.765,68.542z"/>
	<path fill="#004D72" d="M77.318,65.971h-3.619v-1.219c-0.418,0-0.847,0.08-1.285,0.238c-0.438,0.159-0.848,0.4-1.229,0.724
		c-0.381,0.324-0.714,0.736-0.999,1.238c-0.286,0.501-0.492,1.095-0.619,1.78v9.521h3.352v3.275h-9.788v-3.275h2.723l0.02-13.178
		h-2.742v-3.275h6.303v2.723c0.229-0.405,0.486-0.783,0.771-1.133c0.286-0.349,0.604-0.653,0.952-0.914
		c0.35-0.26,0.736-0.463,1.162-0.609c0.425-0.146,0.886-0.219,1.38-0.219c0.66,0,1.282,0,1.867,0c0.583,0,1.167,0.013,1.752,0.038
		V65.971z"/>
	<path fill="#004D72" d="M79.889,61.801h6.817v3.275h-1.847l4.875,13.597l4.76-13.597h-1.199v-3.275h6.246v3.275h-1.695
		l-6.455,16.758h-3.504L81.45,65.076h-1.562V61.801z"/>
	<path fill="#004D72" d="M102.093,71.665c0.013-1.562,0.264-2.983,0.752-4.266c0.489-1.282,1.171-2.384,2.048-3.304
		c0.875-0.921,1.916-1.629,3.123-2.123c1.205-0.496,2.532-0.743,3.979-0.743c1.46,0,2.796,0.247,4.009,0.743
		c1.212,0.494,2.25,1.196,3.113,2.104c0.863,0.908,1.536,2.003,2.019,3.285s0.724,2.704,0.724,4.266
		c0,1.536-0.241,2.948-0.724,4.237c-0.482,1.288-1.155,2.396-2.019,3.323s-1.901,1.646-3.113,2.161
		c-1.213,0.514-2.549,0.771-4.009,0.771c-1.485,0-2.831-0.254-4.037-0.762c-1.206-0.507-2.241-1.222-3.104-2.142
		c-0.863-0.921-1.536-2.021-2.018-3.304C102.353,74.63,102.105,73.214,102.093,71.665z M105.844,71.665
		c0,1.13,0.162,2.151,0.486,3.065c0.323,0.914,0.768,1.692,1.333,2.333c0.564,0.642,1.219,1.137,1.961,1.485
		c0.743,0.35,1.533,0.523,2.371,0.523c0.876,0,1.691-0.171,2.447-0.514c0.755-0.343,1.412-0.835,1.971-1.476
		c0.559-0.642,0.996-1.419,1.313-2.333s0.477-1.942,0.477-3.085c0-1.193-0.159-2.253-0.477-3.181
		c-0.317-0.926-0.752-1.7-1.304-2.322c-0.553-0.622-1.21-1.092-1.972-1.41c-0.762-0.316-1.58-0.476-2.456-0.476
		c-0.838,0-1.628,0.159-2.371,0.476c-0.742,0.318-1.396,0.788-1.961,1.41c-0.565,0.622-1.01,1.396-1.333,2.322
		C106.006,69.412,105.844,70.472,105.844,71.665z"/>
	<path fill="#004D72" d="M3.081,115.537c0-0.884,0.201-1.716,0.604-2.496c0.402-0.78,0.955-1.456,1.657-2.028
		c0.702-0.571,1.515-1.026,2.438-1.364s1.917-0.508,2.983-0.508c1.04,0,2.028,0.17,2.964,0.508c0.937,0.338,1.756,0.793,2.457,1.364
		c0.702,0.572,1.255,1.248,1.658,2.028c0.402,0.78,0.604,1.612,0.604,2.496s-0.202,1.71-0.604,2.477
		c-0.403,0.768-0.956,1.437-1.658,2.009c-0.701,0.572-1.521,1.027-2.457,1.364c-0.936,0.339-1.924,0.508-2.964,0.508
		c-1.066,0-2.061-0.169-2.983-0.508c-0.923-0.337-1.735-0.792-2.438-1.364s-1.255-1.241-1.657-2.009
		C3.282,117.247,3.081,116.421,3.081,115.537z"/>
	<path fill="#004D72" d="M45.44,114.428c2.932,0.216,5.109,0.946,6.531,2.19s2.133,2.799,2.133,4.665
		c0,1.625-0.482,3.024-1.447,4.199c-0.965,1.174-2.199,1.942-3.704,2.304c-1.504,0.362-3.52,0.543-6.046,0.543H32.776v-0.876h0.99
		c1.104,0,1.869-0.14,2.295-0.419c0.425-0.279,0.695-0.714,0.809-1.305c0.115-0.59,0.172-1.964,0.172-4.123v-12.568
		c0-2.094-0.061-3.446-0.181-4.056c-0.121-0.609-0.375-1.028-0.762-1.257c-0.388-0.229-1.235-0.343-2.542-0.343h-0.496v-0.876
		l4.247-0.114l4.837-0.152c7.059,0,10.588,2.031,10.588,6.094c0,1.676-0.606,3.021-1.818,4.037
		C49.702,113.387,47.878,114.072,45.44,114.428z M40.774,114.065c0.317,0.014,0.584,0.02,0.8,0.02c2.742,0,4.614-0.432,5.618-1.295
		c1.002-0.863,1.504-2.26,1.504-4.189c0-1.346-0.197-2.387-0.59-3.123c-0.395-0.736-0.984-1.305-1.771-1.704
		c-0.787-0.4-2.133-0.601-4.037-0.601c-0.495,0-1.003,0.02-1.523,0.058V114.065z M40.774,114.999v5.751
		c0,2.45,0.044,4.006,0.133,4.665c0.089,0.661,0.327,1.162,0.715,1.505c0.387,0.343,1.152,0.515,2.295,0.515
		c2.03,0,3.554-0.521,4.57-1.562c1.015-1.04,1.523-2.602,1.523-4.684c0-2.133-0.575-3.704-1.724-4.714
		c-1.149-1.009-3.171-1.514-6.065-1.514C41.765,114.961,41.282,114.974,40.774,114.999z"/>
	<path fill="#004D72" d="M73.015,125.473h0.704c-0.113,2.171-1.18,3.257-3.199,3.257c-0.863,0-1.545-0.229-2.047-0.686
		c-0.501-0.457-0.828-1.137-0.98-2.038c-1.27,0.901-2.428,1.581-3.476,2.038c-1.047,0.457-1.983,0.686-2.809,0.686
		c-1.054,0-1.962-0.305-2.724-0.914s-1.143-1.416-1.143-2.419c0-1.308,0.639-2.45,1.914-3.428c1.276-0.978,3.037-1.93,5.285-2.856
		l2.951-1.199v-0.762c0-1.079-0.07-1.86-0.209-2.343c-0.141-0.482-0.502-0.914-1.086-1.295s-1.352-0.571-2.305-0.571
		c-1.904,0-2.964,0.635-3.18,1.904c-0.203,1.295-0.736,1.942-1.6,1.942c-0.774,0-1.162-0.368-1.162-1.104
		c0-0.724,0.515-1.501,1.543-2.333c1.028-0.831,2.628-1.247,4.799-1.247c1.612,0,2.862,0.254,3.752,0.762
		c0.888,0.508,1.476,1.086,1.761,1.732c0.286,0.648,0.429,1.639,0.429,2.971v6.304c0,1.473,0.076,2.419,0.229,2.837
		c0.152,0.42,0.482,0.629,0.99,0.629C72.291,127.339,72.812,126.717,73.015,125.473z M67.492,118.808l-2.076,0.838
		c-3.275,1.333-4.912,3.009-4.912,5.027c0,0.8,0.209,1.444,0.628,1.933c0.419,0.489,0.965,0.733,1.638,0.733
		c0.597,0,1.288-0.196,2.076-0.59c0.786-0.394,1.669-0.984,2.646-1.771V118.808z"/>
	<path fill="#004D72" d="M75.699,128.824v-5.122h0.743c0.863,2.958,2.405,4.437,4.628,4.437c0.964,0,1.685-0.292,2.161-0.876
		c0.476-0.584,0.714-1.225,0.714-1.924c0-0.812-0.254-1.479-0.762-1.999c-0.521-0.521-1.53-1.148-3.027-1.886
		c-1.575-0.773-2.705-1.535-3.391-2.285c-0.686-0.735-1.027-1.644-1.027-2.723c0-1.028,0.367-2.009,1.104-2.942
		c0.736-0.933,1.771-1.399,3.104-1.399c1.358,0,2.481,0.553,3.37,1.656c0.191-0.189,0.438-0.653,0.743-1.39h0.704v4.817H84.06
		c-0.254-1.154-0.746-2.148-1.476-2.979c-0.73-0.832-1.59-1.247-2.58-1.247c-0.762,0-1.378,0.234-1.848,0.704
		s-0.705,1.016-0.705,1.638c0,0.686,0.261,1.275,0.781,1.771c0.508,0.508,1.479,1.085,2.914,1.732
		c2.157,0.978,3.478,1.93,3.961,2.856c0.481,0.939,0.723,1.841,0.723,2.704c0,1.358-0.447,2.463-1.342,3.313
		c-0.896,0.851-2.022,1.276-3.381,1.276c-1.435,0-2.71-0.591-3.827-1.771c-0.343,0.381-0.622,0.927-0.838,1.638H75.699z"/>
	<path fill="#004D72" d="M97.428,112.733h6.283v0.875c-1.155,0.026-2.703,0.89-4.646,2.59c-0.622,0.533-1.587,1.314-2.895,2.343
		l5.561,6.513c0.838,0.978,1.498,1.615,1.98,1.914c0.482,0.298,0.978,0.46,1.486,0.485v0.876h-7.77v-0.876
		c1.295-0.025,1.941-0.305,1.941-0.838c0-0.241-0.425-0.856-1.275-1.847l-3.999-4.646l-0.819,0.609v2.246
		c0,1.664,0.022,2.708,0.067,3.133c0.044,0.426,0.225,0.756,0.542,0.99c0.317,0.235,0.87,0.353,1.657,0.353v0.876h-7.903v-0.876
		h0.591c0.914,0,1.508-0.13,1.78-0.391c0.273-0.26,0.429-0.571,0.467-0.933c0.038-0.362,0.057-1.412,0.057-3.152v-15.634
		c0-1.511-0.143-2.476-0.428-2.895c-0.286-0.419-0.975-0.628-2.066-0.628v-0.877c0.749,0,1.647-0.088,2.694-0.266
		c1.048-0.178,1.762-0.355,2.143-0.533h0.399v17.538l1.639-1.143c2.652-1.879,3.979-3.23,3.979-4.056
		c0-0.559-0.489-0.851-1.466-0.877V112.733z"/>
	<path fill="#004D72" d="M120.584,118.008H109.71c-0.051,0.749-0.076,1.308-0.076,1.676c0,2.742,0.429,4.802,1.286,6.18
		c0.856,1.377,2.136,2.065,3.837,2.065c2.311,0,3.948-1.034,4.913-3.104h0.914c-0.406,1.295-1.213,2.308-2.419,3.037
		c-1.206,0.73-2.52,1.096-3.941,1.096c-1.32,0-2.567-0.334-3.742-1c-1.174-0.667-2.136-1.609-2.885-2.828s-1.123-2.697-1.123-4.438
		c0-2.462,0.723-4.51,2.17-6.141c1.447-1.632,3.257-2.447,5.428-2.447c2.044,0,3.624,0.622,4.742,1.866
		C119.93,115.215,120.521,116.561,120.584,118.008z M117.251,117.246c0.039-0.292,0.058-0.552,0.058-0.78
		c0-1.117-0.327-1.984-0.98-2.6c-0.654-0.616-1.457-0.924-2.409-0.924c-2.311,0-3.688,1.435-4.133,4.304H117.251z"/>
	<path fill="#004D72" d="M128.563,116.085c0.431-1.13,1.133-2.076,2.104-2.838c0.972-0.762,1.92-1.143,2.848-1.143
		c0.838,0,1.497,0.261,1.98,0.781c0.481,0.521,0.723,1.054,0.723,1.6c0,0.368-0.123,0.686-0.371,0.951
		c-0.247,0.268-0.549,0.4-0.904,0.4c-0.635,0-1.117-0.47-1.447-1.409c-0.229-0.635-0.571-0.952-1.028-0.952
		c-0.546,0-1.2,0.371-1.962,1.114c-0.762,0.742-1.25,1.514-1.466,2.313s-0.323,1.898-0.323,3.295v2.779
		c0,1.664,0.021,2.711,0.066,3.143c0.044,0.432,0.225,0.762,0.543,0.99c0.316,0.229,0.882,0.343,1.694,0.343h0.533v0.876h-8.284
		v-0.876h0.4c0.762,0,1.305-0.104,1.628-0.314c0.324-0.209,0.518-0.505,0.581-0.886s0.096-1.472,0.096-3.275v-4.398
		c0-1.676-0.022-2.727-0.067-3.151c-0.044-0.426-0.226-0.756-0.542-0.99c-0.318-0.235-0.883-0.353-1.695-0.353h-0.4v-0.857
		c1.193-0.139,2.755-0.514,4.686-1.123C128.321,113.107,128.524,114.435,128.563,116.085z"/>
	<path fill="#004D72" d="M145.759,128.958h-1.105l-5.541-12.512c-0.546-1.206-0.978-1.974-1.295-2.305
		c-0.317-0.329-0.838-0.507-1.562-0.533v-0.875h7.046v0.875c-0.774,0-1.305,0.064-1.59,0.191c-0.286,0.127-0.429,0.368-0.429,0.723
		c0,0.28,0.254,0.959,0.762,2.038l4.208,9.464l3.79-8.436c0.597-1.346,0.896-2.222,0.896-2.628c0-0.851-0.636-1.301-1.904-1.353
		v-0.875h5.256v0.875c-0.648,0.039-1.19,0.309-1.629,0.81c-0.438,0.502-1.051,1.628-1.838,3.38L145.759,128.958z"/>
	<path fill="#004D72" d="M160.46,112.104v10.873c0,1.664,0.025,2.711,0.076,3.143s0.234,0.762,0.552,0.99s0.883,0.343,1.695,0.343
		h0.4v0.876h-8.398v-0.876h0.647c0.901,0,1.488-0.13,1.762-0.391c0.272-0.26,0.432-0.571,0.476-0.933
		c0.045-0.362,0.066-1.412,0.066-3.152v-4.723c0-1.828-0.085-2.944-0.257-3.352c-0.171-0.405-0.399-0.659-0.686-0.762
		c-0.285-0.101-0.784-0.152-1.495-0.152h-0.514v-0.875c2.26-0.229,4.012-0.565,5.256-1.01H160.46z M156.785,104.145
		c0-0.546,0.193-1.016,0.58-1.409c0.388-0.394,0.854-0.59,1.4-0.59c0.545,0,1.009,0.196,1.39,0.59s0.571,0.863,0.571,1.409
		c0,0.559-0.19,1.035-0.571,1.429s-0.845,0.59-1.39,0.59c-0.547,0-1.013-0.196-1.4-0.59
		C156.979,105.18,156.785,104.703,156.785,104.145z"/>
	<path fill="#004D72" d="M169.905,102.146v20.832c0,1.664,0.022,2.711,0.066,3.143c0.045,0.432,0.226,0.762,0.543,0.99
		s0.882,0.343,1.694,0.343h0.457v0.876h-8.34v-0.876h0.533c0.762,0,1.304-0.104,1.628-0.314c0.323-0.209,0.517-0.505,0.581-0.886
		c0.062-0.381,0.095-1.472,0.095-3.275v-15.424c0-1.639-0.146-2.67-0.438-3.095c-0.292-0.426-1.003-0.638-2.133-0.638v-0.877
		c0.774,0,1.686-0.088,2.733-0.266c1.047-0.178,1.768-0.355,2.161-0.533H169.905z"/>
	<path fill="#004D72" d="M179.255,102.146v20.832c0,1.664,0.022,2.711,0.066,3.143c0.045,0.432,0.226,0.762,0.543,0.99
		s0.882,0.343,1.694,0.343h0.457v0.876h-8.34v-0.876h0.533c0.762,0,1.304-0.104,1.628-0.314c0.323-0.209,0.517-0.505,0.581-0.886
		c0.062-0.381,0.095-1.472,0.095-3.275v-15.424c0-1.639-0.146-2.67-0.438-3.095c-0.292-0.426-1.003-0.638-2.133-0.638v-0.877
		c0.774,0,1.686-0.088,2.733-0.266c1.047-0.178,1.768-0.355,2.161-0.533H179.255z"/>
	<path fill="#004D72" d="M198.203,118.008h-10.874c-0.051,0.749-0.076,1.308-0.076,1.676c0,2.742,0.429,4.802,1.286,6.18
		c0.856,1.377,2.136,2.065,3.837,2.065c2.311,0,3.948-1.034,4.913-3.104h0.914c-0.406,1.295-1.213,2.308-2.419,3.037
		c-1.206,0.73-2.52,1.096-3.941,1.096c-1.32,0-2.567-0.334-3.742-1c-1.174-0.667-2.136-1.609-2.885-2.828s-1.123-2.697-1.123-4.438
		c0-2.462,0.723-4.51,2.17-6.141c1.447-1.632,3.257-2.447,5.428-2.447c2.044,0,3.624,0.622,4.742,1.866
		C197.549,115.215,198.14,116.561,198.203,118.008z M194.87,117.246c0.039-0.292,0.058-0.552,0.058-0.78
		c0-1.117-0.327-1.984-0.98-2.6c-0.654-0.616-1.457-0.924-2.409-0.924c-2.311,0-3.688,1.435-4.133,4.304H194.87z"/>
	<path fill="#004D72" d="M3.081,162.338c0-0.884,0.201-1.716,0.604-2.496c0.402-0.78,0.955-1.456,1.657-2.028
		c0.702-0.571,1.515-1.026,2.438-1.364s1.917-0.508,2.983-0.508c1.04,0,2.028,0.17,2.964,0.508c0.937,0.338,1.756,0.793,2.457,1.364
		c0.702,0.572,1.255,1.248,1.658,2.028c0.402,0.78,0.604,1.612,0.604,2.496s-0.202,1.71-0.604,2.477
		c-0.403,0.768-0.956,1.437-1.658,2.009c-0.701,0.572-1.521,1.027-2.457,1.364c-0.936,0.339-1.924,0.508-2.964,0.508
		c-1.066,0-2.061-0.169-2.983-0.508c-0.923-0.337-1.735-0.792-2.438-1.364s-1.255-1.241-1.657-2.009
		C3.282,164.048,3.081,163.222,3.081,162.338z"/>
	<path fill="#004D72" d="M35.48,173.683V149.46c0-0.14-0.019-0.257-0.058-0.353c-0.037-0.095-0.107-0.193-0.209-0.295l-0.457-0.476
		v-0.268h21.252l-2.533,4.514h-0.209v-0.267c0-0.203-0.051-0.353-0.152-0.447c-0.102-0.096-0.254-0.144-0.457-0.144H39.46v10.379
		l2-3.676h9.197l-2.532,4.686h-0.19v-0.457c0-0.165-0.057-0.292-0.172-0.381c-0.113-0.089-0.266-0.134-0.457-0.134H39.46v11.54
		c0,0.152,0.022,0.285,0.067,0.4c0.044,0.113,0.117,0.216,0.219,0.305l0.457,0.476v0.267h-5.446v-0.267l0.457-0.476
		c0.089-0.089,0.155-0.191,0.2-0.305C35.458,173.968,35.48,173.835,35.48,173.683z"/>
	<path fill="#004D72" d="M57.552,173.683v-14.739c0-0.127-0.022-0.244-0.066-0.353c-0.045-0.107-0.118-0.212-0.219-0.314
		l-0.496-0.457v-0.285h4.914v0.285l-0.515,0.457c-0.089,0.103-0.155,0.204-0.2,0.305c-0.044,0.103-0.066,0.223-0.066,0.362v14.739
		c0,0.152,0.022,0.285,0.066,0.4c0.045,0.113,0.111,0.216,0.2,0.305l0.515,0.476v0.267h-4.914v-0.267l0.496-0.476
		c0.101-0.089,0.174-0.191,0.219-0.305C57.529,173.968,57.552,173.835,57.552,173.683z M57.075,153.249
		c0-0.583,0.207-1.082,0.619-1.494c0.413-0.413,0.924-0.619,1.533-0.619c0.584,0,1.086,0.206,1.504,0.619
		c0.42,0.412,0.629,0.911,0.629,1.494c0,0.598-0.209,1.105-0.629,1.523c-0.418,0.42-0.92,0.629-1.504,0.629
		c-0.597,0-1.104-0.209-1.523-0.629C57.285,154.354,57.075,153.847,57.075,153.249z"/>
	<path fill="#004D72" d="M66.997,173.683v-14.739c0-0.127-0.022-0.244-0.066-0.353c-0.045-0.107-0.118-0.212-0.219-0.314
		l-0.496-0.457v-0.285h4.057v1.257l0.076,0.038l1.275-1.295h2.647c2.501,0.025,4.39,0.711,5.665,2.057
		c1.276,1.346,1.914,3.326,1.914,5.941v8.15c0,0.152,0.022,0.285,0.066,0.4c0.045,0.113,0.111,0.216,0.2,0.305l0.515,0.476v0.267
		h-4.914v-0.267l0.515-0.476c0.089-0.089,0.155-0.191,0.2-0.305c0.044-0.115,0.066-0.248,0.066-0.4v-8.15
		c0-1.574-0.35-2.773-1.047-3.6c-0.699-0.824-1.715-1.237-3.047-1.237h-0.076h-3.98v12.987c0,0.152,0.022,0.285,0.066,0.4
		c0.045,0.113,0.111,0.216,0.2,0.305l0.515,0.476v0.267h-4.914v-0.267l0.496-0.476c0.101-0.089,0.174-0.191,0.219-0.305
		C66.975,173.968,66.997,173.835,66.997,173.683z"/>
	<path fill="#004D72" d="M92.419,175.13c-2.082,0-3.669-0.498-4.76-1.495c-1.093-0.996-1.639-2.446-1.639-4.351
		c0-1.828,0.559-3.267,1.676-4.313c1.117-1.048,2.653-1.571,4.609-1.571h2.818l-1.924,3.694h-0.229v-0.076
		c0-0.178-0.073-0.314-0.219-0.409c-0.146-0.096-0.359-0.143-0.639-0.143c-0.901,0-1.621,0.254-2.161,0.762
		c-0.539,0.508-0.81,1.18-0.81,2.018c0,0.953,0.276,1.664,0.829,2.133c0.552,0.471,1.393,0.705,2.522,0.705h4.457v-9.312
		c0-0.799-0.152-1.345-0.457-1.637s-0.883-0.438-1.733-0.438h-5.694c-0.152,0-0.295,0.028-0.428,0.086
		c-0.134,0.057-0.276,0.149-0.429,0.276l-0.743,0.609l-0.189-0.152l2.266-3.98h5.37c1.917,0,3.281,0.438,4.095,1.314
		c0.812,0.875,1.219,2.361,1.219,4.455v10.379c0,0.152,0.021,0.285,0.066,0.4c0.044,0.113,0.11,0.216,0.199,0.305l0.477,0.476v0.267
		H92.419z"/>
	<path fill="#004D72" d="M106.206,173.683v-23.004c0-0.127-0.022-0.244-0.066-0.353c-0.045-0.107-0.118-0.212-0.219-0.313
		l-0.496-0.457v-0.286h4.914v0.286l-0.515,0.457c-0.089,0.089-0.155,0.187-0.2,0.295c-0.044,0.107-0.066,0.231-0.066,0.371v23.004
		c0,0.152,0.022,0.285,0.066,0.4c0.045,0.113,0.111,0.216,0.2,0.305l0.515,0.476v0.267h-4.914v-0.267l0.496-0.476
		c0.101-0.089,0.174-0.191,0.219-0.305C106.184,173.968,106.206,173.835,106.206,173.683z"/>
	<path fill="#004D72" d="M125.973,173.683V149.46c0-0.14-0.019-0.257-0.058-0.353c-0.037-0.095-0.107-0.193-0.209-0.295
		l-0.457-0.476v-0.268h21.252l-2.533,4.514h-0.209v-0.267c0-0.203-0.051-0.353-0.152-0.447c-0.102-0.096-0.254-0.144-0.457-0.144
		h-13.197v10.379l2-3.676h9.197l-2.532,4.686h-0.19v-0.457c0-0.165-0.057-0.292-0.172-0.381c-0.113-0.089-0.266-0.134-0.457-0.134
		h-7.846v11.54c0,0.152,0.022,0.285,0.067,0.4c0.044,0.113,0.117,0.216,0.219,0.305l0.457,0.476v0.267h-5.446v-0.267l0.457-0.476
		c0.089-0.089,0.155-0.191,0.2-0.305C125.95,173.968,125.973,173.835,125.973,173.683z"/>
	<path fill="#004D72" d="M145.892,173.683v-14.739c0-0.127-0.022-0.244-0.066-0.353c-0.045-0.107-0.118-0.212-0.219-0.314
		l-0.496-0.457v-0.285h7.294c0.724,0,1.415,0.172,2.075,0.514c0.66,0.344,1.213,0.813,1.657,1.41l-1.562,3.236l-0.267-0.037v-0.286
		c0-0.432-0.219-0.793-0.657-1.085c-0.438-0.292-1-0.438-1.686-0.438h-2.723v12.835c0,0.152,0.022,0.285,0.066,0.4
		c0.045,0.113,0.111,0.216,0.2,0.305l0.515,0.476v0.267h-4.914v-0.267l0.496-0.476c0.101-0.089,0.174-0.191,0.219-0.305
		C145.869,173.968,145.892,173.835,145.892,173.683z"/>
	<path fill="#004D72" d="M157.565,166.351c0-2.703,0.907-4.919,2.724-6.646c1.814-1.727,4.157-2.59,7.026-2.59
		c2.856,0,5.195,0.863,7.018,2.59c1.821,1.727,2.732,3.942,2.732,6.646c0,2.718-0.911,4.939-2.732,6.666
		c-1.822,1.727-4.161,2.59-7.018,2.59c-2.882,0-5.228-0.86-7.036-2.581C158.47,171.306,157.565,169.081,157.565,166.351z
		 M167.315,160.276c-1.904,0-3.422,0.553-4.552,1.656c-1.13,1.105-1.694,2.578-1.694,4.418c0,1.854,0.564,3.333,1.694,4.438
		s2.647,1.656,4.552,1.656c1.892,0,3.409-0.555,4.552-1.666c1.143-1.11,1.713-2.586,1.713-4.428c0-1.84-0.57-3.312-1.713-4.418
		C170.725,160.829,169.207,160.276,167.315,160.276z"/>
	<path fill="#004D72" d="M181.388,173.683v-14.739c0-0.127-0.022-0.244-0.066-0.353c-0.045-0.107-0.118-0.212-0.219-0.314
		l-0.496-0.457v-0.285h4.057v1.257l0.076,0.038l1.275-1.295h2.647c2.501,0.025,4.39,0.711,5.665,2.057
		c1.276,1.346,1.914,3.326,1.914,5.941v8.15c0,0.152,0.022,0.285,0.066,0.4c0.045,0.113,0.111,0.216,0.2,0.305l0.515,0.476v0.267
		h-4.914v-0.267l0.515-0.476c0.089-0.089,0.155-0.191,0.2-0.305c0.044-0.115,0.066-0.248,0.066-0.4v-8.15
		c0-1.574-0.35-2.773-1.047-3.6c-0.699-0.824-1.715-1.237-3.047-1.237h-0.076h-3.98v12.987c0,0.152,0.022,0.285,0.066,0.4
		c0.045,0.113,0.111,0.216,0.2,0.305l0.515,0.476v0.267h-4.914v-0.267l0.496-0.476c0.101-0.089,0.174-0.191,0.219-0.305
		C181.365,173.968,181.388,173.835,181.388,173.683z"/>
	<path fill="#004D72" d="M205.801,153.401v4.133h3.466l-1.828,4.057l-0.267-0.039v-0.266c0-0.165-0.051-0.305-0.152-0.42
		c-0.102-0.113-0.223-0.171-0.362-0.171h-0.856v12.987c0,0.152,0.022,0.285,0.066,0.4c0.045,0.113,0.111,0.216,0.2,0.305
		l0.477,0.476v0.267h-4.875v-0.267l0.476-0.476c0.089-0.089,0.155-0.191,0.2-0.305c0.044-0.115,0.066-0.248,0.066-0.4v-12.987
		h-2.723v-0.267c1.015-0.978,2.009-2.044,2.979-3.199c0.972-1.155,1.927-2.431,2.866-3.828H205.801z"/>
	<path fill="#004D72" d="M212.828,173.683v-14.739c0-0.127-0.022-0.244-0.066-0.353c-0.045-0.107-0.118-0.212-0.219-0.314
		l-0.496-0.457v-0.285h4.914v0.285l-0.515,0.457c-0.089,0.103-0.155,0.204-0.2,0.305c-0.044,0.103-0.066,0.223-0.066,0.362v14.739
		c0,0.152,0.022,0.285,0.066,0.4c0.045,0.113,0.111,0.216,0.2,0.305l0.515,0.476v0.267h-4.914v-0.267l0.496-0.476
		c0.101-0.089,0.174-0.191,0.219-0.305C212.806,173.968,212.828,173.835,212.828,173.683z M212.352,153.249
		c0-0.583,0.207-1.082,0.619-1.494c0.413-0.413,0.924-0.619,1.533-0.619c0.584,0,1.086,0.206,1.504,0.619
		c0.42,0.412,0.629,0.911,0.629,1.494c0,0.598-0.209,1.105-0.629,1.523c-0.418,0.42-0.92,0.629-1.504,0.629
		c-0.597,0-1.104-0.209-1.523-0.629C212.562,154.354,212.352,153.847,212.352,153.249z"/>
	<path fill="#004D72" d="M230.1,171.969h5.009c0.229,0,0.416-0.025,0.562-0.076c0.146-0.051,0.295-0.14,0.447-0.267l0.743-0.629
		l0.229,0.115l-2.304,4.018h-4.799c-2.959,0-5.282-0.768-6.971-2.305c-1.688-1.535-2.532-3.643-2.532-6.322
		c0-2.906,0.896-5.128,2.685-6.664c1.791-1.536,4.387-2.305,7.789-2.305h6.246l-5.998,11.464h-3.485l4.38-8.303h-2.457
		c-1.815,0-3.218,0.482-4.208,1.447s-1.485,2.33-1.485,4.095c0,1.879,0.521,3.304,1.562,4.274
		C226.552,171.483,228.082,171.969,230.1,171.969z"/>
	<path fill="#004D72" d="M241.545,173.683v-14.739c0-0.127-0.022-0.244-0.066-0.353c-0.045-0.107-0.118-0.212-0.219-0.314
		l-0.496-0.457v-0.285h7.294c0.724,0,1.415,0.172,2.075,0.514c0.66,0.344,1.213,0.813,1.657,1.41l-1.562,3.236l-0.267-0.037v-0.286
		c0-0.432-0.219-0.793-0.657-1.085c-0.438-0.292-1-0.438-1.686-0.438h-2.723v12.835c0,0.152,0.022,0.285,0.066,0.4
		c0.045,0.113,0.111,0.216,0.2,0.305l0.515,0.476v0.267h-4.914v-0.267l0.496-0.476c0.101-0.089,0.174-0.191,0.219-0.305
		C241.522,173.968,241.545,173.835,241.545,173.683z"/>
	<path fill="#004D72" d="M3.081,209.138c0-0.884,0.201-1.716,0.604-2.496c0.402-0.78,0.955-1.456,1.657-2.028
		c0.702-0.571,1.515-1.026,2.438-1.364s1.917-0.508,2.983-0.508c1.04,0,2.028,0.17,2.964,0.508c0.937,0.338,1.756,0.793,2.457,1.364
		c0.702,0.572,1.255,1.248,1.658,2.028c0.402,0.78,0.604,1.612,0.604,2.496s-0.202,1.71-0.604,2.477
		c-0.403,0.768-0.956,1.437-1.658,2.009c-0.701,0.572-1.521,1.027-2.457,1.364c-0.936,0.339-1.924,0.508-2.964,0.508
		c-1.066,0-2.061-0.169-2.983-0.508c-0.923-0.337-1.735-0.792-2.438-1.364s-1.255-1.241-1.657-2.009
		C3.282,210.848,3.081,210.021,3.081,209.138z"/>
	<path fill="#004D72" d="M38.609,194.084v11.973h14.664v-11.973h3.705v27.846h-3.705v-12.753H38.609v12.753h-3.705v-27.846H38.609z"
		/>
	<path fill="#004D72" d="M76.789,220.643c-1.508,1.145-3.406,1.716-5.693,1.716c-1.612,0-3.01-0.26-4.192-0.779
		c-1.184-0.521-2.178-1.248-2.983-2.185c-0.807-0.936-1.411-2.054-1.813-3.354c-0.404-1.3-0.631-2.717-0.683-4.251
		c0-1.534,0.233-2.938,0.702-4.212c0.468-1.274,1.124-2.38,1.969-3.315s1.846-1.664,3.003-2.184c1.157-0.521,2.425-0.78,3.803-0.78
		c1.794,0,3.282,0.37,4.466,1.111c1.183,0.741,2.132,1.684,2.847,2.827c0.715,1.145,1.209,2.393,1.482,3.744
		c0.272,1.353,0.383,2.64,0.331,3.861H64.934c-0.026,0.884,0.078,1.723,0.312,2.516c0.234,0.793,0.611,1.495,1.132,2.105
		c0.52,0.611,1.183,1.099,1.988,1.463s1.755,0.546,2.848,0.546c1.403,0,2.554-0.325,3.451-0.975c0.896-0.65,1.488-1.639,1.774-2.965
		h3.276C79.272,217.796,78.297,219.499,76.789,220.643z M75.99,207.694c-0.3-0.701-0.702-1.306-1.209-1.813
		c-0.507-0.507-1.105-0.909-1.794-1.209c-0.689-0.298-1.45-0.448-2.282-0.448c-0.857,0-1.632,0.15-2.32,0.448
		c-0.688,0.3-1.28,0.709-1.774,1.229c-0.494,0.521-0.884,1.125-1.17,1.813c-0.286,0.689-0.455,1.424-0.507,2.204h11.583
		C76.464,209.138,76.289,208.396,75.99,207.694z"/>
	<path fill="#004D72" d="M86.968,194.084v27.846h-3.314v-27.846H86.968z"/>
	<path fill="#004D72" d="M97.654,221.93l-7.488-20.163h3.705l5.655,16.81h0.078l5.499-16.81h3.471l-7.371,20.163H97.654z"/>
	<path fill="#004D72" d="M125.89,220.643c-1.508,1.145-3.406,1.716-5.693,1.716c-1.612,0-3.01-0.26-4.192-0.779
		c-1.184-0.521-2.178-1.248-2.983-2.185c-0.807-0.936-1.411-2.054-1.813-3.354c-0.404-1.3-0.631-2.717-0.683-4.251
		c0-1.534,0.233-2.938,0.702-4.212c0.468-1.274,1.124-2.38,1.969-3.315s1.846-1.664,3.003-2.184c1.157-0.521,2.425-0.78,3.803-0.78
		c1.794,0,3.282,0.37,4.466,1.111c1.183,0.741,2.132,1.684,2.847,2.827c0.715,1.145,1.209,2.393,1.482,3.744
		c0.272,1.353,0.383,2.64,0.331,3.861h-15.093c-0.026,0.884,0.078,1.723,0.312,2.516c0.234,0.793,0.611,1.495,1.132,2.105
		c0.52,0.611,1.183,1.099,1.988,1.463s1.755,0.546,2.848,0.546c1.403,0,2.554-0.325,3.451-0.975c0.896-0.65,1.488-1.639,1.774-2.965
		h3.276C128.373,217.796,127.397,219.499,125.89,220.643z M125.091,207.694c-0.3-0.701-0.702-1.306-1.209-1.813
		c-0.507-0.507-1.105-0.909-1.794-1.209c-0.689-0.298-1.45-0.448-2.282-0.448c-0.857,0-1.632,0.15-2.32,0.448
		c-0.688,0.3-1.28,0.709-1.774,1.229c-0.494,0.521-0.884,1.125-1.17,1.813c-0.286,0.689-0.455,1.424-0.507,2.204h11.583
		C125.564,209.138,125.39,208.396,125.091,207.694z"/>
	<path fill="#004D72" d="M141.178,201.767v2.925h-4.018v12.52c0,0.39,0.032,0.702,0.098,0.936c0.064,0.234,0.188,0.416,0.371,0.546
		c0.182,0.131,0.435,0.215,0.76,0.254s0.747,0.059,1.268,0.059h1.521v2.925h-2.535c-0.858,0-1.593-0.059-2.203-0.176
		c-0.611-0.117-1.105-0.331-1.482-0.644c-0.377-0.312-0.657-0.754-0.839-1.325c-0.182-0.572-0.272-1.326-0.272-2.263v-12.831h-3.433
		v-2.925h3.433v-6.045h3.314v6.045H141.178z"/>
	<path fill="#004D72" d="M145.038,198.14v-4.056h3.314v4.056H145.038z M148.353,201.767v20.163h-3.314v-20.163H148.353z"/>
	<path fill="#004D72" d="M165.551,205.276c-0.832-0.702-1.95-1.053-3.354-1.053c-1.196,0-2.198,0.222-3.003,0.663
		c-0.807,0.442-1.45,1.027-1.931,1.755c-0.481,0.729-0.826,1.566-1.034,2.516s-0.312,1.931-0.312,2.944
		c0,0.937,0.11,1.847,0.331,2.73s0.565,1.671,1.034,2.359c0.468,0.689,1.078,1.241,1.833,1.657c0.754,0.416,1.65,0.624,2.69,0.624
		c1.639,0,2.919-0.429,3.842-1.287c0.923-0.857,1.488-2.066,1.696-3.627h3.394c-0.365,2.496-1.294,4.421-2.789,5.772
		s-3.529,2.027-6.104,2.027c-1.534,0-2.893-0.247-4.075-0.74c-1.184-0.494-2.171-1.196-2.964-2.106
		c-0.794-0.91-1.392-1.995-1.794-3.257c-0.403-1.261-0.604-2.645-0.604-4.153c0-1.508,0.194-2.918,0.585-4.231
		c0.39-1.312,0.98-2.457,1.774-3.432c0.793-0.976,1.787-1.742,2.983-2.302c1.195-0.559,2.587-0.838,4.173-0.838
		c1.144,0,2.217,0.137,3.218,0.409c1,0.273,1.885,0.696,2.651,1.268c0.767,0.572,1.397,1.294,1.892,2.165s0.806,1.904,0.937,3.1
		h-3.433C166.929,206.967,166.383,205.979,165.551,205.276z"/>
	<path fill="#004D72" d="M189.925,222.358c-0.857,0-1.54-0.24-2.047-0.722c-0.507-0.48-0.761-1.267-0.761-2.359
		c-0.91,1.093-1.97,1.879-3.179,2.359c-1.209,0.481-2.516,0.722-3.919,0.722c-0.911,0-1.769-0.098-2.574-0.292
		c-0.807-0.195-1.515-0.52-2.126-0.976c-0.61-0.454-1.092-1.039-1.442-1.755c-0.352-0.715-0.526-1.579-0.526-2.593
		c0-1.145,0.194-2.08,0.585-2.809c0.39-0.728,0.903-1.319,1.54-1.774c0.637-0.454,1.365-0.8,2.185-1.033
		c0.818-0.234,1.657-0.43,2.515-0.585c0.91-0.182,1.775-0.318,2.594-0.41c0.819-0.091,1.541-0.221,2.165-0.39
		s1.117-0.416,1.481-0.741c0.364-0.324,0.546-0.799,0.546-1.423c0-0.729-0.136-1.313-0.409-1.756
		c-0.273-0.441-0.624-0.779-1.053-1.014c-0.43-0.234-0.91-0.39-1.443-0.468s-1.06-0.117-1.579-0.117c-1.404,0-2.574,0.267-3.511,0.8
		c-0.936,0.533-1.442,1.54-1.521,3.022h-3.315c0.052-1.248,0.312-2.301,0.78-3.159s1.092-1.554,1.872-2.087
		c0.78-0.532,1.677-0.916,2.691-1.15c1.014-0.233,2.079-0.351,3.197-0.351c0.91,0,1.813,0.065,2.711,0.195
		c0.896,0.13,1.709,0.396,2.438,0.799c0.728,0.403,1.312,0.969,1.755,1.696c0.441,0.729,0.663,1.678,0.663,2.848v10.374
		c0,0.779,0.045,1.352,0.137,1.716c0.091,0.364,0.396,0.546,0.916,0.546c0.286,0,0.624-0.064,1.015-0.195v2.574
		C191.732,222.189,190.939,222.358,189.925,222.358z M185.284,212.199c-0.677,0.144-1.385,0.26-2.125,0.351
		c-0.741,0.092-1.489,0.195-2.243,0.312s-1.43,0.306-2.027,0.565c-0.599,0.26-1.086,0.631-1.463,1.111
		c-0.377,0.481-0.565,1.138-0.565,1.97c0,0.546,0.11,1.008,0.331,1.385s0.508,0.683,0.858,0.916
		c0.351,0.234,0.767,0.403,1.248,0.507c0.48,0.104,0.968,0.156,1.463,0.156c1.092,0,2.027-0.149,2.808-0.448
		s1.417-0.676,1.911-1.131c0.493-0.455,0.857-0.949,1.092-1.482c0.234-0.532,0.351-1.033,0.351-1.501v-3.394
		C186.506,211.829,185.96,212.057,185.284,212.199z"/>
	<path fill="#004D72" d="M210.674,194.084l14.664,22.581h0.077v-22.581h3.511v27.846h-4.057l-14.547-22.347h-0.078v22.347h-3.51
		v-27.846H210.674z"/>
	<path fill="#004D72" d="M248.658,220.643c-1.508,1.145-3.406,1.716-5.693,1.716c-1.612,0-3.01-0.26-4.192-0.779
		c-1.184-0.521-2.178-1.248-2.983-2.185c-0.807-0.936-1.411-2.054-1.813-3.354c-0.404-1.3-0.631-2.717-0.683-4.251
		c0-1.534,0.233-2.938,0.702-4.212c0.468-1.274,1.124-2.38,1.969-3.315s1.846-1.664,3.003-2.184c1.157-0.521,2.425-0.78,3.803-0.78
		c1.794,0,3.282,0.37,4.466,1.111c1.183,0.741,2.132,1.684,2.847,2.827c0.715,1.145,1.209,2.393,1.482,3.744
		c0.272,1.353,0.383,2.64,0.331,3.861h-15.093c-0.026,0.884,0.078,1.723,0.312,2.516c0.234,0.793,0.611,1.495,1.132,2.105
		c0.52,0.611,1.183,1.099,1.988,1.463s1.755,0.546,2.848,0.546c1.403,0,2.554-0.325,3.451-0.975c0.896-0.65,1.488-1.639,1.774-2.965
		h3.276C251.142,217.796,250.166,219.499,248.658,220.643z M247.859,207.694c-0.3-0.701-0.702-1.306-1.209-1.813
		c-0.507-0.507-1.105-0.909-1.794-1.209c-0.689-0.298-1.45-0.448-2.282-0.448c-0.857,0-1.632,0.15-2.32,0.448
		c-0.688,0.3-1.28,0.709-1.774,1.229c-0.494,0.521-0.884,1.125-1.17,1.813c-0.286,0.689-0.455,1.424-0.507,2.204h11.583
		C248.333,209.138,248.158,208.396,247.859,207.694z"/>
	<path fill="#004D72" d="M268.899,221.93v-3.198h-0.078c-0.702,1.248-1.6,2.165-2.691,2.75s-2.379,0.877-3.86,0.877
		c-1.326,0-2.432-0.175-3.315-0.526c-0.884-0.351-1.599-0.852-2.146-1.501c-0.546-0.65-0.93-1.424-1.15-2.321
		c-0.221-0.896-0.331-1.891-0.331-2.983v-13.26h3.314v13.65c0,1.248,0.364,2.236,1.093,2.964c0.728,0.729,1.729,1.092,3.003,1.092
		c1.014,0,1.892-0.156,2.632-0.468c0.741-0.312,1.358-0.754,1.853-1.326c0.494-0.571,0.864-1.241,1.112-2.009
		c0.246-0.767,0.37-1.604,0.37-2.516v-11.388h3.315v20.163H268.899z"/>
	<path fill="#004D72" d="M291.284,220.643c-1.508,1.145-3.406,1.716-5.693,1.716c-1.612,0-3.01-0.26-4.192-0.779
		c-1.184-0.521-2.178-1.248-2.983-2.185c-0.807-0.936-1.411-2.054-1.813-3.354c-0.404-1.3-0.631-2.717-0.683-4.251
		c0-1.534,0.233-2.938,0.702-4.212c0.468-1.274,1.124-2.38,1.969-3.315s1.846-1.664,3.003-2.184c1.157-0.521,2.425-0.78,3.803-0.78
		c1.794,0,3.282,0.37,4.466,1.111c1.183,0.741,2.132,1.684,2.847,2.827c0.715,1.145,1.209,2.393,1.482,3.744
		c0.272,1.353,0.383,2.64,0.331,3.861h-15.093c-0.026,0.884,0.078,1.723,0.312,2.516c0.234,0.793,0.611,1.495,1.132,2.105
		c0.52,0.611,1.183,1.099,1.988,1.463s1.755,0.546,2.848,0.546c1.403,0,2.554-0.325,3.451-0.975c0.896-0.65,1.488-1.639,1.774-2.965
		h3.276C293.768,217.796,292.792,219.499,291.284,220.643z M290.485,207.694c-0.3-0.701-0.702-1.306-1.209-1.813
		c-0.507-0.507-1.105-0.909-1.794-1.209c-0.689-0.298-1.45-0.448-2.282-0.448c-0.857,0-1.632,0.15-2.32,0.448
		c-0.688,0.3-1.28,0.709-1.774,1.229c-0.494,0.521-0.884,1.125-1.17,1.813c-0.286,0.689-0.455,1.424-0.507,2.204h11.583
		C290.959,209.138,290.784,208.396,290.485,207.694z"/>
	<path fill="#004D72" d="M3.081,255.938c0-0.884,0.201-1.716,0.604-2.496c0.402-0.78,0.955-1.456,1.657-2.028
		c0.702-0.571,1.515-1.026,2.438-1.364s1.917-0.508,2.983-0.508c1.04,0,2.028,0.17,2.964,0.508c0.937,0.338,1.756,0.793,2.457,1.364
		c0.702,0.572,1.255,1.248,1.658,2.028c0.402,0.78,0.604,1.612,0.604,2.496s-0.202,1.71-0.604,2.477
		c-0.403,0.768-0.956,1.437-1.658,2.009c-0.701,0.572-1.521,1.027-2.457,1.364c-0.936,0.339-1.924,0.508-2.964,0.508
		c-1.066,0-2.061-0.169-2.983-0.508c-0.923-0.337-1.735-0.792-2.438-1.364s-1.255-1.241-1.657-2.009
		C3.282,257.647,3.081,256.821,3.081,255.938z"/>
	<path fill="#004D72" d="M36.659,256.249h16.927v-11.622c0-0.976,1.326-0.976,1.326,0v23.479c0,0.897-1.326,0.897-1.326,0v-10.687
		l-16.927-0.039v10.726c0,0.897-1.287,0.897-1.287,0v-23.479c0-0.976,1.287-0.976,1.287,0V256.249z"/>
	<path fill="#004D72" d="M80.651,258.745c0.039,0.546-0.155,1.287-1.209,1.287h-17.55c0.194,1.677,0.818,3.276,1.988,4.641
		c1.639,1.95,4.096,2.965,6.631,3.004c2.145,0.039,4.329-0.624,6.123-1.989c0.702-0.546,1.638,0.233,0.897,0.975
		c-1.756,1.639-4.33,2.38-6.903,2.341c-3.043-0.039-6.046-1.171-7.84-3.472c-1.638-2.106-2.496-4.524-2.34-7.449
		c0.195-4.212,2.925-7.995,7.137-9.165c1.795-0.469,3.939-0.507,5.89,0C77.844,250.087,80.574,253.714,80.651,258.745z
		 M61.854,258.745h17.473c-0.078-4.29-2.38-7.527-6.279-8.58c-1.561-0.391-3.394-0.391-4.992,0.039
		C64.154,251.257,61.893,254.845,61.854,258.745z"/>
	<path fill="#004D72" d="M87.242,253.792c0.857-2.964,3.821-4.992,7.059-4.992c0.43,0,0.702,0.234,0.702,0.663
		s-0.272,0.663-0.702,0.663c-4.992,0-7.059,4.251-7.059,8.97v9.01c0,0.429-0.312,0.702-0.663,0.702c-0.43,0-0.702-0.273-0.702-0.702
		v-18.643c0-0.352,0.272-0.663,0.702-0.663c0.351,0,0.663,0.312,0.663,0.663V253.792z"/>
	<path fill="#004D72" d="M99.254,265.531c-1.716-2.067-2.496-4.524-2.34-7.449c0.351-4.173,2.925-7.995,7.138-9.165
		c1.794-0.469,3.938-0.507,5.889,0c4.212,1.17,6.825,4.992,7.177,9.165c0.155,2.925-0.624,5.382-2.341,7.449
		c-1.911,2.263-4.68,3.472-7.761,3.472S101.165,267.794,99.254,265.531z M104.52,250.243c-6.046,1.599-8.151,9.672-4.174,14.43
		c1.6,1.911,4.057,3.004,6.67,3.004c2.651,0,5.147-1.093,6.747-3.004c3.979-4.758,1.794-12.831-4.251-14.43
		C107.951,249.853,106.118,249.813,104.52,250.243z"/>
	<path fill="#004D72" d="M134.003,268.729c-0.507,0-0.702-0.273-0.702-0.741v-23.596c0-0.975,1.326-0.975,1.326,0v23.128h16.381
		c0.896,0,0.857,1.209,0,1.209H134.003z"/>
	<path fill="#004D72" d="M156.74,246.226c0,0.858-1.443,0.858-1.443,0v-2.184c0-0.858,1.443-0.858,1.443,0V246.226z
		 M155.336,249.463c0-0.937,1.365-0.937,1.365-0.039v18.993c0,0.937-1.365,0.937-1.365,0V249.463z"/>
	<path fill="#004D72" d="M180.803,268.105c0,5.616-4.212,8.541-9.516,8.541c-2.926,0-5.305-0.585-7.411-2.574
		c-0.74-0.74,0.195-1.521,0.897-0.975c2.262,1.716,3.9,2.223,6.514,2.223c4.29,0,8.151-2.301,8.151-7.215v-3.627
		c-1.287,3.042-4.291,4.602-7.527,4.68c-1.482,0.039-2.848-0.194-4.135-0.741c-3.705-1.442-5.811-5.069-5.928-9.009
		c-0.117-4.563,1.989-8.425,6.201-10.141c2.964-1.209,6.084-0.857,8.541,0.585c1.287,0.858,2.262,1.911,2.848,3.472v-3.861
		c0-0.429,0.233-0.702,0.662-0.702c0.43,0,0.702,0.273,0.702,0.702V268.105z M171.442,249.892c-1.755,0.117-3.432,0.702-4.797,1.755
		c-2.535,2.028-3.549,4.798-3.432,7.801c0.039,1.131,0.272,2.379,0.701,3.393c1.326,3.237,4.681,4.992,7.996,4.954
		c4.368-0.156,7.254-3.198,7.527-7.216v-3.394c-0.156-2.847-1.482-5.187-4.057-6.435
		C174.095,250.165,172.808,249.853,171.442,249.892z"/>
	<path fill="#004D72" d="M204.632,257.146c0-5.07-4.72-8.269-9.321-7.06c-4.018,1.014-6.708,4.797-6.825,8.893v9.282
		c0,0.429-0.234,0.702-0.663,0.702c-0.43,0-0.702-0.273-0.702-0.702v-24.376c0-0.937,1.365-0.858,1.365,0.039v10.959
		c0.896-3.276,3.588-5.343,6.396-6.084c5.188-1.326,11.116,1.755,11.116,8.347v11.115c0,0.429-0.234,0.702-0.663,0.702
		c-0.43,0-0.702-0.273-0.702-0.702V257.146z"/>
	<path fill="#004D72" d="M220.854,248.878c1.014,0,1.014,1.248,0,1.248h-5.421V262.1c0,2.808,0.468,5.694,4.095,5.694
		c0.741,0,1.794-0.273,2.34-0.586c0.819-0.39,1.561,0.624,0.508,1.171c-0.976,0.507-1.872,0.663-2.848,0.663
		c-4.368,0-5.421-3.315-5.421-6.942v-11.974h-3.627c-1.054,0-1.054-1.248,0-1.248h3.627v-4.992c0-0.858,1.326-0.819,1.326,0v4.992
		H220.854z"/>
	<path fill="#004D72" d="M3.081,302.737c0-0.884,0.201-1.716,0.604-2.496c0.402-0.78,0.955-1.456,1.657-2.028
		c0.702-0.571,1.515-1.026,2.438-1.364s1.917-0.508,2.983-0.508c1.04,0,2.028,0.17,2.964,0.508c0.937,0.338,1.756,0.793,2.457,1.364
		c0.702,0.572,1.255,1.248,1.658,2.028c0.402,0.78,0.604,1.612,0.604,2.496s-0.202,1.71-0.604,2.477
		c-0.403,0.768-0.956,1.436-1.658,2.008c-0.701,0.572-1.521,1.027-2.457,1.365c-0.936,0.338-1.924,0.508-2.964,0.508
		c-1.066,0-2.061-0.17-2.983-0.508s-1.735-0.793-2.438-1.365s-1.255-1.24-1.657-2.008C3.282,304.447,3.081,303.621,3.081,302.737z"
		/>
	<path fill="#004D72" d="M50.505,308.392c0.391-1.988,0.702-4.212,0.976-6.748c1.911-17.512,5.069-20.71,9.477-20.71
		c3.315,0,5.031,3.237,5.031,7.566c0,6.981-4.368,16.81-13.377,20.438c-0.937,4.562-2.224,7.76-3.705,10.1
		c4.485,1.6,7.878,3.979,12.363,3.979c3.198,0,4.251-2.145,4.524-3.549c0.663,0.156,1.326,0.312,1.988,0.508
		c-0.585,2.535-2.612,4.68-6.474,4.68c-4.875,0-8.854-2.574-13.261-4.33c-2.574,3.316-5.655,4.33-8.736,4.33
		c-2.418,0-4.212-1.17-4.212-3.314c0-1.873,1.755-3.861,5.46-3.861c2.496,0,4.642,0.35,6.553,0.936
		c1.248-2.027,2.301-4.836,3.12-8.697c-1.639,0.43-3.394,0.701-5.305,0.701c-9.75,0-13.885-5.538-13.885-10.919
		c0-5.07,3.666-10.023,9.751-10.023c1.599,0,2.808,0.312,4.056,1.014c-0.312,0.663-0.663,1.287-0.975,1.911
		c-0.897-0.585-1.911-0.78-3.081-0.78c-4.953,0-7.879,3.939-7.879,8.112c0,4.563,3.589,9.516,12.013,9.516
		C46.956,309.25,48.828,308.939,50.505,308.392z M46.449,319.625c-1.794-0.625-3.705-1.014-5.733-1.014
		c-2.535,0-3.861,1.482-3.861,2.809c0,1.092,0.936,2.105,2.77,2.105C42.12,323.525,44.421,322.511,46.449,319.625z M53.742,301.645
		c-0.234,2.067-0.507,3.9-0.819,5.617c7.645-3.901,11.038-13.144,11.038-19.267c0-3.432-1.054-5.889-3.043-5.889
		C58.228,282.105,55.497,284.874,53.742,301.645z"/>
	<path fill="#004D72" d="M72.071,297.783h1.755c-0.975,4.798-1.833,9.283-2.301,12.949c-0.117,0.779-0.156,1.443-0.156,1.951
		c0,0.896,0.156,1.402,0.468,1.402c0.897,0,2.535-2.729,4.524-7.955c0.234,0,0.702,0.312,0.702,0.389
		c-2.73,6.592-4.134,9.205-5.772,9.205c-1.131,0-1.599-1.404-1.599-4.018l0.195-1.871c-1.093,3.119-2.613,5.889-4.72,5.889
		c-1.677,0-2.418-1.754-2.418-4.523c0-5.461,2.847-13.69,6.357-13.69c1.56,0,2.223,1.248,2.418,3.003L72.071,297.783z M64.7,311.201
		c0,1.637,0.351,2.77,1.17,2.77c2.106,0,4.875-7.918,4.875-11.78c0-1.872-0.507-3.12-1.56-3.12
		C67.04,299.07,64.7,306.871,64.7,311.201z"/>
	<path fill="#004D72" d="M77.569,305.077l-0.507,1.442c0,0-0.702-0.115-0.702-0.389c0.39-1.209,0.819-2.575,1.131-3.94
		c0-1.521,0.039-3.042,0.117-4.445h1.638c0.078,1.325-0.039,2.496-0.507,3.938c0.156,3.081,0.391,7.216,0.702,11.701
		c0.976-1.404,1.872-3.043,2.613-4.797c-0.585-1.326-0.858-3.277-0.858-5.188c0-3.978,1.365-8.307,3.55-8.307
		c1.286,0,1.949,1.248,1.949,3.432c0,3.276-1.481,7.254-3.12,10.686c0.352,0.43,0.819,0.703,1.365,0.703
		c1.521,0,2.535-1.443,3.394-3.783c0.194,0,0.702,0.195,0.702,0.389c-0.937,2.926-2.535,4.174-4.213,4.174
		c-0.624,0-1.209-0.234-1.677-0.74c-1.209,2.535-2.535,4.602-3.627,5.576h-1.326C77.998,312.759,77.687,308.978,77.569,305.077z
		 M84.434,296.146c-1.209,0-2.223,3.276-2.262,6.592c-0.039,2.807,0.155,3.86,0.39,4.641c1.521-3.823,2.418-7.8,2.418-10.024
		C84.979,296.458,84.784,296.146,84.434,296.146z"/>
	<path fill="#004D72" d="M96.991,297.783h1.755c-0.975,4.798-1.833,9.283-2.301,12.949c-0.117,0.779-0.156,1.443-0.156,1.951
		c0,0.896,0.156,1.402,0.468,1.402c0.897,0,2.535-2.729,4.524-7.955c0.234,0,0.702,0.312,0.702,0.389
		c-2.73,6.592-4.134,9.205-5.772,9.205c-1.131,0-1.599-1.404-1.599-4.018l0.195-1.871c-1.093,3.119-2.613,5.889-4.72,5.889
		c-1.677,0-2.418-1.754-2.418-4.523c0-5.461,2.847-13.69,6.357-13.69c1.56,0,2.223,1.248,2.418,3.003L96.991,297.783z
		 M89.62,311.201c0,1.637,0.351,2.77,1.17,2.77c2.106,0,4.875-7.918,4.875-11.78c0-1.872-0.507-3.12-1.56-3.12
		C91.96,299.07,89.62,306.871,89.62,311.201z"/>
	<path fill="#004D72" d="M99.33,315.529c0.078-0.545,0.468-3.314,1.326-5.967c0.741-4.212,1.56-8.931,1.911-11.817h2.106
		l-0.937,5.421c1.404-2.925,2.848-5.577,5.188-5.577c1.248,0,1.989,0.896,1.989,2.496c0,3.275-2.73,9.321-2.73,12.52
		c0,1.053,0.39,1.441,0.936,1.441c1.287,0,2.887-3.432,4.603-7.916c0.234,0,0.702,0.312,0.702,0.389l-0.429,1.133
		c-1.521,4.055-3.354,8.072-5.694,8.072c-1.287,0-2.224-0.975-2.224-2.77c0-3.627,2.77-9.945,2.77-12.441
		c0-0.936-0.273-1.443-0.897-1.443c-1.287,0-3.627,3.628-5.07,8.736l-1.442,7.723H99.33z"/>
	<path fill="#004D72" d="M124.642,284.835h1.833c-0.702,5.812-4.446,23.596-4.446,26.715c0,1.443,0.272,1.912,0.663,1.912
		c1.131,0,2.535-2.887,4.212-7.332c0.272,0,0.741,0.389,0.741,0.428c-2.341,6.24-4.329,9.166-5.968,9.166
		c-1.17,0-1.755-1.092-1.755-3.471c0-0.508,0.117-1.443,0.273-2.652c-1.171,3.432-2.613,6.201-4.798,6.201
		c-1.677,0-2.34-1.949-2.34-4.602c0-5.461,2.809-13.69,6.318-13.69c1.443,0,2.184,1.053,2.457,2.691
		C122.691,295.171,123.9,288.774,124.642,284.835z M114.969,311.201c0,1.637,0.351,2.77,1.17,2.77c1.872,0,4.914-7.684,4.914-11.741
		c0-1.716-0.468-3.159-1.599-3.159C117.27,299.07,114.969,306.91,114.969,311.201z"/>
	<path fill="#004D72" d="M137.238,306.13c0.195,0,0.702,0.273,0.702,0.389c-1.287,3.59-3.588,9.283-7.176,9.283
		c-3.003,0-4.174-2.887-4.174-6.357c0-5.304,2.73-11.973,6.475-11.973c1.482,0,2.224,1.014,2.224,2.418
		c0,3.081-3.55,6.592-6.514,7.137c-0.117,0.779-0.195,1.521-0.195,2.262c0,2.613,0.741,4.682,2.691,4.682
		C133.807,313.97,135.874,309.757,137.238,306.13z M128.893,306.013c3.276-1.521,4.758-4.251,4.758-6.084
		c0-0.936-0.272-1.404-0.78-1.404C131.193,298.524,129.556,302.386,128.893,306.013z"/>
	<path fill="#004D72" d="M141.919,314.007c1.092,0,2.573-2.807,4.523-7.877c0.156,0,0.702,0.195,0.702,0.389
		c-2.067,5.383-3.393,9.205-5.889,9.205c-1.443,0-2.067-0.975-2.067-2.574c0-2.652,1.833-5.498,1.833-7.956
		c0-1.872-0.819-3.082-1.365-4.368c-0.507,2.027-1.131,4.095-1.716,5.693c0,0-0.702-0.115-0.702-0.389
		c0.702-2.029,1.326-4.486,1.755-6.826c-0.272-0.585-0.39-1.365-0.39-2.379c0-1.404,0.272-3.003,0.702-4.603l1.833,0.507
		c-0.039,2.067-0.352,3.744-0.702,5.461l-0.234,0.779c0.976,1.521,2.77,3.159,2.77,5.772c0,2.887-1.833,6.045-1.833,8.073
		C141.139,313.658,141.45,314.007,141.919,314.007z"/>
	<path fill="#004D72" d="M150.186,297.745c-1.248,5.967-2.457,11.504-2.457,14.704c0,1.17,0.312,1.598,0.702,1.598
		c1.209,0,2.652-2.846,4.562-7.916c0.195,0,0.702,0.195,0.702,0.389c-2.027,5.383-3.393,9.205-5.889,9.205
		c-1.404,0-1.989-1.678-1.989-4.057c0-3.938,1.482-9.945,2.301-13.922H150.186z M148.664,293.649c0-0.858,0.547-1.911,1.6-1.911
		c0.819,0,1.17,0.624,1.17,1.326c0,0.897-0.624,1.833-1.599,1.833C149.016,294.897,148.664,294.312,148.664,293.649z"/>
	<path fill="#004D72" d="M154.67,315.802c-1.677,0-2.34-1.949-2.34-4.602c0-5.461,2.847-13.69,6.357-13.69
		c1.56,0,2.223,1.248,2.418,3.003l0.546-2.73h1.755c-1.17,5.851-2.223,9.83-2.223,14.275c0,6.904,3.744,10.803,9.556,10.803
		c7.644,0,12.168-6.395,12.168-13.143c0-5.578-3.432-10.14-9.984-10.492l0.156-1.911c7.839,0.312,11.466,6.084,11.466,12.325
		c0,6.826-4.992,14.391-13.923,14.391c-7.527,0-11.232-4.914-11.232-12.52c0-0.545,0.039-1.092,0.078-1.676
		C158.336,313.189,156.815,315.802,154.67,315.802z M154.28,311.201c0,1.637,0.351,2.77,1.17,2.77c2.106,0,4.875-7.918,4.875-11.78
		c0-1.872-0.507-3.12-1.56-3.12C156.62,299.07,154.28,306.871,154.28,311.201z"/>
	<path fill="#004D72" d="M3.081,349.537c0-0.883,0.201-1.715,0.604-2.496c0.402-0.779,0.955-1.455,1.657-2.027
		s1.515-1.027,2.438-1.365s1.917-0.508,2.983-0.508c1.04,0,2.028,0.17,2.964,0.508c0.937,0.338,1.756,0.793,2.457,1.365
		c0.702,0.572,1.255,1.248,1.658,2.027c0.402,0.781,0.604,1.613,0.604,2.496c0,0.885-0.202,1.711-0.604,2.477
		c-0.403,0.768-0.956,1.438-1.658,2.01c-0.701,0.572-1.521,1.027-2.457,1.363c-0.936,0.34-1.924,0.508-2.964,0.508
		c-1.066,0-2.061-0.168-2.983-0.508c-0.923-0.336-1.735-0.791-2.438-1.363s-1.255-1.242-1.657-2.01
		C3.282,351.248,3.081,350.421,3.081,349.537z"/>
	<path fill="#004D72" d="M51.479,361.16c0,0.363-0.131,0.682-0.391,0.955s-0.585,0.41-0.975,0.41c-0.364,0-0.683-0.137-0.955-0.41
		c-0.273-0.273-0.41-0.592-0.41-0.955v-20.553l-4.445,8.695c-0.131,0.365-0.352,0.625-0.663,0.781
		c-0.261,0.104-0.469,0.156-0.624,0.156c-0.131,0-0.241-0.014-0.332-0.039s-0.188-0.064-0.292-0.117
		c-0.339-0.156-0.572-0.416-0.702-0.781l-4.407-8.695v20.553c0,0.363-0.137,0.682-0.409,0.955c-0.273,0.273-0.592,0.41-0.956,0.41
		c-0.39,0-0.721-0.137-0.994-0.41s-0.409-0.592-0.409-0.955v-26.287v-0.078v-0.039v-0.039c0.025,0,0.039-0.012,0.039-0.039v-0.039
		v-0.076c0.025-0.053,0.064-0.156,0.116-0.312l0.039-0.039v-0.039l0.039-0.039v-0.039c0.025,0,0.039-0.014,0.039-0.039
		c0.052-0.053,0.084-0.092,0.098-0.117c0.013-0.025,0.045-0.051,0.098-0.078l0.039-0.039c0-0.025,0.013-0.039,0.039-0.039H35.1
		v-0.039h0.039c0-0.025,0.013-0.039,0.039-0.039h0.038v-0.039h0.039h0.039c0-0.025,0.013-0.039,0.039-0.039s0.039-0.006,0.039-0.02
		c0-0.012,0.013-0.02,0.039-0.02h0.039l0.039-0.039h0.039h0.039h0.039c0-0.025,0.013-0.039,0.039-0.039h0.039h0.078h0.077h0.039
		h0.039h0.039h0.039h0.039h0.039h0.039h0.039l0.039,0.039c0.104,0,0.208,0.027,0.312,0.078c0.026,0.027,0.052,0.039,0.078,0.039
		c0,0.027,0.013,0.039,0.039,0.039l0.039,0.039c0.025,0,0.052,0.014,0.078,0.039c0.078,0.078,0.143,0.131,0.195,0.156
		c0,0.025,0.013,0.039,0.039,0.039v0.039l0.039,0.039v0.039c0.025,0,0.038,0.014,0.038,0.039l0.039,0.039v0.039l0.039,0.039
		l5.89,11.543l5.889-11.543v-0.039l0.039-0.039v-0.039h0.039v-0.039l0.039-0.039c0-0.025,0.013-0.039,0.039-0.039v-0.039
		c0.104-0.104,0.182-0.168,0.233-0.195c0-0.025,0.013-0.039,0.039-0.039h0.039c0-0.025,0.013-0.039,0.039-0.039v-0.039h0.039h0.039
		c0-0.025,0.013-0.039,0.039-0.039c0.025-0.025,0.059-0.039,0.098-0.039s0.084-0.012,0.137-0.039h0.039h0.038
		c0-0.025,0.014-0.039,0.039-0.039h0.039h0.039h0.039h0.039h0.078h0.078h0.078h0.039h0.039h0.039v0.039h0.039h0.038h0.039h0.039
		v0.039h0.078l0.039,0.039h0.039l0.039,0.039h0.078v0.039h0.039v0.039h0.039l0.039,0.039c0.025,0,0.039,0.014,0.039,0.039h0.039
		l0.039,0.039c0.052,0.027,0.104,0.092,0.155,0.195c0.025,0,0.039,0.014,0.039,0.039l0.039,0.039v0.039l0.039,0.039l0.039,0.039
		c0.052,0.104,0.078,0.195,0.078,0.273v0.039h0.039v0.076v0.039v0.039v0.039v0.039v0.078V361.16z"/>
	<path fill="#004D72" d="M69.828,360.166c0.273,0.271,0.41,0.604,0.41,0.994c0,0.363-0.137,0.682-0.41,0.955
		c-0.272,0.273-0.604,0.41-0.994,0.41H58.499c-0.391,0-0.722-0.137-0.995-0.41c-0.272-0.273-0.409-0.592-0.409-0.955v-26.287
		c0-0.363,0.137-0.682,0.409-0.955c0.273-0.273,0.604-0.41,0.995-0.41h10.335c0.39,0,0.722,0.137,0.994,0.41
		c0.273,0.273,0.41,0.592,0.41,0.955c0,0.391-0.137,0.723-0.41,0.994c-0.272,0.273-0.604,0.41-0.994,0.41h-8.97v11.973h6.746
		c0.391,0,0.715,0.137,0.976,0.41c0.26,0.273,0.39,0.604,0.39,0.994c0,0.365-0.13,0.684-0.39,0.955
		c-0.261,0.273-0.585,0.41-0.976,0.41h-6.746v8.736h8.97C69.224,359.755,69.556,359.892,69.828,360.166z"/>
	<path fill="#004D72" d="M89.036,361.978l-0.038,0.039c-0.026,0-0.039,0.014-0.039,0.039H88.92l-0.039,0.039
		c0,0.025-0.014,0.039-0.039,0.039l-0.039,0.039h-0.039c0,0.025-0.014,0.039-0.039,0.039h-0.039v0.039h-0.039l-0.039,0.039
		c-0.104,0.051-0.208,0.078-0.312,0.078c-0.053,0.025-0.144,0.039-0.273,0.039h-0.039h-0.039h-0.039h-0.078
		c-0.052,0-0.091-0.014-0.116-0.039h-0.078c-0.053-0.027-0.085-0.039-0.098-0.039c-0.014,0-0.046-0.014-0.098-0.039
		c-0.026-0.025-0.053-0.039-0.078-0.039c-0.026,0-0.052-0.014-0.078-0.039l-0.039-0.039l-0.039-0.039h-0.038
		c0-0.025-0.014-0.039-0.039-0.039l-0.039-0.039l-0.039-0.039l-0.039-0.039l-0.039-0.039c-0.026-0.025-0.039-0.051-0.039-0.078
		c-0.026,0-0.039-0.012-0.039-0.039l-0.039-0.039c-0.026-0.025-0.039-0.064-0.039-0.117c-0.026-0.025-0.039-0.045-0.039-0.059
		c0-0.012-0.014-0.031-0.039-0.059L78,341.425v19.617c0,0.363-0.131,0.682-0.391,0.955s-0.585,0.41-0.975,0.41
		c-0.364,0-0.683-0.137-0.956-0.41c-0.272-0.273-0.409-0.592-0.409-0.955v-26.248v-0.078v-0.039v-0.039v-0.037v-0.039v-0.039h0.039
		v-0.078v-0.039v-0.039l0.039-0.039v-0.078c0.025,0,0.039-0.014,0.039-0.039s0.006-0.039,0.02-0.039c0.013,0,0.02-0.014,0.02-0.039
		v-0.039h0.039v-0.039c0-0.025,0.013-0.039,0.039-0.039v-0.039l0.039-0.039l0.039-0.039c0-0.025,0.013-0.039,0.038-0.039
		c0-0.025,0.007-0.039,0.02-0.039c0.014,0,0.02-0.012,0.02-0.039c0.026,0,0.039-0.012,0.039-0.039h0.039l0.039-0.039l0.039-0.039
		c0.025,0,0.039-0.012,0.039-0.039h0.039l0.039-0.039h0.039l0.039-0.039h0.039c0.052-0.051,0.104-0.078,0.156-0.078
		c0.052,0,0.104-0.012,0.155-0.039H76.4c0.052-0.025,0.156-0.039,0.312-0.039h0.078h0.039c0.025,0,0.038,0.014,0.038,0.039h0.039
		h0.039h0.078c0.025,0.027,0.052,0.039,0.078,0.039l0.039,0.039h0.078l0.039,0.039c0.025,0,0.052,0.014,0.078,0.039h0.039
		c0,0.027,0.013,0.039,0.039,0.039l0.038,0.039h0.039v0.039h0.039c0,0.027,0.013,0.039,0.039,0.039c0,0.027,0.013,0.039,0.039,0.039
		c0.025,0.027,0.039,0.053,0.039,0.078c0.025,0,0.039,0.014,0.039,0.039h0.039v0.039h0.039v0.039c0,0.025,0.013,0.039,0.039,0.039
		v0.039l0.039,0.039c0,0.025,0.006,0.039,0.02,0.039c0.013,0,0.02,0.014,0.02,0.039l0.039,0.078l8.735,20.162v-19.656
		c0-0.363,0.13-0.682,0.391-0.955c0.26-0.273,0.585-0.41,0.975-0.41c0.364,0,0.683,0.137,0.956,0.41
		c0.272,0.273,0.409,0.592,0.409,0.955v26.248v0.117v0.039v0.039v0.039v0.039l-0.039,0.039v0.039v0.076l-0.039,0.039v0.078
		c-0.026,0-0.039,0.014-0.039,0.039v0.039l-0.039,0.039v0.039c-0.026,0-0.039,0.014-0.039,0.039v0.039h-0.039v0.039l-0.039,0.039
		c0,0.027-0.013,0.039-0.039,0.039c0,0.027-0.006,0.039-0.02,0.039C89.043,361.939,89.036,361.953,89.036,361.978z"/>
	<path fill="#004D72" d="M101.243,362.679c-1.82,0-3.354-0.52-4.603-1.559c-0.494-0.416-0.981-1.047-1.462-1.893
		c-0.481-0.844-0.722-1.994-0.722-3.451c0-0.391,0.137-0.715,0.409-0.975c0.273-0.26,0.604-0.391,0.995-0.391
		c0.363,0,0.676,0.131,0.936,0.391s0.391,0.584,0.391,0.975c0,0.857,0.123,1.561,0.37,2.105c0.247,0.547,0.565,0.969,0.955,1.268
		c0.391,0.301,0.825,0.508,1.307,0.625s0.956,0.176,1.424,0.176c0.26,0,0.63-0.033,1.111-0.098c0.48-0.064,0.956-0.24,1.424-0.527
		c0.468-0.285,0.877-0.701,1.229-1.248c0.351-0.545,0.526-1.312,0.526-2.301c0-0.961-0.137-1.807-0.409-2.535
		c-0.273-0.727-0.65-1.377-1.132-1.949s-1.033-1.098-1.657-1.58c-0.624-0.48-1.287-0.969-1.989-1.463
		c-0.624-0.441-1.254-0.91-1.892-1.404c-0.637-0.492-1.215-1.039-1.735-1.637c-1.222-1.43-1.846-3.082-1.872-4.953
		c0-0.104,0.007-0.312,0.02-0.625c0.013-0.311,0.059-0.676,0.137-1.092c0.234-1.326,0.754-2.43,1.561-3.314
		c1.17-1.223,2.742-1.834,4.719-1.834c2.002,0,3.549,0.611,4.641,1.834c0.391,0.443,0.702,0.949,0.937,1.521
		c0.233,0.572,0.376,1.195,0.429,1.871c0.052,0.469,0.071,0.865,0.059,1.189c-0.014,0.326-0.033,0.514-0.059,0.566
		c-0.078,0.338-0.169,0.637-0.273,0.896c-0.13,0.209-0.286,0.391-0.468,0.547c-0.182,0.154-0.455,0.207-0.818,0.154
		c-0.365-0.051-0.624-0.188-0.78-0.408s-0.261-0.449-0.312-0.684c-0.078-0.285-0.091-0.584-0.039-0.896
		c0.052-0.363,0.052-0.715,0-1.053c-0.052-0.285-0.13-0.605-0.233-0.955c-0.104-0.352-0.273-0.67-0.507-0.955
		c-0.521-0.625-1.379-0.938-2.574-0.938c-1.196,0-2.094,0.338-2.691,1.014c-0.286,0.287-0.501,0.611-0.644,0.977
		c-0.143,0.363-0.24,0.689-0.292,0.975c-0.078,0.363-0.104,0.715-0.078,1.053v0.117c0,0.65,0.104,1.234,0.312,1.754
		c0.208,0.521,0.501,1.002,0.878,1.443c0.377,0.443,0.832,0.879,1.365,1.307c0.532,0.43,1.137,0.891,1.813,1.385
		c0.754,0.494,1.488,1.021,2.203,1.58s1.385,1.215,2.009,1.969c1.404,1.717,2.105,3.758,2.105,6.123c0,1.197-0.201,2.23-0.604,3.102
		s-0.936,1.586-1.599,2.145s-1.417,0.975-2.262,1.248C102.952,362.544,102.101,362.679,101.243,362.679z"/>
	<path fill="#004D72" d="M119.806,362.603c-1.949,0-3.484-0.625-4.602-1.873c-0.442-0.441-0.794-0.975-1.053-1.6
		c-0.261-0.623-0.455-1.312-0.585-2.066c-0.078-0.469-0.117-0.871-0.117-1.209s0-0.572,0-0.701v-15.016
		c0-1.195,0.188-2.236,0.565-3.119c0.377-0.885,0.864-1.613,1.462-2.186c0.599-0.57,1.274-0.994,2.028-1.268
		c0.754-0.271,1.508-0.408,2.262-0.408c0.469,0,1.112,0.09,1.931,0.271c0.819,0.184,1.605,0.611,2.359,1.287
		c0.521,0.443,1.021,1.094,1.502,1.951c0.48,0.857,0.722,2.016,0.722,3.471c0,0.391-0.137,0.721-0.41,0.994
		c-0.272,0.273-0.604,0.41-0.994,0.41s-0.722-0.137-0.994-0.41c-0.273-0.273-0.41-0.604-0.41-0.994c0-0.961-0.149-1.723-0.448-2.281
		s-0.657-0.975-1.072-1.248c-0.416-0.273-0.826-0.449-1.229-0.527c-0.403-0.078-0.722-0.117-0.956-0.117
		c-0.442,0-0.864,0.078-1.267,0.234c-0.404,0.156-0.748,0.377-1.034,0.664c-0.806,0.727-1.209,1.82-1.209,3.275v15.094v0.115
		c0,0.027,0,0.164,0,0.41c0,0.248,0.025,0.547,0.078,0.896c0.052,0.352,0.149,0.729,0.293,1.131
		c0.143,0.404,0.356,0.762,0.644,1.074c0.571,0.623,1.416,0.936,2.534,0.936c1.17,0,2.041-0.324,2.613-0.975
		c0.286-0.312,0.5-0.65,0.644-1.016c0.143-0.363,0.247-0.715,0.312-1.053c0.064-0.338,0.097-0.74,0.097-1.209
		c-0.025-0.389,0.091-0.727,0.352-1.014c0.26-0.285,0.585-0.441,0.975-0.467c0.364-0.027,0.695,0.09,0.995,0.35
		c0.298,0.26,0.461,0.572,0.487,0.936c0,0.053,0,0.248,0,0.586s-0.053,0.768-0.156,1.287c-0.234,1.457-0.78,2.627-1.638,3.51
		C123.316,361.978,121.756,362.603,119.806,362.603z"/>
	<path fill="#004D72" d="M143.792,333.507c0.363,0,0.683,0.137,0.955,0.41c0.273,0.273,0.409,0.592,0.409,0.955v26.287
		c0,0.363-0.136,0.682-0.409,0.955c-0.272,0.273-0.592,0.41-0.955,0.41c-0.391,0-0.722-0.137-0.995-0.41
		c-0.272-0.273-0.409-0.592-0.409-0.955v-10.141h-8.19v10.141c0,0.363-0.136,0.682-0.409,0.955c-0.272,0.273-0.604,0.41-0.994,0.41
		c-0.364,0-0.683-0.137-0.956-0.41c-0.272-0.273-0.409-0.592-0.409-0.955v-26.287c0-0.363,0.137-0.682,0.409-0.955
		c0.273-0.273,0.592-0.41,0.956-0.41c0.39,0,0.722,0.137,0.994,0.41c0.273,0.273,0.409,0.592,0.409,0.955v13.377h8.19v-13.377
		c0-0.363,0.137-0.682,0.409-0.955C143.07,333.644,143.401,333.507,143.792,333.507z"/>
	<path fill="#004D72" d="M3.081,396.337c0-0.883,0.201-1.715,0.604-2.496c0.402-0.779,0.955-1.455,1.657-2.027
		s1.515-1.027,2.438-1.365s1.917-0.508,2.983-0.508c1.04,0,2.028,0.17,2.964,0.508c0.937,0.338,1.756,0.793,2.457,1.365
		c0.702,0.572,1.255,1.248,1.658,2.027c0.402,0.781,0.604,1.613,0.604,2.496c0,0.885-0.202,1.711-0.604,2.477
		c-0.403,0.768-0.956,1.438-1.658,2.01c-0.701,0.572-1.521,1.027-2.457,1.363c-0.936,0.34-1.924,0.508-2.964,0.508
		c-1.066,0-2.061-0.168-2.983-0.508c-0.923-0.336-1.735-0.791-2.438-1.363s-1.255-1.242-1.657-2.01
		C3.282,398.048,3.081,397.222,3.081,396.337z"/>
	<path fill="#004D72" d="M31.862,377.968h1.326h0.117l5.538,10.686l5.421-10.686h0.234h1.248l-6.903,13.611L31.862,377.968z
		 M45.903,382.101v2.965v24.064h-1.404v-21.373l-1.989,4.018v17.355h-1.482v-14.781l-2.184,4.445l-2.224-4.213v14.549h-1.326v-17.16
		l-2.105-3.979v21.139h-1.326V385.3v-2.965l6.981,13.611L45.903,382.101z"/>
	<path fill="#004D72" d="M52.728,379.333v11.895h2.066V381.4h8.775v1.404h-7.371v8.424h7.371v1.365H52.728v11.701h2.066v-9.635
		h8.775v1.365h-7.371v8.27h7.371v1.404h-7.371v2.066h7.371v1.365H51.362v-1.365v-29.797h12.207v1.365H52.728z M54.794,407.765
		v-2.066h-2.066v2.066H54.794z"/>
	<path fill="#004D72" d="M73.748,379.412h-1.443h-5.226v-1.443h15.444v1.443H77.22v2.066h5.304v1.326H77.22v26.326h-1.482v-26.326
		h-1.989v26.326h-1.443v-26.326h-5.226v-1.326h5.226h1.443h1.989v-2.066H73.748z"/>
	<path fill="#004D72" d="M95.627,398.482c0.352-0.428,0.702-0.779,1.015-1.209c2.301-3.236,2.69-7.488,1.131-11.115
		c-1.561-3.432-4.797-6.084-8.619-6.631l1.014,2.381c3.51,1.131,6.123,4.289,6.436,8.033c0.312,3.744-1.833,7.527-5.266,9.088v2.301
		c0.937-0.312,1.794-0.818,2.613-1.404l3.861,9.205H96.29l-3.003-7.139c-0.624,0.312-1.287,0.625-1.95,0.82v6.318h-1.404v-15.094
		l-2.105-4.992v20.086h-1.404v-27.029l6.123,14.51c0.624-0.586,1.131-1.17,1.521-1.834l-7.099-16.809
		c1.521-0.039,3.003,0.156,4.368,0.623c3.861,1.248,6.942,4.369,8.19,8.23c1.248,4.055,0.468,8.58-2.262,11.934l4.368,10.375h-1.521
		L95.627,398.482z M94.847,393.062c0.897-2.809,0.078-5.891-1.91-7.879c-0.508-0.508-1.054-0.936-1.6-1.209v0.74L94.847,393.062z"/>
	<path fill="#004D72" d="M118.559,385.105v17.082c0,1.99-0.857,3.939-2.301,5.227c-1.248,1.092-2.964,1.717-4.797,1.717
		c-1.716,0-3.315-0.508-4.681-1.717c-1.442-1.287-2.301-3.236-2.301-5.227v-17.082c0-1.988,0.858-3.939,2.301-5.227
		c1.209-1.248,2.809-1.871,4.681-1.871c1.677,0,3.549,0.506,4.797,1.871C117.701,381.166,118.559,383.117,118.559,385.105z
		 M117.272,385.105c0-1.6-0.663-3.158-1.873-4.213c-0.975-0.936-2.418-1.559-3.938-1.559c-1.443,0-2.691,0.506-3.822,1.559
		c-1.209,1.055-1.872,2.613-1.872,4.213v17.082c0,1.6,0.663,3.16,1.872,4.213c0.975,0.936,2.223,1.404,3.822,1.404
		c1.365,0,2.847-0.352,3.938-1.404c1.21-1.053,1.873-2.613,1.873-4.213V385.105z M115.322,385.105v17.082
		c0,1.053-0.43,1.99-1.365,2.73c-0.663,0.625-1.6,0.896-2.496,0.896c-0.937,0-1.794-0.271-2.535-0.896
		c-0.78-0.74-1.209-1.678-1.209-2.73v-17.082c0-1.053,0.429-1.988,1.209-2.73c0.741-0.623,1.599-0.896,2.535-0.896
		c0.896,0,1.833,0.273,2.496,0.896C114.893,383.117,115.322,384.052,115.322,385.105z M113.879,385.105
		c0-0.701-0.273-1.287-0.78-1.717c-0.468-0.428-1.053-0.584-1.638-0.584c-0.624,0-1.209,0.156-1.677,0.584
		c-0.508,0.43-0.78,1.016-0.78,1.717v17.082c0,0.703,0.272,1.287,0.78,1.717c0.468,0.43,1.053,0.584,1.677,0.584
		c0.585,0,1.17-0.154,1.638-0.584c0.507-0.43,0.78-1.014,0.78-1.717V385.105z"/>
	<path fill="#004D72" d="M137.435,390.683c0,1.676-0.312,3.354-0.975,4.875c-0.624,1.559-1.521,2.924-2.73,4.133
		s-2.613,2.146-4.134,2.77l-0.937,0.352v6.318h-1.404v-9.557c-0.701,0.195-1.403,0.312-2.105,0.352v9.205h-1.404v-31.162
		c1.989,0,3.861,0.117,5.851,0.936c1.521,0.662,2.925,1.6,4.134,2.77c1.209,1.209,2.106,2.574,2.73,4.133
		C137.123,387.367,137.435,389.005,137.435,390.683z M136.03,390.683c0-1.521-0.272-2.965-0.857-4.33
		c-0.585-1.404-1.404-2.613-2.457-3.666c-1.521-1.521-3.315-2.535-5.461-3.043c-0.74-0.154-1.364-0.271-2.105-0.271v19.148
		c0.702-0.039,1.404-0.195,2.105-0.428V381.83c0.469,0.117,0.937,0.311,1.404,0.506c0.937,0.469,1.833,1.053,2.574,1.834
		c1.716,1.715,2.73,4.057,2.691,6.514c0.039,2.457-0.976,4.836-2.691,6.551c-0.741,0.742-1.599,1.365-2.574,1.795v2.301
		c1.521-0.43,2.925-1.482,4.057-2.613c1.092-1.092,1.911-2.301,2.457-3.666C135.758,393.685,136.03,392.203,136.03,390.683z
		 M128.659,397.468c0.585-0.352,1.092-0.779,1.561-1.248c1.521-1.443,2.301-3.471,2.301-5.537c0-2.068-0.78-4.096-2.301-5.539
		c-0.469-0.469-0.976-0.896-1.561-1.209V397.468z"/>
	<path fill="#004D72" d="M155.804,385.105v17.082c0,1.99-0.857,3.939-2.301,5.227c-1.248,1.092-2.964,1.717-4.797,1.717
		c-1.716,0-3.315-0.508-4.681-1.717c-1.442-1.287-2.301-3.236-2.301-5.227v-17.082c0-1.988,0.858-3.939,2.301-5.227
		c1.209-1.248,2.809-1.871,4.681-1.871c1.677,0,3.549,0.506,4.797,1.871C154.946,381.166,155.804,383.117,155.804,385.105z
		 M154.517,385.105c0-1.6-0.662-3.158-1.871-4.213c-0.976-0.936-2.419-1.559-3.939-1.559c-1.443,0-2.691,0.506-3.822,1.559
		c-1.209,1.055-1.872,2.613-1.872,4.213v17.082c0,1.6,0.663,3.16,1.872,4.213c0.975,0.936,2.223,1.404,3.822,1.404
		c1.365,0,2.847-0.352,3.939-1.404c1.209-1.053,1.871-2.613,1.871-4.213V385.105z M152.567,385.105v17.082
		c0,1.053-0.43,1.99-1.365,2.73c-0.663,0.625-1.6,0.896-2.496,0.896c-0.937,0-1.794-0.271-2.535-0.896
		c-0.78-0.74-1.209-1.678-1.209-2.73v-17.082c0-1.053,0.429-1.988,1.209-2.73c0.741-0.623,1.599-0.896,2.535-0.896
		c0.896,0,1.833,0.273,2.496,0.896C152.138,383.117,152.567,384.052,152.567,385.105z M151.124,385.105
		c0-0.701-0.273-1.287-0.78-1.717c-0.468-0.428-1.053-0.584-1.638-0.584c-0.624,0-1.209,0.156-1.678,0.584
		c-0.507,0.43-0.779,1.016-0.779,1.717v17.082c0,0.703,0.272,1.287,0.779,1.717c0.469,0.43,1.054,0.584,1.678,0.584
		c0.585,0,1.17-0.154,1.638-0.584c0.507-0.43,0.78-1.014,0.78-1.717V385.105z"/>
	<path fill="#004D72" d="M165.748,405.699v2.105h8.854v1.326h-8.854h-1.325h-3.433v-31.123h1.326v26.365h2.106v-2.186v-24.18h1.325
		v24.18v2.186h2.302h6.552v1.326h-6.552H165.748z M164.423,405.699h-2.106v2.105h2.106V405.699z"/>
	<path fill="#004D72" d="M185.677,379.373v2.105h3.588v1.404h-3.588v21.334h3.588v1.404H182.4v2.105h6.864v1.404h-11.778v-1.404
		h3.588v-2.105h-3.588v-1.404h3.588v-21.334h-3.588v-1.404h6.864v-2.105h-6.864v-1.404h11.778v1.404H185.677z M184.351,382.882
		h-1.95v21.334h1.95V382.882z"/>
	<path fill="#004D72" d="M204.24,384.949c-0.818-1.209-2.145-2.027-3.51-2.027c-0.702,0-1.365,0.156-1.95,0.506
		c-0.585,0.352-1.014,0.781-1.287,1.365c-0.273,0.547-0.351,1.131-0.273,1.756c0.117,0.623,0.43,1.17,0.858,1.678
		c0.468,0.506,0.897,0.701,2.106,1.441c0.936,0.586,1.911,1.092,2.964,1.717c1.053,0.623,2.028,1.287,3.081,2.223
		c0.507,0.469,1.014,0.975,1.482,1.6c0.429,0.662,0.818,1.365,1.092,2.105c0.273,0.781,0.39,1.561,0.429,2.34
		c0.039,0.742-0.039,1.482-0.155,2.146c-0.195,1.52-0.819,3.002-1.873,4.211c-1.053,1.209-2.34,2.068-3.86,2.574
		c-1.443,0.508-2.965,0.625-4.485,0.352c-1.443-0.273-2.77-0.779-3.979-1.561c-1.131-0.74-2.145-1.6-3.042-2.652l1.053-0.896
		c0.819,0.936,1.756,1.717,2.73,2.34c1.053,0.664,2.224,1.17,3.472,1.365s2.573,0.156,3.821-0.273
		c1.287-0.428,2.38-1.131,3.198-2.145c0.897-1.053,1.404-2.262,1.6-3.51c0.194-1.209,0.194-2.574-0.234-3.822
		c-0.429-1.287-1.287-2.34-2.184-3.16c-0.937-0.818-1.911-1.441-2.887-2.027c-0.975-0.586-1.95-1.092-2.925-1.678l-0.741-0.428
		c-0.624-0.352-1.17-0.781-1.677-1.287c-0.702-0.742-1.093-1.521-1.209-2.418c-0.156-0.898-0.039-1.756,0.39-2.613
		c0.429-0.898,1.014-1.521,1.833-1.951c0.819-0.467,1.677-0.701,2.652-0.701c1.833,0,3.822,1.092,4.68,2.691L204.24,384.949z
		 M207.204,383.078c-0.194-0.312-0.39-0.508-0.585-0.781l-0.663-0.701c-0.507-0.469-1.014-0.857-1.521-1.131
		c-1.131-0.703-2.379-1.053-3.705-1.053c-0.663,0-1.287,0.078-1.911,0.232c-0.624,0.156-1.248,0.43-1.833,0.742
		c-1.17,0.662-2.067,1.637-2.652,2.848c-0.585,1.209-0.78,2.533-0.585,3.898c0.234,1.365,0.819,2.496,1.755,3.473
		c0.468,0.506,0.937,0.936,1.443,1.248c1.404,0.936,2.925,1.637,4.368,2.535c1.833,1.092,3.588,2.379,4.173,4.094
		c0.273,0.82,0.312,1.717,0.156,2.77c-0.156,0.975-0.546,1.795-1.131,2.496c-0.585,0.703-1.326,1.209-2.263,1.521
		c-0.936,0.273-1.872,0.352-2.808,0.195c-1.872-0.312-3.588-1.521-4.953-3.043l1.053-0.936c1.209,1.365,2.613,2.301,4.135,2.574
		c1.521,0.273,2.925-0.156,3.744-1.209c0.429-0.508,0.701-1.131,0.818-1.834c0.156-0.818,0.117-1.521-0.078-2.105
		c-0.194-0.547-0.585-1.092-1.209-1.678c-0.663-0.584-1.442-1.131-2.34-1.637c-2.184-1.287-4.485-2.225-6.162-4.057
		c-1.053-1.092-1.794-2.535-2.067-4.213c-0.272-1.598-0.039-3.275,0.702-4.719c0.741-1.482,1.794-2.613,3.198-3.432
		c0.741-0.43,1.443-0.703,2.184-0.898c0.741-0.154,1.482-0.271,2.263-0.271c1.56,0,3.12,0.467,4.407,1.248
		c0.663,0.35,1.209,0.818,1.794,1.326c0.702,0.662,1.17,1.209,1.443,1.715L207.204,383.078z"/>
	<path fill="#004D72" d="M227.601,377.968v31.162h-1.326V383c0,0-0.039,0.039-0.078,0.078c-0.351,0.506-0.857,0.936-1.365,1.365
		l-0.585,0.35v24.338h-1.325v-23.752c-0.976,0.273-1.678,0.312-3.198,0.352h-1.209v-1.326h1.209c1.403,0,2.145-0.156,3.198-0.43
		v-2.301c0,0.039,0,0.039-0.039,0.039c-0.897,0.428-1.6,0.623-3.159,0.662h-1.209v-1.521h1.209h0.585
		c0.507,0,1.131-0.154,1.56-0.467c0.819-0.586,1.054-1.326,1.054-2.418h1.325v5.227c0.741-0.586,1.287-1.443,1.6-2.496
		c0.312-0.898,0.429-1.834,0.429-2.73H227.601z"/>
	<path fill="#004D72" d="M242.733,383.505v0.508v2.105v4.564v6.707v3.277v1.637v0.781v0.428c0,1.209-0.312,2.496-1.21,3.549
		c-0.507,0.664-1.209,1.133-1.949,1.561c-0.897,0.43-1.833,0.586-2.77,0.508c-0.897-0.039-1.794-0.352-2.535-0.82
		c-0.741-0.467-1.326-1.053-1.794-1.793c-0.507-0.818-0.78-1.756-0.78-2.73v-0.234v-3.275h1.326v3.275v0.195
		c0,0.664,0.156,1.326,0.507,1.951c0.469,0.779,1.092,1.363,1.872,1.715c0.897,0.391,1.794,0.508,2.73,0.312
		c0.896-0.195,1.638-0.664,2.223-1.326c0.585-0.664,0.937-1.482,1.015-2.418v-9.789c-0.546,0.623-1.209,1.131-1.989,1.482v8.189
		c0,1.287-1.482,2.184-2.73,1.871c-0.818-0.193-1.521-0.975-1.638-1.871v-0.117v-0.195v-3.275h1.365v3.275v0.156v0.039v0.117
		c0.117,0.352,0.429,0.623,0.857,0.586c0.43,0,0.78-0.273,0.78-0.703v-7.723c-0.429,0.117-0.936,0.078-1.404,0.039
		c-0.857-0.078-1.677-0.35-2.457-0.857c-0.702-0.508-1.248-1.092-1.677-1.756c-0.507-0.818-0.78-1.715-0.78-2.691v-0.154v-0.547
		v-2.457v-4.174c0-0.117,0.039-0.975,0.195-1.441c0.233-0.859,0.663-1.6,1.248-2.225c0.507-0.584,1.209-1.053,2.028-1.404
		c0.857-0.311,1.716-0.428,2.612-0.35c0.897,0.117,1.717,0.389,2.458,0.896c0.74,0.43,1.248,1.014,1.677,1.756
		c0.507,0.74,0.78,1.598,0.819,2.65V383.505z M239.379,394.154c0.351-0.195,0.78-0.586,1.053-0.936
		c0.624-0.742,0.937-1.6,0.937-2.535v-4.564v-2.105v-0.508v-0.039c0-0.896-0.273-1.754-0.858-2.535
		c-0.546-0.662-1.209-1.131-1.989-1.404c-0.896-0.271-1.794-0.271-2.652,0.039c-0.818,0.234-1.481,0.703-2.027,1.404
		c-0.546,0.742-0.819,1.561-0.819,2.457v4.174v2.457v0.547c0,0.74,0.195,1.441,0.546,2.105c0.43,0.74,1.053,1.287,1.794,1.639
		c0.858,0.428,1.755,0.506,2.652,0.311v-2.066c-0.546,0.273-1.092,0.273-1.677,0c-0.741-0.312-1.326-1.092-1.326-1.988v-0.547
		v-2.457v-4.174c0-0.896,0.702-1.832,1.677-2.027c0.468-0.117,0.937-0.078,1.365,0.117c0.741,0.312,1.326,1.092,1.326,1.988v0.508
		v2.105v4.564V394.154z M238.014,383.427v-0.039c0-0.428-0.429-0.74-0.858-0.701c-0.429,0-0.779,0.312-0.779,0.74v4.174v2.457v0.547
		v0.039v0.039v0.039c0,0.428,0.429,0.74,0.857,0.701c0.43-0.039,0.78-0.312,0.78-0.74v-4.564v-2.105v-0.508V383.427z"/>
	<path fill="#004D72" d="M251.858,405.775l-0.702,2.029h7.332v1.326h-7.761h-1.6h-2.105h-1.404
		c1.561-4.836,7.723-22.348,7.878-23.246c0.039-0.467,0.078-1.053,0.039-1.559l-0.078-0.859c-0.038-0.35-0.429-0.662-0.779-0.662
		c-0.312,0-0.858,0.156-0.858,0.662v0.078v4.408h-1.365v-4.252v-0.234c0-0.35,0.156-0.818,0.43-1.131
		c0.896-1.209,2.847-1.209,3.666,0.234c0.468,0.975,0.468,2.418,0.272,3.51c-0.078,0.469-1.599,5.109-3.159,9.479l-3.042,8.736
		h2.263l2.886-8.465c1.443-4.367,2.925-8.736,3.042-9.398c0.195-1.248-0.039-3.393-0.039-3.51c-0.272-1.365-1.092-2.691-2.496-3.277
		c-0.857-0.389-1.755-0.467-2.73-0.193c-1.755,0.467-3.119,1.949-3.236,3.938v0.195v4.369h-1.326v-4.369v-0.234
		c0-2.496,1.716-4.523,4.212-5.186c1.209-0.352,2.496-0.234,3.588,0.232c1.833,0.742,3.12,2.342,3.472,4.33
		c0,0.195,0.272,2.535,0.078,3.9c-0.117,0.74-1.639,5.07-3.081,9.359c-0.858,2.496-1.833,5.266-2.926,8.309h6.162v1.48H251.858z
		 M250.454,405.775h-2.301l-0.663,2.029h2.262L250.454,405.775z"/>
	<path fill="#004D72" d="M272.763,383.388v10.375v9.945c0,1.131-0.312,2.184-0.976,3.121c-0.624,0.896-1.521,1.52-2.496,1.949
		c-0.663,0.234-1.364,0.352-2.027,0.352c-0.741,0-1.404-0.117-2.028-0.352c-1.053-0.43-1.872-1.092-2.496-1.949
		c-0.624-0.898-1.015-1.99-1.015-3.121v-9.945v-10.375c0-1.131,0.391-2.223,1.015-3.119c0.663-0.896,1.481-1.521,2.496-1.912
		c0.585-0.271,1.287-0.389,2.028-0.389c0.74,0,1.403,0.117,2.027,0.389c1.054,0.43,1.872,1.055,2.496,1.912
		C272.45,381.205,272.763,382.257,272.763,383.388z M271.437,393.763v-10.375c0-0.857-0.234-1.637-0.741-2.34
		c-0.468-0.662-1.092-1.17-1.911-1.482c-0.429-0.193-0.936-0.271-1.521-0.271s-1.093,0.078-1.561,0.271
		c-0.78,0.352-1.404,0.82-1.872,1.482c-0.507,0.664-0.78,1.443-0.78,2.34v10.375v9.945c0,0.896,0.273,1.678,0.78,2.34
		c0.468,0.664,1.092,1.131,1.872,1.482c0.468,0.195,0.976,0.273,1.561,0.273s1.092-0.078,1.521-0.273
		c0.819-0.312,1.443-0.818,1.911-1.482c0.507-0.701,0.741-1.482,0.741-2.34V393.763z M269.408,383.388v10.375v9.945
		c0,1.092-0.936,2.105-2.145,2.105c-1.132,0-2.028-0.857-2.185-2.105v-9.945v-10.375c0-1.209,1.131-2.105,2.185-2.105
		C268.395,381.283,269.369,382.179,269.408,383.388z M268.082,393.763v-10.375c0-0.35-0.351-0.74-0.818-0.74
		c-0.469,0-0.858,0.312-0.858,0.74v10.375v9.945c0,0.352,0.39,0.742,0.858,0.742c0.468,0,0.74-0.234,0.818-0.742V393.763z"/>
</g>
<g>
</g>
<g>
</g>
<g>
</g>
<g>
</g>
<g>
</g>
<g>
</g>
<g>
</g>
<g>
</g>
<g>
</g>
<g>
</g>
<g>
</g>
<g>
</g>
<g>
</g>
<g>
</g>
<g>
</g>
</svg>
