<?xml version="1.0" encoding="utf-8"?>
<!-- Generator: Adobe Illustrator 16.0.0, SVG Export Plug-In . SVG Version: 6.00 Build 0)  -->
<!DOCTYPE svg PUBLIC "-//W3C//DTD SVG 1.1//EN" "http://www.w3.org/Graphics/SVG/1.1/DTD/svg11.dtd">
<svg version="1.1" id="Layer_1" xmlns="http://www.w3.org/2000/svg" xmlns:xlink="http://www.w3.org/1999/xlink" x="0px" y="0px"
	 width="147.166px" height="65.115px" viewBox="0 0 147.166 65.115" enable-background="new 0 0 147.166 65.115"
	 xml:space="preserve">
<g>
	<path fill="#FFFFFF" d="M2.232,5.147h17.855v4.896H9.504v5.148h9.937v4.896H9.504v10.764H2.232V5.147z"/>
	<path fill="#FFFFFF" d="M23.147,5.147h7.272v25.704h-7.272V5.147z"/>
	<path fill="#FFFFFF" d="M35.028,5.147H42.3v20.808h10.512v4.896H35.028V5.147z"/>
	<path fill="#FFFFFF" d="M56.881,10.043H50.4V5.147h20.232v4.896h-6.48v20.808h-7.271V10.043z"/>
	<path fill="#FFFFFF" d="M73.116,5.147h17.855v4.896H80.388v5.148h9.937v4.896h-9.937v5.868h11.052v4.896H73.116V5.147z"/>
	<path fill="#FFFFFF" d="M94.716,5.147h12.203c1.536,0,2.832,0.187,3.889,0.558c1.056,0.373,1.908,0.864,2.556,1.476
		c0.648,0.612,1.116,1.32,1.404,2.124c0.288,0.804,0.432,1.65,0.432,2.538c0,1.872-0.432,3.3-1.296,4.284
		c-0.864,0.984-2.16,1.645-3.888,1.98v0.072c1.176,0.144,2.088,0.396,2.735,0.756c0.648,0.36,1.135,0.816,1.458,1.368
		c0.324,0.552,0.528,1.188,0.612,1.908c0.084,0.72,0.138,1.512,0.162,2.376c0.023,1.272,0.065,2.281,0.126,3.024
		c0.06,0.745,0.144,1.314,0.252,1.71s0.239,0.672,0.396,0.828c0.155,0.157,0.365,0.283,0.63,0.378v0.324h-7.849
		c-0.264-0.432-0.456-1.044-0.575-1.836c-0.121-0.792-0.181-1.92-0.181-3.384c0-1.104-0.054-2.01-0.162-2.718
		c-0.107-0.708-0.276-1.26-0.504-1.656c-0.229-0.396-0.534-0.666-0.918-0.81s-0.864-0.216-1.439-0.216h-2.772v10.62h-7.271V5.147z
		 M101.987,15.983h2.232c0.743,0,1.355-0.102,1.836-0.306c0.479-0.204,0.863-0.468,1.151-0.792c0.288-0.324,0.486-0.684,0.595-1.08
		c0.107-0.396,0.162-0.786,0.162-1.17c0-0.48-0.061-0.918-0.181-1.314s-0.324-0.738-0.611-1.026
		c-0.288-0.288-0.679-0.509-1.171-0.666c-0.492-0.156-1.098-0.234-1.817-0.234h-2.196V15.983z"/>
	<path fill="#FFFFFF" d="M2.232,31.348h17.855v4.896H9.504v5.147h9.937v4.896H9.504v5.867h11.052v4.896H2.232V31.348z"/>
	<path fill="#FFFFFF" d="M21.672,31.348h7.775l3.672,19.872h0.108l3.708-19.872h7.776l-6.984,25.704h-9.252L21.672,31.348z"/>
	<path fill="#FFFFFF" d="M47.016,31.348h17.855v4.896H54.287v5.147h9.937v4.896h-9.937v5.867h11.052v4.896H47.016V31.348z"/>
	<path fill="#FFFFFF" d="M68.615,31.348h8.352l5.976,16.704h0.072V31.348h6.732v25.704h-8.208L75.203,39.34h-0.108v17.712h-6.479
		V31.348z"/>
	<path fill="#FFFFFF" d="M98.747,36.244h-6.48v-4.896h20.232v4.896h-6.48v20.808h-7.271V36.244z"/>
	<path fill="#FFFFFF" d="M120.994,49.204v0.899c0,0.504,0.048,0.96,0.144,1.368s0.258,0.769,0.486,1.08
		c0.228,0.312,0.546,0.553,0.954,0.72c0.407,0.169,0.936,0.252,1.584,0.252c0.647,0,1.182-0.09,1.602-0.27s0.756-0.414,1.009-0.702
		c0.252-0.288,0.426-0.617,0.521-0.99c0.096-0.371,0.145-0.737,0.145-1.098c0-0.696-0.192-1.266-0.576-1.71
		c-0.385-0.444-0.882-0.828-1.494-1.152s-1.32-0.605-2.124-0.846c-0.805-0.239-1.62-0.504-2.448-0.792s-1.638-0.618-2.43-0.99
		s-1.494-0.846-2.106-1.422c-0.611-0.576-1.11-1.278-1.494-2.106c-0.384-0.827-0.575-1.841-0.575-3.042
		c0-1.031,0.174-2.003,0.521-2.916c0.348-0.911,0.918-1.71,1.71-2.394s1.83-1.229,3.114-1.638c1.283-0.408,2.862-0.612,4.733-0.612
		c1.824,0,3.36,0.18,4.608,0.54s2.262,0.858,3.042,1.494c0.779,0.636,1.344,1.38,1.692,2.231c0.348,0.853,0.521,1.771,0.521,2.754
		v0.612h-6.983c0-1.247-0.204-2.147-0.612-2.7c-0.432-0.6-1.164-0.899-2.196-0.899c-1.943,0-2.916,0.924-2.916,2.771
		c0,0.913,0.33,1.62,0.99,2.124s1.481,0.937,2.466,1.296c0.984,0.36,2.046,0.715,3.187,1.062c1.14,0.348,2.201,0.805,3.186,1.368
		s1.806,1.308,2.466,2.231c0.66,0.925,0.99,2.143,0.99,3.654c0,2.929-0.924,5.021-2.771,6.282c-1.849,1.26-4.44,1.89-7.776,1.89
		c-1.345,0-2.628-0.096-3.853-0.288c-1.224-0.192-2.304-0.54-3.239-1.044c-0.937-0.504-1.681-1.188-2.232-2.052
		c-0.553-0.864-0.828-1.968-0.828-3.312v-1.655H120.994z"/>
	<path fill="#FFFFFF" d="M138.167,37.899h6.768v6.48h-6.768V37.899z M138.167,50.571h6.768v6.48h-6.768V50.571z"/>
</g>
<g>
</g>
<g>
</g>
<g>
</g>
<g>
</g>
<g>
</g>
<g>
</g>
<g>
</g>
<g>
</g>
<g>
</g>
<g>
</g>
<g>
</g>
<g>
</g>
<g>
</g>
<g>
</g>
<g>
</g>
</svg>
