<?xml version="1.0" encoding="utf-8"?>
<!-- Generator: Adobe Illustrator 16.0.0, SVG Export Plug-In . SVG Version: 6.00 Build 0)  -->
<!DOCTYPE svg PUBLIC "-//W3C//DTD SVG 1.1//EN" "http://www.w3.org/Graphics/SVG/1.1/DTD/svg11.dtd">
<svg version="1.1" id="Layer_1" xmlns="http://www.w3.org/2000/svg" xmlns:xlink="http://www.w3.org/1999/xlink" x="0px" y="0px"
	 width="958.32px" height="67.215px" viewBox="0 0 958.32 67.215" enable-background="new 0 0 958.32 67.215" xml:space="preserve">
<g>
	<path fill="#FFFFFF" d="M362.932,15.815c-0.438,0.745-1.479,1.328-2.289,1.328c-5.208-0.144-9.307-0.144-14.829-0.289
		c2.064,0.727,3.458,1.25,5.224,2.263c1.092,0.73,2.276,0.73,1.842,3.172c-2.59,11.455-6.179,23.331-9.767,34.697
		c-0.292,0.673-0.812,1.828-1.688,1.828c-3.023,0.302-6.333,0.302-9.184-0.866c-1.337-0.406-2.416-2.128-2.062-3.46
		c2.788-9.646,7.354-26.33,10.347-37.784c-3.577,0-7.413,0-11.011-0.43c-1.895-0.151-2.04-0.763-1.895-3.025
		c0.145-2.704,0.872-5.584,2.043-7.995c0.516-0.899,1.096-1.482,2.726-1.482c0.96,0.145,30.542,0.734,30.542,0.734
		c2.121,0.31,2.271,1.549,2.271,3.015C365.202,10.239,364.039,13.395,362.932,15.815z"/>
	<path fill="#FFFFFF" d="M399.347,17.143c-7.497,0.438-14.476,0.438-22.552,0.145c1.625,0.526,2.874,1.253,4.039,1.539
		c3.604,1.325,1.682,3.757,0.728,7.356c4.271,0.148,9.474,0,13.602,0.293c3.287,0.29-0.813,12.609-2.879,12.838
		c-1.105,0.153-10.419-0.229-14.604-0.229c-0.884,2.428-1.614,5.005-2.426,7.588c5.292,0.112,10.29-0.465,14.913,0.297
		c1.973,0.282,0,12.146-3.314,12.146c-6.161,0.302-13.352,0-19.678,0c-2.555,0-5.87-5.403-6.307-7.622
		c-0.374-1.681,2.499-8.867,3.021-12.409c-0.523,0-1.542,0-2.295-0.289c-1.101-0.579,0.9-12.32,4.332-12.32
		c1.104,0,1.104,0,1.541,0.145c0.755-2.796,2.208-6.773,2.878-9.478c-0.67,0-4.123,0-3.969-1.172
		c0.452-3.733,1.242-7.489,3.154-10.715c0.38-1.048,2.572-1.337,3.517-1.337c9.616-0.579,20.577-0.579,28.714,0.145
		C405.22,4.356,400.368,17.143,399.347,17.143z"/>
	<path fill="#FFFFFF" d="M425.244,35.641c4.186,6.528,11.905,19.61,12.35,21.346c0.144,0.963,0,1.25-0.296,1.541
		c-2.29,2.135-4.997,3.923-7.57,4.621c-1.029,0.18-1.897-0.11-2.279-0.289c-3.896-3.135-9.621-14.062-13.21-20.524
		c-1.171,4.636-2.858,9.914-4.183,14.651c-0.299,1.434-1.095,2.131-2.14,2.131c-3.292,0-6.011-0.413-9.017-1.952
		c-1.181-0.58-1.844-1.345-1.471-3.322c3.604-14.526,8.08-30.685,13.07-48.234c0.441-1.4,1.979-1.69,3.438-1.69
		c2.438,0,5.139,0.589,7.353,1.482c0.959,0.346,2.122,1.542,1.977,2.703c-1.018,5.436-3.15,11.451-4.479,17.035
		c7.647-2.41,12.184-8.863,15.495-20.321c0.29-0.899,2.059-0.899,3.015-0.754c2.641,0.599,5.354,0.907,7.623,2.148
		c0.745,0.442,1.038,1.744,0.745,2.415C439.64,26.183,432.74,32.486,425.244,35.641z"/>
	<path fill="#FFFFFF" d="M480.023,18.541c-1.184,0.868-10.061,1.611-10.061-0.148c0-0.812-0.293-1.833-2.28-1.688
		c-1.984,0.149-3.004,1.836-2.713,3.292c1.539,7.72,8.883,13.304,8.143,22.464c-1.167,14.703-12.325,17.262-20.771,16.828
		c-4.186-0.289-11.605,0-11.751-4.334c0-4.536,1.1-8.747,2.434-12.621c0.294-0.822,1.542-1.545,2.562-1.836
		c2.124-0.299,4.475-0.299,6.606,0c0.89,0.125,1.545,0.877,1.842,1.593c0.441,0.955,0,2.146,0.146,3.248
		c0.147,0.281,0.147,0.869,0.877,0.869c2.86,0,4.33-1.828,4.187-3.747c-0.878-7.705-9.475-14.447-9.329-22.464
		c0.145-13.055,15.343-16.803,23.196-16.366c2.581,0,5.145,0,7.498,0.875c1.244,0.607,2.562,2.002,2.414,3.303
		C482.877,11.567,482.877,16.125,480.023,18.541z"/>
	<path fill="#FFFFFF" d="M518.615,17.143c-7.48,0.438-14.439,0.438-22.52,0.145c1.622,0.526,2.869,1.253,4.037,1.539
		c3.582,1.325,1.688,3.757,0.743,7.356c4.253,0.148,9.457,0,13.58,0.293c3.286,0.29-0.832,12.609-2.873,12.838
		c-1.096,0.153-10.417-0.229-14.619-0.229c-0.868,2.428-1.614,5.005-2.414,7.588c5.292,0.112,10.29-0.465,14.914,0.297
		c1.97,0.282,0,12.146-3.308,12.146c-6.178,0.302-13.364,0-19.684,0c-2.565,0-5.865-5.403-6.31-7.622
		c-0.371-1.681,2.499-8.867,3.006-12.409c-0.507,0-1.543,0-2.277-0.289c-1.1-0.579,0.884-12.32,4.333-12.32
		c1.104,0,1.104,0,1.537,0.145c0.742-2.796,2.211-6.773,2.877-9.478c-0.666,0-4.123,0-3.975-1.172
		c0.443-3.733,1.25-7.489,3.16-10.715c0.367-1.048,2.563-1.337,3.516-1.337c9.62-0.579,20.579-0.579,28.704,0.145
		C524.49,4.356,519.664,17.143,518.615,17.143z"/>
	<path fill="#FFFFFF" d="M550.558,38.796c3.014,5.584,7.646,12.87,10.079,17.788c0.295,0.701,0.121,1.943-0.463,2.416
		c-2.271,1.826-4.826,3.275-7.7,4.327c-1.043,0.289-2.501,0.289-2.994-0.58c-4.632-6.339-7.959-13.378-11.993-20.578
		c-1.08,4.616-2.711,10.378-4.088,14.705c-0.301,0.785-1.034,1.94-1.908,1.94c-3.546,0.186-6.333-0.396-9.547-1.529
		c-0.735-0.299-1.194-1.465-1.028-2.203c1.375-7.421,7.029-27.502,9.741-37.124c-1.458,0.29-3.293,0.868-4.742,1.013
		c-0.836,0.146-2.589,0.583-2.589-1.157c0-3.547,1.462-9.711,2.878-10.292c7.323-2.705,11.16-3.314,17.32-3.749
		c12.902-1.013,20.557,8.015,20.405,16.684C563.783,27.123,561.224,34.314,550.558,38.796z M535.531,16.999
		c2.25,0.667,4.447,1.25,5.406,1.542c0.753,0.286,2.068,0.868,1.918,2.412c-0.442,2.788-1.454,5.865-1.918,8.653
		c4.503,0.96,10.492-4.76,10.199-8.859C550.727,14.576,539.688,16.561,535.531,16.999z"/>
	<path fill="#FFFFFF" d="M582.586,56.875c-1.182,1.829-2.591,2.126-4.21,2.126c-2.418,0-5.579-0.877-7.537-2.416
		c-1.333-1.044-1.333-3.169-1.479-4.918c-0.952-15.082-1.843-30.12-1.396-45.157c0-1.109,1.249-2.446,2.579-2.591
		c3.001-0.286,6.162,0.29,8.728,1.482c1.309,0.501,1.686,2.122,1.838,3.37c0.591,9.044,0.137,18.947,0.137,27.814
		c3.603-9.308,8.077-21.216,11.908-31.124c0.417-1.104,2.195-1.542,3.444-1.397c2.849,0.293,6.008,0.907,8.507,2.446
		c1.104,0.723,1.104,2.7,0.669,3.885C599.15,27.718,592.918,40.045,582.586,56.875z"/>
	<path fill="#FFFFFF" d="M641.084,17.143c-7.494,0.438-14.458,0.438-22.53,0.145c1.604,0.526,2.852,1.253,4.038,1.539
		c3.584,1.325,1.668,3.757,0.719,7.356c4.27,0.148,9.485,0,13.589,0.293c3.313,0.29-0.812,12.609-2.857,12.838
		c-1.116,0.153-10.438-0.229-14.609-0.229c-0.878,2.428-1.629,5.005-2.414,7.588c5.281,0.112,10.263-0.465,14.892,0.297
		c1.965,0.282,0,12.146-3.314,12.146c-6.166,0.302-13.357,0-19.653,0c-2.584,0-5.875-5.403-6.333-7.622
		c-0.365-1.681,2.499-8.867,3.012-12.409c-0.513,0-1.541,0-2.264-0.289c-1.113-0.579,0.88-12.32,4.335-12.32
		c1.081,0,1.081,0,1.541,0.145c0.718-2.796,2.205-6.773,2.86-9.478c-0.655,0-4.111,0-3.981-1.172
		c0.454-3.733,1.245-7.489,3.158-10.715c0.382-1.048,2.583-1.337,3.538-1.337c9.625-0.579,20.543-0.579,28.692,0.145
		C646.957,4.356,642.118,17.143,641.084,17.143z"/>
</g>
</svg>
