<?xml version="1.0" encoding="utf-8"?>
<!-- Generator: Adobe Illustrator 16.0.0, SVG Export Plug-In . SVG Version: 6.00 Build 0)  -->
<svg version="1.2" baseProfile="tiny" id="Layer_1" xmlns="http://www.w3.org/2000/svg" xmlns:xlink="http://www.w3.org/1999/xlink"
	 x="0px" y="0px" width="958.32px" height="67.215px" viewBox="0 0 958.32 67.215" xml:space="preserve">
<g>
	<path fill="#FFFFFF" stroke="#FFFFFF" d="M348.594,14.091c-0.482,0.823-1.632,1.466-2.525,1.466
		c-5.749-0.159-10.271-0.159-16.367-0.319c2.279,0.802,3.817,1.379,5.765,2.498c1.205,0.806,2.512,0.806,2.033,3.501
		c-2.859,12.641-6.819,25.748-10.778,38.292c-0.323,0.742-0.896,2.018-1.862,2.018c-3.337,0.332-6.989,0.332-10.135-0.956
		c-1.476-0.448-2.666-2.349-2.275-3.818c3.077-10.645,8.114-29.057,11.417-41.698c-3.947,0-8.181,0-12.15-0.475
		c-2.091-0.167-2.251-0.842-2.091-3.338c0.16-2.984,0.962-6.163,2.254-8.823c0.57-0.993,1.209-1.636,3.008-1.636
		c1.06,0.16,33.706,0.811,33.706,0.811c2.341,0.342,2.505,1.71,2.505,3.327C351.099,7.937,349.816,11.42,348.594,14.091z"/>
	<path fill="#FFFFFF" stroke="#FFFFFF" d="M388.782,15.557c-8.274,0.483-15.976,0.483-24.888,0.16
		c1.792,0.581,3.171,1.383,4.458,1.698c3.977,1.462,1.856,4.146,0.803,8.118c4.711,0.164,10.454,0,15.009,0.324
		c3.627,0.319-0.898,13.916-3.177,14.168c-1.22,0.169-11.499-0.253-16.118-0.253c-0.976,2.679-1.782,5.523-2.678,8.374
		c5.839,0.124,11.355-0.514,16.458,0.327c2.178,0.312,0,13.404-3.658,13.404c-6.8,0.334-14.735,0-21.716,0
		c-2.82,0-6.479-5.962-6.961-8.411c-0.412-1.854,2.758-9.786,3.336-13.694c-0.578,0-1.702,0-2.533-0.319
		c-1.215-0.639,0.994-13.596,4.78-13.596c1.219,0,1.219,0,1.7,0.159c0.833-3.086,2.437-7.475,3.176-10.459
		c-0.74,0-4.55,0-4.38-1.294c0.499-4.12,1.371-8.265,3.48-11.825c0.42-1.157,2.84-1.477,3.882-1.477
		c10.612-0.639,22.708-0.639,31.689,0.16C395.263,1.444,389.908,15.557,388.782,15.557z"/>
	<path fill="#FFFFFF" stroke="#FFFFFF" d="M417.362,35.971c4.619,7.205,13.138,21.642,13.629,23.557c0.158,1.062,0,1.379-0.327,1.7
		c-2.527,2.355-5.514,4.328-8.354,5.101c-1.136,0.197-2.095-0.124-2.516-0.319c-4.299-3.461-10.618-15.519-14.579-22.651
		c-1.293,5.115-3.155,10.941-4.615,16.17c-0.33,1.581-1.208,2.35-2.361,2.35c-3.633,0-6.633-0.455-9.951-2.153
		c-1.303-0.641-2.034-1.483-1.622-3.667c3.977-16.032,8.917-33.863,14.424-53.23c0.486-1.546,2.185-1.866,3.794-1.866
		c2.689,0,5.67,0.651,8.113,1.636c1.059,0.382,2.341,1.702,2.182,2.983c-1.123,5.999-3.477,12.637-4.943,18.799
		c8.44-2.66,13.446-9.781,17.1-22.426c0.32-0.993,2.273-0.993,3.328-0.833c2.915,0.661,5.908,1.001,8.413,2.371
		c0.822,0.488,1.146,1.925,0.822,2.665C433.248,25.533,425.634,32.489,417.362,35.971z"/>
	<path fill="#FFFFFF" stroke="#FFFFFF" d="M477.815,17.1c-1.306,0.958-11.103,1.777-11.103-0.164c0-0.896-0.324-2.022-2.517-1.863
		c-2.19,0.164-3.315,2.026-2.995,3.633c1.699,8.52,9.804,14.683,8.985,24.792c-1.289,16.226-13.602,19.05-22.922,18.571
		c-4.62-0.319-12.809,0-12.968-4.783c0-5.006,1.213-9.653,2.685-13.928c0.325-0.907,1.702-1.705,2.829-2.026
		c2.344-0.331,4.938-0.331,7.291,0c0.982,0.138,1.706,0.968,2.033,1.758c0.488,1.054,0,2.367,0.163,3.584
		c0.163,0.31,0.163,0.958,0.968,0.958c3.156,0,4.779-2.017,4.62-4.134c-0.969-8.503-10.455-15.944-10.295-24.792
		c0.16-14.408,16.933-18.543,25.599-18.061c2.848,0,5.678,0,8.275,0.966c1.374,0.67,2.828,2.209,2.664,3.646
		C480.964,9.402,480.964,14.432,477.815,17.1z"/>
	<path fill="#FFFFFF" stroke="#FFFFFF" d="M520.405,15.557c-8.256,0.483-15.936,0.483-24.852,0.16
		c1.79,0.581,3.167,1.383,4.455,1.698c3.953,1.462,1.862,4.146,0.819,8.118c4.695,0.164,10.438,0,14.988,0.324
		c3.626,0.319-0.918,13.916-3.171,14.168c-1.21,0.169-11.496-0.253-16.134-0.253c-0.958,2.679-1.782,5.523-2.665,8.374
		c5.842,0.124,11.356-0.514,16.46,0.327c2.174,0.312,0,13.404-3.65,13.404c-6.817,0.334-14.748,0-21.722,0
		c-2.832,0-6.473-5.962-6.963-8.411c-0.409-1.854,2.758-9.786,3.317-13.694c-0.56,0-1.703,0-2.513-0.319
		c-1.213-0.639,0.975-13.596,4.781-13.596c1.218,0,1.218,0,1.697,0.159c0.818-3.086,2.44-7.475,3.175-10.459
		c-0.734,0-4.55,0-4.386-1.294c0.489-4.12,1.379-8.265,3.487-11.825c0.405-1.157,2.83-1.477,3.88-1.477
		c10.616-0.639,22.711-0.639,31.677,0.16C526.888,1.444,521.562,15.557,520.405,15.557z"/>
	<path fill="#FFFFFF" stroke="#FFFFFF" d="M555.656,39.453c3.324,6.163,8.438,14.203,11.124,19.631
		c0.324,0.773,0.133,2.145-0.512,2.666c-2.507,2.016-5.326,3.615-8.497,4.776c-1.151,0.317-2.761,0.317-3.306-0.641
		c-5.111-6.995-8.783-14.764-13.236-22.71c-1.191,5.095-2.991,11.453-4.511,16.228c-0.331,0.867-1.143,2.143-2.105,2.143
		c-3.914,0.204-6.989-0.437-10.537-1.688c-0.812-0.329-1.317-1.616-1.134-2.431c1.518-8.189,7.757-30.352,10.749-40.97
		c-1.608,0.32-3.634,0.958-5.232,1.118c-0.922,0.161-2.857,0.644-2.857-1.277c0-3.915,1.613-10.716,3.177-11.358
		c8.081-2.985,12.315-3.658,19.115-4.137c14.238-1.117,22.685,8.845,22.52,18.412C570.252,26.57,567.427,34.506,555.656,39.453z
		 M539.073,15.397c2.482,0.736,4.908,1.379,5.967,1.702c0.83,0.315,2.283,0.958,2.116,2.661c-0.488,3.076-1.605,6.473-2.116,9.549
		c4.969,1.06,11.58-5.254,11.256-9.777C555.843,12.724,543.661,14.914,539.073,15.397z"/>
	<path fill="#FFFFFF" stroke="#FFFFFF" d="M591.002,59.403c-1.304,2.02-2.859,2.347-4.646,2.347c-2.668,0-6.157-0.968-8.318-2.666
		c-1.471-1.151-1.471-3.497-1.632-5.428c-1.05-16.644-2.032-33.239-1.538-49.835c0-1.224,1.379-2.7,2.846-2.86
		c3.312-0.315,6.801,0.32,9.632,1.636c1.442,0.553,1.858,2.341,2.027,3.72c0.651,9.98,0.15,20.91,0.15,30.695
		c3.977-10.271,8.914-23.415,13.142-34.348c0.461-1.219,2.425-1.703,3.802-1.542c3.144,0.323,6.63,1.001,9.389,2.7
		c1.219,0.798,1.219,2.98,0.737,4.287C609.282,27.227,602.405,40.831,591.002,59.403z"/>
	<path fill="#FFFFFF" stroke="#FFFFFF" d="M655.561,15.557c-8.271,0.483-15.956,0.483-24.864,0.16
		c1.771,0.581,3.146,1.383,4.456,1.698c3.956,1.462,1.841,4.146,0.794,8.118c4.71,0.164,10.467,0,14.995,0.324
		c3.657,0.319-0.896,13.916-3.153,14.168c-1.232,0.169-11.519-0.253-16.123-0.253c-0.969,2.679-1.798,5.523-2.665,8.374
		c5.829,0.124,11.326-0.514,16.434,0.327c2.169,0.312,0,13.404-3.657,13.404c-6.805,0.334-14.742,0-21.691,0
		c-2.852,0-6.482-5.962-6.988-8.411c-0.403-1.854,2.759-9.786,3.323-13.694c-0.564,0-1.7,0-2.497-0.319
		c-1.229-0.639,0.971-13.596,4.783-13.596c1.193,0,1.193,0,1.701,0.159c0.792-3.086,2.434-7.475,3.157-10.459
		c-0.724,0-4.537,0-4.395-1.294c0.501-4.12,1.374-8.265,3.485-11.825c0.421-1.157,2.851-1.477,3.906-1.477
		c10.621-0.639,22.67-0.639,31.664,0.16C662.042,1.444,656.702,15.557,655.561,15.557z"/>
</g>
<g>
	<path fill="#FFFFFF" d="M3.398,37.462H1.051V36.19h0.36c0.547,0,0.998-0.044,1.354-0.132s0.639-0.198,0.85-0.33
		s0.365-0.276,0.461-0.432c0.096-0.156,0.158-0.302,0.188-0.438h2.045v8.496H3.398V37.462z"/>
	<path fill="#FFFFFF" d="M12.384,37.462h-2.348V36.19h0.36c0.547,0,0.998-0.044,1.354-0.132s0.639-0.198,0.85-0.33
		s0.365-0.276,0.461-0.432c0.096-0.156,0.158-0.302,0.188-0.438h2.045v8.496h-2.909V37.462z"/>
	<path fill="#FFFFFF" d="M21.484,41.362c0,0.112,0.01,0.222,0.028,0.33c0.02,0.108,0.067,0.206,0.145,0.294
		c0.144,0.176,0.379,0.264,0.705,0.264c0.24,0,0.439-0.038,0.598-0.114c0.159-0.076,0.283-0.204,0.375-0.384
		c0.091-0.18,0.155-0.424,0.194-0.732c0.038-0.308,0.058-0.698,0.058-1.17h-0.029c-0.201,0.256-0.487,0.444-0.856,0.564
		c-0.37,0.12-0.813,0.18-1.332,0.18c-0.932,0-1.653-0.202-2.167-0.606c-0.514-0.404-0.771-1.082-0.771-2.034
		c0-0.424,0.058-0.824,0.173-1.2c0.115-0.376,0.321-0.704,0.619-0.984c0.297-0.28,0.708-0.502,1.231-0.666
		c0.522-0.164,1.188-0.246,1.994-0.246c0.902,0,1.62,0.096,2.152,0.288c0.533,0.192,0.941,0.468,1.225,0.828
		c0.283,0.36,0.465,0.796,0.547,1.308c0.081,0.512,0.122,1.084,0.122,1.716c0,0.712-0.035,1.346-0.107,1.902
		c-0.072,0.556-0.252,1.03-0.54,1.422c-0.288,0.392-0.716,0.69-1.282,0.894c-0.566,0.205-1.344,0.306-2.332,0.306
		c-1.104,0-1.966-0.168-2.585-0.504s-0.943-0.888-0.972-1.656H21.484z M22.435,39.106c0.211,0,0.387-0.034,0.525-0.102
		c0.14-0.068,0.247-0.164,0.324-0.288c0.077-0.124,0.13-0.268,0.158-0.432c0.029-0.164,0.044-0.342,0.044-0.534
		c0-0.504-0.075-0.9-0.224-1.188c-0.149-0.288-0.435-0.432-0.856-0.432c-0.413,0-0.694,0.13-0.843,0.39
		c-0.148,0.26-0.224,0.622-0.224,1.086c0,0.528,0.067,0.91,0.202,1.146C21.676,38.988,21.974,39.106,22.435,39.106z"/>
	<path fill="#FFFFFF" d="M31.55,34.786h2.909l1.065,6.096h0.043l1.268-6.096h2.707l1.383,6.096h0.028l1.037-6.096h2.793
		l-2.131,8.568h-3.226l-1.253-6.084h-0.043l-1.181,6.084h-3.226L31.55,34.786z"/>
	<path fill="#FFFFFF" d="M44.726,41.194h2.707v2.16h-2.707V41.194z"/>
	<path fill="#FFFFFF" d="M52.948,37.69v-0.276c0-1.704,1.311-2.556,3.932-2.556c0.749,0,1.365,0.062,1.851,0.186
		c0.484,0.124,0.871,0.292,1.159,0.504c0.288,0.212,0.489,0.462,0.604,0.75s0.173,0.6,0.173,0.936c0,0.32-0.031,0.596-0.094,0.828
		s-0.165,0.45-0.31,0.654c-0.144,0.204-0.341,0.406-0.591,0.606c-0.249,0.2-0.562,0.424-0.936,0.672
		c-0.604,0.408-1.118,0.75-1.541,1.026c-0.422,0.276-0.705,0.534-0.85,0.774h4.335v1.56h-7.805c0-0.504,0.093-0.956,0.28-1.356
		s0.423-0.756,0.706-1.068c0.282-0.312,0.585-0.584,0.907-0.816c0.321-0.232,0.611-0.428,0.871-0.588
		c0.519-0.32,0.921-0.59,1.209-0.81c0.288-0.22,0.499-0.412,0.634-0.576s0.214-0.314,0.237-0.45
		c0.024-0.136,0.036-0.284,0.036-0.444c0-0.336-0.064-0.606-0.194-0.81c-0.129-0.204-0.4-0.306-0.813-0.306
		c-0.278,0-0.492,0.05-0.641,0.15c-0.149,0.101-0.259,0.228-0.331,0.384c-0.072,0.156-0.113,0.326-0.123,0.51
		c-0.009,0.184-0.014,0.356-0.014,0.516H52.948z"/>
	<path fill="#FFFFFF" d="M64.627,40.858c0,0.192,0.014,0.372,0.043,0.54c0.028,0.168,0.081,0.314,0.158,0.438s0.185,0.224,0.324,0.3
		c0.139,0.076,0.319,0.114,0.54,0.114c0.374,0,0.652-0.088,0.835-0.264c0.183-0.176,0.273-0.504,0.273-0.984
		c0-0.272-0.026-0.496-0.079-0.672s-0.137-0.314-0.252-0.414s-0.271-0.17-0.468-0.21c-0.197-0.04-0.439-0.06-0.728-0.06h-0.691
		v-1.272h0.807c0.48,0,0.807-0.108,0.979-0.324c0.173-0.216,0.259-0.532,0.259-0.948c0-0.336-0.076-0.582-0.23-0.738
		c-0.153-0.156-0.398-0.234-0.734-0.234c-0.326,0-0.595,0.084-0.806,0.252c-0.212,0.168-0.317,0.492-0.317,0.972h-2.592
		c0-0.848,0.312-1.472,0.937-1.872c0.623-0.416,1.617-0.624,2.98-0.624c1.219,0,2.116,0.184,2.692,0.552
		c0.576,0.368,0.864,0.964,0.864,1.788c0,0.432-0.149,0.802-0.446,1.11c-0.298,0.308-0.729,0.506-1.296,0.594v0.024
		c0.729,0.112,1.25,0.33,1.562,0.654c0.312,0.324,0.468,0.786,0.468,1.386c0,0.456-0.101,0.846-0.303,1.17
		c-0.201,0.324-0.475,0.588-0.82,0.792c-0.346,0.204-0.754,0.354-1.225,0.45c-0.47,0.096-0.974,0.144-1.512,0.144
		c-0.604,0-1.154-0.038-1.648-0.114c-0.495-0.076-0.92-0.211-1.274-0.408c-0.355-0.196-0.629-0.466-0.821-0.81
		c-0.192-0.344-0.288-0.788-0.288-1.332H64.627z"/>
	<path fill="#FFFFFF" d="M71.034,36.862h2.693v0.912h0.043c0.183-0.288,0.453-0.54,0.813-0.756s0.838-0.324,1.433-0.324h0.202
		c0.028,0,0.06,0.002,0.094,0.006c0.033,0.004,0.083,0.01,0.15,0.018v1.824c-0.134-0.016-0.264-0.028-0.389-0.036
		c-0.125-0.008-0.254-0.012-0.389-0.012c-0.566,0-1.018,0.088-1.354,0.264c-0.336,0.176-0.504,0.48-0.504,0.912v3.684h-2.794V36.862
		z"/>
	<path fill="#FFFFFF" d="M81.979,42.562h-0.043c-0.058,0.112-0.135,0.224-0.23,0.336c-0.097,0.112-0.226,0.214-0.389,0.306
		c-0.164,0.092-0.358,0.167-0.584,0.228c-0.226,0.06-0.496,0.09-0.813,0.09c-0.471,0-0.886-0.062-1.245-0.186
		c-0.36-0.124-0.663-0.32-0.907-0.588c-0.245-0.268-0.43-0.614-0.555-1.038c-0.125-0.424-0.188-0.94-0.188-1.548
		c0-0.504,0.034-0.968,0.102-1.392c0.066-0.424,0.198-0.79,0.396-1.098c0.196-0.308,0.473-0.548,0.828-0.72
		c0.354-0.172,0.82-0.258,1.396-0.258c0.192,0,0.389,0.014,0.591,0.042c0.201,0.028,0.394,0.074,0.576,0.138
		c0.182,0.064,0.353,0.154,0.511,0.27c0.158,0.116,0.295,0.258,0.41,0.426h0.029v-2.784h2.808v8.568h-2.692V42.562z M81.921,40.15
		c0-0.288-0.01-0.556-0.029-0.804c-0.019-0.248-0.062-0.464-0.129-0.648c-0.067-0.184-0.168-0.328-0.303-0.432
		s-0.321-0.156-0.562-0.156c-0.26,0-0.459,0.046-0.598,0.138c-0.14,0.092-0.245,0.224-0.316,0.396
		c-0.072,0.172-0.115,0.378-0.13,0.618c-0.015,0.24-0.021,0.508-0.021,0.804c0,0.264,0.007,0.518,0.021,0.762s0.058,0.46,0.13,0.648
		c0.071,0.188,0.18,0.34,0.323,0.456c0.145,0.116,0.346,0.174,0.605,0.174c0.412,0,0.684-0.168,0.813-0.504
		C81.855,41.266,81.921,40.782,81.921,40.15z"/>
	<path fill="#FFFFFF" d="M93.239,40.738v0.3c0,0.168,0.019,0.32,0.058,0.456c0.038,0.136,0.103,0.256,0.194,0.36
		c0.091,0.104,0.218,0.184,0.382,0.24c0.163,0.056,0.374,0.084,0.633,0.084c0.26,0,0.473-0.03,0.642-0.09
		c0.167-0.06,0.302-0.138,0.402-0.234c0.102-0.096,0.171-0.206,0.209-0.33s0.058-0.246,0.058-0.366c0-0.232-0.077-0.422-0.23-0.57
		c-0.153-0.148-0.353-0.276-0.598-0.384c-0.244-0.108-0.527-0.202-0.85-0.282c-0.321-0.08-0.647-0.168-0.979-0.264
		c-0.332-0.096-0.655-0.206-0.973-0.33c-0.316-0.124-0.598-0.282-0.842-0.474c-0.245-0.192-0.444-0.426-0.598-0.702
		c-0.154-0.276-0.23-0.614-0.23-1.014c0-0.344,0.069-0.668,0.209-0.972c0.139-0.304,0.367-0.57,0.684-0.798s0.732-0.41,1.246-0.546
		c0.513-0.136,1.145-0.204,1.894-0.204c0.729,0,1.344,0.06,1.843,0.18c0.499,0.12,0.904,0.286,1.217,0.498
		c0.312,0.212,0.537,0.46,0.677,0.744c0.139,0.284,0.209,0.59,0.209,0.918v0.204h-2.794c0-0.416-0.081-0.716-0.244-0.9
		c-0.173-0.2-0.466-0.3-0.879-0.3c-0.777,0-1.166,0.308-1.166,0.924c0,0.304,0.132,0.54,0.396,0.708
		c0.264,0.168,0.593,0.312,0.986,0.432s0.818,0.238,1.274,0.354c0.456,0.116,0.881,0.268,1.274,0.456s0.723,0.436,0.986,0.744
		c0.265,0.308,0.396,0.714,0.396,1.218c0,0.976-0.37,1.674-1.109,2.094s-1.775,0.63-3.11,0.63c-0.537,0-1.051-0.032-1.54-0.096
		c-0.49-0.064-0.922-0.18-1.297-0.348c-0.374-0.168-0.672-0.396-0.893-0.684s-0.331-0.656-0.331-1.104v-0.552H93.239z"/>
	<path fill="#FFFFFF" d="M100.353,38.206H99.2v-1.344h1.152v-1.908h2.808v1.908h1.296v1.344h-1.296v3.276
		c0,0.232,0.065,0.39,0.194,0.474c0.13,0.084,0.362,0.126,0.699,0.126c0.058,0,0.122-0.002,0.194-0.006
		c0.071-0.004,0.142-0.01,0.208-0.018v1.296c-0.547,0.048-1.085,0.072-1.612,0.072c-0.489,0-0.896-0.021-1.217-0.061
		c-0.322-0.04-0.576-0.122-0.764-0.246c-0.187-0.124-0.319-0.302-0.396-0.534c-0.077-0.232-0.115-0.536-0.115-0.912V38.206z"/>
	<path fill="#FFFFFF" d="M105.551,41.194h2.707v2.16h-2.707V41.194z"/>
	<path fill="#FFFFFF" d="M114.004,34.786h3.341l2.391,5.568h0.028v-5.568h2.693v8.568h-3.283l-2.534-5.904h-0.044v5.904h-2.592
		V34.786z"/>
	<path fill="#FFFFFF" d="M126.546,39.982l-3.125-5.196h3.211l1.383,3.18h0.028l1.426-3.18h3.11l-3.139,5.196v3.372h-2.895V39.982z"
		/>
	<path fill="#FFFFFF" d="M138.686,37.762c0-0.624-0.074-1.08-0.224-1.368c-0.148-0.288-0.463-0.432-0.942-0.432
		c-0.288,0-0.517,0.052-0.685,0.156s-0.295,0.274-0.382,0.51c-0.086,0.236-0.142,0.546-0.165,0.93
		c-0.024,0.384-0.036,0.856-0.036,1.416c0,0.64,0.012,1.166,0.036,1.578c0.023,0.412,0.081,0.738,0.173,0.978
		c0.091,0.24,0.223,0.408,0.396,0.504c0.173,0.096,0.413,0.144,0.72,0.144c0.26,0,0.469-0.052,0.627-0.156s0.28-0.25,0.367-0.438
		c0.086-0.188,0.144-0.416,0.173-0.684c0.028-0.268,0.043-0.57,0.043-0.906h2.809v0.3c0,0.464-0.058,0.892-0.173,1.284
		s-0.332,0.732-0.648,1.02s-0.759,0.514-1.325,0.678c-0.566,0.164-1.296,0.246-2.188,0.246c-0.932,0-1.663-0.114-2.196-0.342
		c-0.532-0.228-0.934-0.544-1.202-0.948c-0.269-0.404-0.439-0.88-0.511-1.428c-0.072-0.548-0.108-1.146-0.108-1.794
		c0-0.552,0.031-1.09,0.094-1.614s0.232-0.992,0.511-1.404s0.706-0.744,1.282-0.996s1.377-0.378,2.404-0.378
		c1.277,0,2.256,0.212,2.938,0.636c0.682,0.424,1.022,1.14,1.022,2.148v0.36H138.686z"/>
	<path fill="#FFFFFF" d="M149.787,37.462h-2.348V36.19h0.36c0.547,0,0.998-0.044,1.354-0.132s0.639-0.198,0.85-0.33
		s0.365-0.276,0.461-0.432c0.096-0.156,0.158-0.302,0.188-0.438h2.045v8.496h-2.909V37.462z"/>
	<path fill="#FFFFFF" d="M163.898,39.19c0,0.608-0.041,1.176-0.122,1.704c-0.082,0.528-0.259,0.986-0.533,1.374
		c-0.273,0.388-0.679,0.694-1.217,0.918c-0.537,0.224-1.257,0.336-2.159,0.336c-0.912,0-1.638-0.098-2.175-0.294
		c-0.538-0.196-0.943-0.478-1.217-0.846c-0.273-0.368-0.449-0.82-0.525-1.356c-0.077-0.536-0.115-1.148-0.115-1.836
		c0-0.608,0.041-1.176,0.122-1.704c0.082-0.528,0.26-0.986,0.533-1.374c0.273-0.388,0.677-0.694,1.209-0.918
		c0.533-0.224,1.256-0.336,2.168-0.336c0.911,0,1.637,0.098,2.174,0.294c0.538,0.196,0.943,0.479,1.217,0.846
		c0.273,0.368,0.449,0.822,0.525,1.362C163.86,37.9,163.898,38.51,163.898,39.19z M158.743,39.202c0,0.6,0.013,1.096,0.036,1.488
		c0.024,0.392,0.077,0.704,0.159,0.936c0.081,0.232,0.194,0.394,0.338,0.486c0.145,0.092,0.341,0.138,0.591,0.138
		c0.239,0,0.434-0.046,0.583-0.138c0.148-0.092,0.264-0.254,0.346-0.486c0.081-0.232,0.134-0.544,0.158-0.936
		c0.023-0.392,0.036-0.888,0.036-1.488c0-0.608-0.013-1.11-0.036-1.506c-0.024-0.396-0.077-0.709-0.158-0.942
		c-0.082-0.232-0.197-0.394-0.346-0.486c-0.149-0.092-0.344-0.138-0.583-0.138c-0.25,0-0.446,0.046-0.591,0.138
		c-0.144,0.092-0.257,0.254-0.338,0.486c-0.082,0.232-0.135,0.546-0.159,0.942C158.756,38.092,158.743,38.594,158.743,39.202z"/>
	<path fill="#FFFFFF" d="M172.884,39.19c0,0.608-0.041,1.176-0.122,1.704c-0.082,0.528-0.259,0.986-0.533,1.374
		c-0.273,0.388-0.679,0.694-1.217,0.918c-0.537,0.224-1.257,0.336-2.159,0.336c-0.912,0-1.638-0.098-2.175-0.294
		c-0.538-0.196-0.943-0.478-1.217-0.846c-0.273-0.368-0.449-0.82-0.525-1.356c-0.077-0.536-0.115-1.148-0.115-1.836
		c0-0.608,0.041-1.176,0.122-1.704c0.082-0.528,0.26-0.986,0.533-1.374c0.273-0.388,0.677-0.694,1.209-0.918
		c0.533-0.224,1.256-0.336,2.168-0.336c0.911,0,1.637,0.098,2.174,0.294c0.538,0.196,0.943,0.479,1.217,0.846
		c0.273,0.368,0.449,0.822,0.525,1.362C172.846,37.9,172.884,38.51,172.884,39.19z M167.729,39.202c0,0.6,0.013,1.096,0.036,1.488
		c0.024,0.392,0.077,0.704,0.159,0.936c0.081,0.232,0.194,0.394,0.338,0.486c0.145,0.092,0.341,0.138,0.591,0.138
		c0.239,0,0.434-0.046,0.583-0.138c0.148-0.092,0.264-0.254,0.346-0.486c0.081-0.232,0.134-0.544,0.158-0.936
		c0.023-0.392,0.036-0.888,0.036-1.488c0-0.608-0.013-1.11-0.036-1.506c-0.024-0.396-0.077-0.709-0.158-0.942
		c-0.082-0.232-0.197-0.394-0.346-0.486c-0.149-0.092-0.344-0.138-0.583-0.138c-0.25,0-0.446,0.046-0.591,0.138
		c-0.144,0.092-0.257,0.254-0.338,0.486c-0.082,0.232-0.135,0.546-0.159,0.942C167.741,38.092,167.729,38.594,167.729,39.202z"/>
	<path fill="#FFFFFF" d="M176.744,37.462h-2.348V36.19h0.36c0.547,0,0.998-0.044,1.354-0.132s0.639-0.198,0.85-0.33
		s0.365-0.276,0.461-0.432c0.096-0.156,0.158-0.302,0.188-0.438h2.045v8.496h-2.909V37.462z"/>
	<path fill="#FFFFFF" d="M185.729,37.462h-2.348V36.19h0.36c0.547,0,0.998-0.044,1.354-0.132s0.639-0.198,0.85-0.33
		s0.365-0.276,0.461-0.432c0.096-0.156,0.158-0.302,0.188-0.438h2.045v8.496h-2.909V37.462z"/>
	<path fill="#FFFFFF" d="M196.601,34.618h2.246v8.904h-2.246V34.618z"/>
	<path fill="#FFFFFF" d="M204.794,37.69v-0.276c0-1.704,1.311-2.556,3.932-2.556c0.749,0,1.365,0.062,1.851,0.186
		c0.484,0.124,0.871,0.292,1.159,0.504c0.288,0.212,0.489,0.462,0.604,0.75s0.173,0.6,0.173,0.936c0,0.32-0.031,0.596-0.094,0.828
		s-0.165,0.45-0.31,0.654c-0.144,0.204-0.341,0.406-0.591,0.606c-0.249,0.2-0.562,0.424-0.936,0.672
		c-0.604,0.408-1.118,0.75-1.541,1.026c-0.422,0.276-0.705,0.534-0.85,0.774h4.335v1.56h-7.805c0-0.504,0.093-0.956,0.28-1.356
		s0.423-0.756,0.706-1.068c0.282-0.312,0.585-0.584,0.907-0.816c0.321-0.232,0.611-0.428,0.871-0.588
		c0.519-0.32,0.921-0.59,1.209-0.81c0.288-0.22,0.499-0.412,0.634-0.576s0.214-0.314,0.237-0.45
		c0.024-0.136,0.036-0.284,0.036-0.444c0-0.336-0.064-0.606-0.194-0.81c-0.129-0.204-0.4-0.306-0.813-0.306
		c-0.278,0-0.492,0.05-0.641,0.15c-0.149,0.101-0.259,0.228-0.331,0.384c-0.072,0.156-0.113,0.326-0.123,0.51
		c-0.009,0.184-0.014,0.356-0.014,0.516H204.794z"/>
	<path fill="#FFFFFF" d="M216.516,37.462h-2.348V36.19h0.36c0.547,0,0.998-0.044,1.354-0.132s0.639-0.198,0.85-0.33
		s0.365-0.276,0.461-0.432c0.096-0.156,0.158-0.302,0.188-0.438h2.045v8.496h-2.909V37.462z"/>
	<path fill="#FFFFFF" d="M222.766,37.69v-0.276c0-1.704,1.311-2.556,3.932-2.556c0.749,0,1.365,0.062,1.851,0.186
		c0.484,0.124,0.871,0.292,1.159,0.504c0.288,0.212,0.489,0.462,0.604,0.75s0.173,0.6,0.173,0.936c0,0.32-0.031,0.596-0.094,0.828
		s-0.165,0.45-0.31,0.654c-0.144,0.204-0.341,0.406-0.591,0.606c-0.249,0.2-0.562,0.424-0.936,0.672
		c-0.604,0.408-1.118,0.75-1.541,1.026c-0.422,0.276-0.705,0.534-0.85,0.774h4.335v1.56h-7.805c0-0.504,0.093-0.956,0.28-1.356
		s0.423-0.756,0.706-1.068c0.282-0.312,0.585-0.584,0.907-0.816c0.321-0.232,0.611-0.428,0.871-0.588
		c0.519-0.32,0.921-0.59,1.209-0.81c0.288-0.22,0.499-0.412,0.634-0.576s0.214-0.314,0.237-0.45
		c0.024-0.136,0.036-0.284,0.036-0.444c0-0.336-0.064-0.606-0.194-0.81c-0.129-0.204-0.4-0.306-0.813-0.306
		c-0.278,0-0.492,0.05-0.641,0.15c-0.149,0.101-0.259,0.228-0.331,0.384c-0.072,0.156-0.113,0.326-0.123,0.51
		c-0.009,0.184-0.014,0.356-0.014,0.516H222.766z"/>
	<path fill="#FFFFFF" d="M231.981,41.194h2.707v2.16h-2.707V41.194z"/>
	<path fill="#FFFFFF" d="M239.095,41.362c0,0.112,0.01,0.222,0.028,0.33c0.02,0.108,0.067,0.206,0.145,0.294
		c0.144,0.176,0.379,0.264,0.705,0.264c0.24,0,0.439-0.038,0.598-0.114c0.159-0.076,0.283-0.204,0.375-0.384
		c0.091-0.18,0.155-0.424,0.194-0.732c0.038-0.308,0.058-0.698,0.058-1.17h-0.029c-0.201,0.256-0.487,0.444-0.856,0.564
		c-0.37,0.12-0.813,0.18-1.332,0.18c-0.932,0-1.653-0.202-2.167-0.606c-0.514-0.404-0.771-1.082-0.771-2.034
		c0-0.424,0.058-0.824,0.173-1.2c0.115-0.376,0.321-0.704,0.619-0.984c0.297-0.28,0.708-0.502,1.231-0.666
		c0.522-0.164,1.188-0.246,1.994-0.246c0.902,0,1.62,0.096,2.152,0.288c0.533,0.192,0.941,0.468,1.225,0.828
		c0.283,0.36,0.465,0.796,0.547,1.308c0.081,0.512,0.122,1.084,0.122,1.716c0,0.712-0.035,1.346-0.107,1.902
		c-0.072,0.556-0.252,1.03-0.54,1.422c-0.288,0.392-0.716,0.69-1.282,0.894c-0.566,0.205-1.344,0.306-2.332,0.306
		c-1.104,0-1.966-0.168-2.585-0.504s-0.943-0.888-0.972-1.656H239.095z M240.045,39.106c0.211,0,0.387-0.034,0.525-0.102
		c0.14-0.068,0.247-0.164,0.324-0.288c0.077-0.124,0.13-0.268,0.158-0.432c0.029-0.164,0.044-0.342,0.044-0.534
		c0-0.504-0.075-0.9-0.224-1.188c-0.149-0.288-0.435-0.432-0.856-0.432c-0.413,0-0.694,0.13-0.843,0.39
		c-0.148,0.26-0.224,0.622-0.224,1.086c0,0.528,0.067,0.91,0.202,1.146C239.286,38.988,239.584,39.106,240.045,39.106z"/>
	<path fill="#FFFFFF" d="M245.229,37.69v-0.276c0-1.704,1.311-2.556,3.932-2.556c0.749,0,1.365,0.062,1.851,0.186
		c0.484,0.124,0.871,0.292,1.159,0.504c0.288,0.212,0.489,0.462,0.604,0.75s0.173,0.6,0.173,0.936c0,0.32-0.031,0.596-0.094,0.828
		s-0.165,0.45-0.31,0.654c-0.144,0.204-0.341,0.406-0.591,0.606c-0.249,0.2-0.562,0.424-0.936,0.672
		c-0.604,0.408-1.118,0.75-1.541,1.026c-0.422,0.276-0.705,0.534-0.85,0.774h4.335v1.56h-7.805c0-0.504,0.093-0.956,0.28-1.356
		s0.423-0.756,0.706-1.068c0.282-0.312,0.585-0.584,0.907-0.816c0.321-0.232,0.611-0.428,0.871-0.588
		c0.519-0.32,0.921-0.59,1.209-0.81c0.288-0.22,0.499-0.412,0.634-0.576s0.214-0.314,0.237-0.45
		c0.024-0.136,0.036-0.284,0.036-0.444c0-0.336-0.064-0.606-0.194-0.81c-0.129-0.204-0.4-0.306-0.813-0.306
		c-0.278,0-0.492,0.05-0.641,0.15c-0.149,0.101-0.259,0.228-0.331,0.384c-0.072,0.156-0.113,0.326-0.123,0.51
		c-0.009,0.184-0.014,0.356-0.014,0.516H245.229z"/>
	<path fill="#FFFFFF" d="M257.066,41.362c0,0.112,0.01,0.222,0.028,0.33c0.02,0.108,0.067,0.206,0.145,0.294
		c0.144,0.176,0.379,0.264,0.705,0.264c0.24,0,0.439-0.038,0.598-0.114c0.159-0.076,0.283-0.204,0.375-0.384
		c0.091-0.18,0.155-0.424,0.194-0.732c0.038-0.308,0.058-0.698,0.058-1.17h-0.029c-0.201,0.256-0.487,0.444-0.856,0.564
		c-0.37,0.12-0.813,0.18-1.332,0.18c-0.932,0-1.653-0.202-2.167-0.606c-0.514-0.404-0.771-1.082-0.771-2.034
		c0-0.424,0.058-0.824,0.173-1.2c0.115-0.376,0.321-0.704,0.619-0.984c0.297-0.28,0.708-0.502,1.231-0.666
		c0.522-0.164,1.188-0.246,1.994-0.246c0.902,0,1.62,0.096,2.152,0.288c0.533,0.192,0.941,0.468,1.225,0.828
		c0.283,0.36,0.465,0.796,0.547,1.308c0.081,0.512,0.122,1.084,0.122,1.716c0,0.712-0.035,1.346-0.107,1.902
		c-0.072,0.556-0.252,1.03-0.54,1.422c-0.288,0.392-0.716,0.69-1.282,0.894c-0.566,0.205-1.344,0.306-2.332,0.306
		c-1.104,0-1.966-0.168-2.585-0.504s-0.943-0.888-0.972-1.656H257.066z M258.017,39.106c0.211,0,0.387-0.034,0.525-0.102
		c0.14-0.068,0.247-0.164,0.324-0.288c0.077-0.124,0.13-0.268,0.158-0.432c0.029-0.164,0.044-0.342,0.044-0.534
		c0-0.504-0.075-0.9-0.224-1.188c-0.149-0.288-0.435-0.432-0.856-0.432c-0.413,0-0.694,0.13-0.843,0.39
		c-0.148,0.26-0.224,0.622-0.224,1.086c0,0.528,0.067,0.91,0.202,1.146C257.258,38.988,257.556,39.106,258.017,39.106z"/>
	<path fill="#FFFFFF" d="M263.431,41.194h2.707v2.16h-2.707V41.194z"/>
	<path fill="#FFFFFF" d="M270.386,40.858c0,0.192,0.014,0.372,0.043,0.54c0.028,0.168,0.081,0.314,0.158,0.438
		s0.185,0.224,0.324,0.3c0.139,0.076,0.319,0.114,0.54,0.114c0.374,0,0.652-0.088,0.835-0.264c0.183-0.176,0.273-0.504,0.273-0.984
		c0-0.272-0.026-0.496-0.079-0.672s-0.137-0.314-0.252-0.414s-0.271-0.17-0.468-0.21c-0.197-0.04-0.439-0.06-0.728-0.06h-0.691
		v-1.272h0.807c0.48,0,0.807-0.108,0.979-0.324c0.173-0.216,0.259-0.532,0.259-0.948c0-0.336-0.076-0.582-0.23-0.738
		c-0.153-0.156-0.398-0.234-0.734-0.234c-0.326,0-0.595,0.084-0.806,0.252c-0.212,0.168-0.317,0.492-0.317,0.972h-2.592
		c0-0.848,0.312-1.472,0.937-1.872c0.623-0.416,1.617-0.624,2.98-0.624c1.219,0,2.116,0.184,2.692,0.552
		c0.576,0.368,0.864,0.964,0.864,1.788c0,0.432-0.149,0.802-0.446,1.11c-0.298,0.308-0.729,0.506-1.296,0.594v0.024
		c0.729,0.112,1.25,0.33,1.562,0.654c0.312,0.324,0.468,0.786,0.468,1.386c0,0.456-0.101,0.846-0.303,1.17
		c-0.201,0.324-0.475,0.588-0.82,0.792c-0.346,0.204-0.754,0.354-1.225,0.45c-0.47,0.096-0.974,0.144-1.512,0.144
		c-0.604,0-1.154-0.038-1.648-0.114c-0.495-0.076-0.92-0.211-1.274-0.408c-0.355-0.196-0.629-0.466-0.821-0.81
		c-0.192-0.344-0.288-0.788-0.288-1.332H270.386z"/>
	<path fill="#FFFFFF" d="M281.487,37.03c0-0.12-0.01-0.234-0.028-0.342c-0.02-0.108-0.067-0.206-0.145-0.294
		c-0.144-0.176-0.379-0.264-0.705-0.264c-0.24,0-0.439,0.038-0.598,0.114s-0.283,0.204-0.374,0.384
		c-0.092,0.18-0.156,0.426-0.195,0.738c-0.038,0.312-0.058,0.7-0.058,1.164h0.029c0.201-0.256,0.487-0.444,0.856-0.564
		c0.37-0.12,0.813-0.18,1.332-0.18c0.932,0,1.654,0.202,2.168,0.606c0.513,0.404,0.77,1.082,0.77,2.034
		c0,0.424-0.058,0.824-0.173,1.2s-0.321,0.704-0.619,0.984c-0.297,0.28-0.708,0.502-1.23,0.666
		c-0.523,0.164-1.188,0.246-1.995,0.246c-0.902,0-1.62-0.096-2.152-0.288c-0.533-0.192-0.941-0.468-1.224-0.828
		c-0.284-0.36-0.466-0.793-0.548-1.302c-0.081-0.508-0.122-1.082-0.122-1.722c0-0.704,0.036-1.336,0.107-1.896
		c0.072-0.56,0.252-1.036,0.54-1.428s0.716-0.69,1.282-0.894s1.344-0.306,2.333-0.306c1.094,0,1.953,0.17,2.577,0.51
		c0.624,0.34,0.95,0.894,0.979,1.662H281.487z M280.566,42.25c0.412,0,0.693-0.13,0.842-0.39c0.149-0.26,0.224-0.622,0.224-1.086
		c0-0.528-0.067-0.91-0.202-1.146c-0.134-0.236-0.432-0.354-0.893-0.354c-0.221,0-0.398,0.034-0.532,0.102
		c-0.135,0.068-0.24,0.164-0.317,0.288s-0.13,0.268-0.158,0.432c-0.029,0.164-0.043,0.342-0.043,0.534
		c0,0.504,0.074,0.9,0.223,1.188C279.858,42.106,280.144,42.25,280.566,42.25z"/>
	<path fill="#FFFFFF" d="M285.376,40.15l3.975-5.124h3.11v5.124h1.152v1.56h-1.152v1.644h-2.692V41.71h-4.393V40.15z
		 M289.769,37.306h-0.029l-2.059,2.844h2.088V37.306z"/>
	<path fill="#FFFFFF" d="M297.271,40.858v0.312c0,0.144,0.015,0.28,0.043,0.408c0.029,0.128,0.082,0.242,0.158,0.342
		c0.077,0.1,0.183,0.18,0.317,0.24c0.134,0.06,0.307,0.09,0.519,0.09c0.461,0,0.763-0.158,0.907-0.474
		c0.144-0.316,0.216-0.766,0.216-1.35c0-0.504-0.084-0.876-0.252-1.116c-0.168-0.24-0.439-0.36-0.813-0.36
		c-0.279,0-0.517,0.05-0.713,0.15c-0.197,0.1-0.319,0.274-0.367,0.522h-2.693l0.375-4.596h6.868v1.56h-4.637l-0.129,1.596
		l0.028,0.024c0.087-0.104,0.201-0.198,0.346-0.282c0.144-0.084,0.307-0.156,0.489-0.216s0.377-0.104,0.583-0.132
		c0.207-0.028,0.406-0.042,0.598-0.042c1.114,0,1.93,0.234,2.448,0.702c0.519,0.468,0.777,1.218,0.777,2.25
		c0,1.08-0.328,1.856-0.986,2.328c-0.657,0.472-1.668,0.708-3.031,0.708c-1.314,0-2.284-0.204-2.908-0.612
		c-0.624-0.408-0.937-0.988-0.937-1.74v-0.312H297.271z"/>
	<path fill="#FFFFFF" d="M663.371,34.786h4.262l1.513,5.628h0.043l1.469-5.628h4.19v8.568h-2.692v-6.672h-0.029l-1.887,6.672h-2.246
		l-1.987-6.672h-0.043v6.672h-2.592V34.786z"/>
	<path fill="#FFFFFF" d="M680.521,43.522c-0.854,0-1.536-0.086-2.045-0.258s-0.897-0.41-1.167-0.714
		c-0.269-0.304-0.443-0.662-0.525-1.074c-0.081-0.412-0.122-0.862-0.122-1.35c0-0.488,0.05-0.94,0.151-1.356
		c0.101-0.416,0.29-0.778,0.568-1.086s0.67-0.55,1.174-0.726c0.504-0.176,1.159-0.264,1.966-0.264c0.845,0,1.521,0.086,2.03,0.258
		s0.899,0.41,1.174,0.714c0.273,0.304,0.451,0.662,0.532,1.074c0.082,0.412,0.123,0.862,0.123,1.35c0,0.488-0.051,0.94-0.151,1.356
		c-0.102,0.417-0.291,0.778-0.569,1.086c-0.278,0.308-0.669,0.55-1.174,0.726C681.982,43.434,681.327,43.522,680.521,43.522z
		 M681.572,40.114c0-0.4-0.015-0.738-0.043-1.014c-0.029-0.276-0.079-0.498-0.151-0.666s-0.178-0.288-0.316-0.36
		c-0.14-0.072-0.314-0.108-0.526-0.108c-0.201,0-0.372,0.038-0.511,0.114c-0.14,0.076-0.25,0.198-0.331,0.366
		c-0.082,0.168-0.14,0.388-0.173,0.66c-0.034,0.272-0.051,0.604-0.051,0.996c0,0.4,0.017,0.736,0.051,1.008
		c0.033,0.272,0.091,0.492,0.173,0.66c0.081,0.168,0.191,0.29,0.331,0.366c0.139,0.076,0.31,0.114,0.511,0.114
		c0.212,0,0.387-0.036,0.526-0.108c0.139-0.072,0.244-0.192,0.316-0.36c0.072-0.168,0.122-0.388,0.151-0.66
		C681.558,40.85,681.572,40.514,681.572,40.114z"/>
	<path fill="#FFFFFF" d="M685.979,36.862h2.693v0.768h0.043c0.191-0.288,0.484-0.516,0.878-0.684s0.85-0.252,1.368-0.252
		c0.797,0,1.401,0.144,1.814,0.432s0.619,0.744,0.619,1.368v4.86h-2.808v-4.428c0-0.232-0.067-0.414-0.202-0.546
		c-0.134-0.132-0.336-0.198-0.604-0.198s-0.504,0.074-0.705,0.222c-0.202,0.148-0.303,0.382-0.303,0.702v4.248h-2.794V36.862z"/>
	<path fill="#FFFFFF" d="M695.122,39.07h5.212v1.632h-5.212V39.07z"/>
	<path fill="#FFFFFF" d="M702.178,34.786h7.143v1.632h-4.233v1.716h3.975v1.632h-3.975v3.588h-2.909V34.786z"/>
	<path fill="#FFFFFF" d="M710.731,36.862h2.693v0.912h0.043c0.183-0.288,0.453-0.54,0.813-0.756s0.838-0.324,1.433-0.324h0.202
		c0.028,0,0.06,0.002,0.094,0.006c0.033,0.004,0.083,0.01,0.15,0.018v1.824c-0.134-0.016-0.264-0.028-0.389-0.036
		c-0.125-0.008-0.254-0.012-0.389-0.012c-0.566,0-1.018,0.088-1.354,0.264c-0.336,0.176-0.504,0.48-0.504,0.912v3.684h-2.794V36.862
		z"/>
	<path fill="#FFFFFF" d="M717.557,34.69h2.794v1.488h-2.794V34.69z M717.557,36.862h2.794v6.492h-2.794V36.862z"/>
	<path fill="#FFFFFF" d="M729.926,41.362c0,0.112,0.01,0.222,0.028,0.33c0.02,0.108,0.067,0.206,0.145,0.294
		c0.144,0.176,0.379,0.264,0.705,0.264c0.24,0,0.439-0.038,0.598-0.114c0.159-0.076,0.283-0.204,0.375-0.384
		c0.091-0.18,0.155-0.424,0.194-0.732c0.038-0.308,0.058-0.698,0.058-1.17h-0.029c-0.201,0.256-0.487,0.444-0.856,0.564
		c-0.37,0.12-0.813,0.18-1.332,0.18c-0.932,0-1.653-0.202-2.167-0.606c-0.514-0.404-0.771-1.082-0.771-2.034
		c0-0.424,0.058-0.824,0.173-1.2c0.115-0.376,0.321-0.704,0.619-0.984c0.297-0.28,0.708-0.502,1.231-0.666
		c0.522-0.164,1.188-0.246,1.994-0.246c0.902,0,1.62,0.096,2.152,0.288c0.533,0.192,0.941,0.468,1.225,0.828
		c0.283,0.36,0.465,0.796,0.547,1.308c0.081,0.512,0.122,1.084,0.122,1.716c0,0.712-0.035,1.346-0.107,1.902
		c-0.072,0.556-0.252,1.03-0.54,1.422c-0.288,0.392-0.716,0.69-1.282,0.894c-0.566,0.205-1.344,0.306-2.332,0.306
		c-1.104,0-1.966-0.168-2.585-0.504s-0.943-0.888-0.972-1.656H729.926z M730.876,39.106c0.211,0,0.387-0.034,0.525-0.102
		c0.14-0.068,0.247-0.164,0.324-0.288c0.077-0.124,0.13-0.268,0.158-0.432c0.029-0.164,0.044-0.342,0.044-0.534
		c0-0.504-0.075-0.9-0.224-1.188c-0.149-0.288-0.435-0.432-0.856-0.432c-0.413,0-0.694,0.13-0.843,0.39
		c-0.148,0.26-0.224,0.622-0.224,1.086c0,0.528,0.067,0.91,0.202,1.146C730.117,38.988,730.415,39.106,730.876,39.106z"/>
	<path fill="#FFFFFF" d="M736.478,38.854c0.02-0.456,0.118-0.82,0.296-1.092c0.177-0.272,0.434-0.488,0.77-0.648
		c0.336-0.16,0.706-0.27,1.109-0.33s0.902-0.09,1.497-0.09c1.143,0,1.98,0.146,2.514,0.438c0.532,0.292,0.799,0.786,0.799,1.482
		v3.336c0,0.248,0.015,0.508,0.043,0.78c0.029,0.272,0.125,0.48,0.288,0.624h-2.692c-0.067-0.112-0.108-0.232-0.123-0.36
		c-0.014-0.128-0.026-0.256-0.036-0.384h-0.028c-0.202,0.288-0.497,0.512-0.886,0.672c-0.389,0.16-0.828,0.24-1.317,0.24
		c-0.797,0-1.411-0.154-1.844-0.462c-0.432-0.308-0.647-0.814-0.647-1.518c0-0.384,0.105-0.722,0.316-1.014
		c0.211-0.292,0.49-0.506,0.836-0.642c0.172-0.072,0.364-0.132,0.575-0.18s0.428-0.092,0.648-0.132s0.441-0.076,0.662-0.108
		c0.221-0.032,0.427-0.068,0.619-0.108c0.211-0.04,0.382-0.078,0.512-0.114c0.129-0.036,0.23-0.08,0.302-0.132
		c0.072-0.052,0.12-0.118,0.145-0.198c0.023-0.08,0.036-0.18,0.036-0.3c0-0.2-0.07-0.358-0.209-0.474
		c-0.14-0.116-0.362-0.174-0.67-0.174c-0.394,0-0.66,0.078-0.799,0.234c-0.14,0.156-0.214,0.374-0.224,0.654H736.478z
		 M738.926,41.35c0,0.256,0.067,0.458,0.201,0.606c0.135,0.148,0.336,0.222,0.605,0.222c0.307,0,0.571-0.064,0.792-0.192
		c0.221-0.128,0.331-0.36,0.331-0.696c0-0.272,0.002-0.496,0.007-0.672c0.005-0.176,0.008-0.332,0.008-0.468
		c-0.222,0.08-0.411,0.144-0.569,0.192c-0.158,0.048-0.298,0.086-0.417,0.114c-0.12,0.028-0.222,0.056-0.303,0.084
		c-0.082,0.028-0.156,0.058-0.224,0.09c-0.153,0.08-0.264,0.174-0.331,0.282S738.926,41.166,738.926,41.35z"/>
	<path fill="#FFFFFF" d="M745.622,36.862h2.692v0.768h0.043c0.192-0.288,0.485-0.516,0.879-0.684s0.85-0.252,1.368-0.252
		c0.201,0,0.415,0.01,0.641,0.03s0.441,0.064,0.647,0.132c0.207,0.068,0.398,0.168,0.576,0.3c0.178,0.132,0.319,0.311,0.425,0.534
		c0.326-0.376,0.665-0.636,1.016-0.78s0.784-0.216,1.303-0.216c0.797,0,1.401,0.144,1.814,0.432s0.619,0.744,0.619,1.368v4.86
		h-2.793v-4.428c0-0.232-0.067-0.414-0.202-0.546c-0.135-0.132-0.341-0.198-0.619-0.198c-0.269,0-0.502,0.074-0.698,0.222
		c-0.197,0.148-0.295,0.382-0.295,0.702v4.248h-2.809v-4.428c0-0.232-0.067-0.414-0.201-0.546c-0.135-0.132-0.336-0.198-0.604-0.198
		c-0.27,0-0.505,0.074-0.706,0.222c-0.201,0.148-0.303,0.382-0.303,0.702v4.248h-2.793V36.862z"/>
	<path fill="#FFFFFF" d="M759.461,39.07h5.212v1.632h-5.212V39.07z"/>
	<path fill="#FFFFFF" d="M770.116,34.858c0.672,0,1.245,0.052,1.721,0.156c0.475,0.104,0.858,0.252,1.151,0.444
		s0.507,0.422,0.642,0.69c0.134,0.268,0.201,0.57,0.201,0.906c0,0.48-0.146,0.876-0.439,1.188s-0.723,0.512-1.288,0.6v0.024
		c0.662,0.072,1.173,0.28,1.533,0.624c0.36,0.344,0.54,0.804,0.54,1.38c0,0.36-0.056,0.7-0.166,1.02s-0.314,0.602-0.611,0.846
		c-0.298,0.244-0.711,0.437-1.238,0.576c-0.528,0.14-1.21,0.21-2.045,0.21c-0.836,0-1.518-0.066-2.045-0.198
		c-0.528-0.132-0.941-0.316-1.238-0.552c-0.298-0.236-0.502-0.516-0.612-0.84c-0.11-0.324-0.166-0.678-0.166-1.062
		c0-0.24,0.039-0.472,0.115-0.696c0.077-0.224,0.194-0.426,0.354-0.606c0.158-0.18,0.364-0.332,0.619-0.456
		c0.254-0.124,0.563-0.206,0.929-0.246v-0.024c-0.519-0.096-0.927-0.292-1.225-0.588c-0.297-0.296-0.446-0.696-0.446-1.2
		c0-0.32,0.067-0.614,0.202-0.882c0.134-0.268,0.348-0.5,0.641-0.696c0.293-0.196,0.674-0.348,1.145-0.456
		S769.435,34.858,770.116,34.858z M770.116,39.562c-0.23,0-0.421,0.034-0.569,0.102s-0.267,0.162-0.353,0.282
		c-0.087,0.12-0.146,0.26-0.18,0.42c-0.034,0.16-0.051,0.336-0.051,0.528s0.017,0.37,0.051,0.534
		c0.033,0.164,0.093,0.306,0.18,0.426c0.086,0.12,0.204,0.216,0.353,0.288c0.148,0.072,0.339,0.108,0.569,0.108
		s0.42-0.036,0.568-0.108c0.148-0.072,0.267-0.168,0.353-0.288c0.087-0.12,0.146-0.262,0.181-0.426
		c0.033-0.164,0.05-0.342,0.05-0.534s-0.017-0.368-0.05-0.528c-0.034-0.16-0.094-0.3-0.181-0.42
		c-0.086-0.12-0.204-0.214-0.353-0.282S770.347,39.562,770.116,39.562z M770.116,38.29c0.336,0,0.59-0.078,0.763-0.234
		c0.173-0.156,0.26-0.442,0.26-0.858c0-0.296-0.075-0.548-0.224-0.756c-0.149-0.208-0.415-0.312-0.799-0.312
		c-0.192,0-0.355,0.028-0.49,0.084c-0.135,0.056-0.24,0.132-0.316,0.228c-0.077,0.096-0.132,0.21-0.166,0.342
		c-0.033,0.132-0.05,0.27-0.05,0.414c0,0.416,0.086,0.702,0.259,0.858C769.525,38.212,769.779,38.29,770.116,38.29z"/>
	<path fill="#FFFFFF" d="M775.746,36.862h2.693v0.792h0.043c0.048-0.104,0.122-0.214,0.223-0.33c0.102-0.116,0.233-0.22,0.396-0.312
		c0.163-0.092,0.36-0.168,0.591-0.228c0.229-0.06,0.499-0.09,0.806-0.09c0.471,0,0.884,0.062,1.238,0.186
		c0.355,0.124,0.655,0.32,0.9,0.588c0.245,0.269,0.43,0.614,0.555,1.038c0.124,0.424,0.187,0.94,0.187,1.548
		c0,0.504-0.033,0.968-0.101,1.392c-0.067,0.424-0.199,0.791-0.396,1.098c-0.197,0.308-0.474,0.548-0.828,0.72
		c-0.355,0.172-0.816,0.258-1.383,0.258c-0.384,0-0.771-0.058-1.159-0.174s-0.698-0.35-0.929-0.702h-0.043v2.82h-2.794V36.862z
		 M778.497,40.066c0,0.288,0.009,0.556,0.028,0.804s0.062,0.464,0.13,0.648s0.168,0.328,0.303,0.432
		c0.134,0.104,0.321,0.156,0.562,0.156c0.249,0,0.446-0.046,0.59-0.138c0.145-0.092,0.252-0.224,0.324-0.396
		c0.072-0.172,0.115-0.378,0.13-0.618c0.014-0.24,0.021-0.508,0.021-0.804c0-0.264-0.01-0.518-0.029-0.762s-0.064-0.46-0.137-0.648
		s-0.18-0.34-0.324-0.456c-0.144-0.116-0.345-0.174-0.604-0.174c-0.413,0-0.682,0.168-0.807,0.504
		C778.559,38.95,778.497,39.434,778.497,40.066z"/>
	<path fill="#FFFFFF" d="M785.164,36.862h2.692v0.768h0.043c0.192-0.288,0.485-0.516,0.879-0.684s0.85-0.252,1.368-0.252
		c0.201,0,0.415,0.01,0.641,0.03s0.441,0.064,0.647,0.132c0.207,0.068,0.398,0.168,0.576,0.3c0.178,0.132,0.319,0.311,0.425,0.534
		c0.326-0.376,0.665-0.636,1.016-0.78s0.784-0.216,1.303-0.216c0.797,0,1.401,0.144,1.814,0.432s0.619,0.744,0.619,1.368v4.86
		h-2.793v-4.428c0-0.232-0.067-0.414-0.202-0.546c-0.135-0.132-0.341-0.198-0.619-0.198c-0.269,0-0.502,0.074-0.698,0.222
		c-0.197,0.148-0.295,0.382-0.295,0.702v4.248h-2.809v-4.428c0-0.232-0.067-0.414-0.201-0.546c-0.135-0.132-0.336-0.198-0.604-0.198
		c-0.27,0-0.505,0.074-0.706,0.222c-0.201,0.148-0.303,0.382-0.303,0.702v4.248h-2.793V36.862z"/>
	<path fill="#FFFFFF" d="M804.057,34.618h2.246v8.904h-2.246V34.618z"/>
	<path fill="#FFFFFF" d="M815.605,40.738v0.3c0,0.168,0.019,0.32,0.058,0.456c0.038,0.136,0.103,0.256,0.194,0.36
		c0.091,0.104,0.218,0.184,0.382,0.24c0.163,0.056,0.374,0.084,0.633,0.084c0.26,0,0.473-0.03,0.642-0.09
		c0.167-0.06,0.302-0.138,0.402-0.234c0.102-0.096,0.171-0.206,0.209-0.33s0.058-0.246,0.058-0.366c0-0.232-0.077-0.422-0.23-0.57
		c-0.153-0.148-0.353-0.276-0.598-0.384c-0.244-0.108-0.527-0.202-0.85-0.282c-0.321-0.08-0.647-0.168-0.979-0.264
		c-0.332-0.096-0.655-0.206-0.973-0.33c-0.316-0.124-0.598-0.282-0.842-0.474c-0.245-0.192-0.444-0.426-0.598-0.702
		c-0.154-0.276-0.23-0.614-0.23-1.014c0-0.344,0.069-0.668,0.209-0.972c0.139-0.304,0.367-0.57,0.684-0.798s0.732-0.41,1.246-0.546
		c0.513-0.136,1.145-0.204,1.894-0.204c0.729,0,1.344,0.06,1.843,0.18c0.499,0.12,0.904,0.286,1.217,0.498
		c0.312,0.212,0.537,0.46,0.677,0.744c0.139,0.284,0.209,0.59,0.209,0.918v0.204h-2.794c0-0.416-0.081-0.716-0.244-0.9
		c-0.173-0.2-0.466-0.3-0.879-0.3c-0.777,0-1.166,0.308-1.166,0.924c0,0.304,0.132,0.54,0.396,0.708
		c0.264,0.168,0.593,0.312,0.986,0.432s0.818,0.238,1.274,0.354c0.456,0.116,0.881,0.268,1.274,0.456s0.723,0.436,0.986,0.744
		c0.265,0.308,0.396,0.714,0.396,1.218c0,0.976-0.37,1.674-1.109,2.094s-1.775,0.63-3.11,0.63c-0.537,0-1.051-0.032-1.54-0.096
		c-0.49-0.064-0.922-0.18-1.297-0.348c-0.374-0.168-0.672-0.396-0.893-0.684s-0.331-0.656-0.331-1.104v-0.552H815.605z"/>
	<path fill="#FFFFFF" d="M822.66,38.854c0.02-0.456,0.118-0.82,0.296-1.092c0.177-0.272,0.434-0.488,0.77-0.648
		c0.336-0.16,0.706-0.27,1.109-0.33s0.902-0.09,1.497-0.09c1.143,0,1.98,0.146,2.514,0.438c0.532,0.292,0.799,0.786,0.799,1.482
		v3.336c0,0.248,0.015,0.508,0.043,0.78c0.029,0.272,0.125,0.48,0.288,0.624h-2.692c-0.067-0.112-0.108-0.232-0.123-0.36
		c-0.014-0.128-0.026-0.256-0.036-0.384h-0.028c-0.202,0.288-0.497,0.512-0.886,0.672c-0.389,0.16-0.828,0.24-1.317,0.24
		c-0.797,0-1.411-0.154-1.844-0.462c-0.432-0.308-0.647-0.814-0.647-1.518c0-0.384,0.105-0.722,0.316-1.014
		c0.211-0.292,0.49-0.506,0.836-0.642c0.172-0.072,0.364-0.132,0.575-0.18s0.428-0.092,0.648-0.132s0.441-0.076,0.662-0.108
		c0.221-0.032,0.427-0.068,0.619-0.108c0.211-0.04,0.382-0.078,0.512-0.114c0.129-0.036,0.23-0.08,0.302-0.132
		c0.072-0.052,0.12-0.118,0.145-0.198c0.023-0.08,0.036-0.18,0.036-0.3c0-0.2-0.07-0.358-0.209-0.474
		c-0.14-0.116-0.362-0.174-0.67-0.174c-0.394,0-0.66,0.078-0.799,0.234c-0.14,0.156-0.214,0.374-0.224,0.654H822.66z M825.108,41.35
		c0,0.256,0.067,0.458,0.201,0.606c0.135,0.148,0.336,0.222,0.605,0.222c0.307,0,0.571-0.064,0.792-0.192
		c0.221-0.128,0.331-0.36,0.331-0.696c0-0.272,0.002-0.496,0.007-0.672c0.005-0.176,0.008-0.332,0.008-0.468
		c-0.222,0.08-0.411,0.144-0.569,0.192c-0.158,0.048-0.298,0.086-0.417,0.114c-0.12,0.028-0.222,0.056-0.303,0.084
		c-0.082,0.028-0.156,0.058-0.224,0.09c-0.153,0.08-0.264,0.174-0.331,0.282S825.108,41.166,825.108,41.35z"/>
	<path fill="#FFFFFF" d="M832.078,38.206h-1.152v-1.344h1.152v-1.908h2.808v1.908h1.296v1.344h-1.296v3.276
		c0,0.232,0.065,0.39,0.194,0.474c0.13,0.084,0.362,0.126,0.699,0.126c0.058,0,0.122-0.002,0.194-0.006
		c0.071-0.004,0.142-0.01,0.208-0.018v1.296c-0.547,0.048-1.085,0.072-1.612,0.072c-0.489,0-0.896-0.021-1.217-0.061
		c-0.322-0.04-0.576-0.122-0.764-0.246c-0.187-0.124-0.319-0.302-0.396-0.534c-0.077-0.232-0.115-0.536-0.115-0.912V38.206z"/>
	<path fill="#FFFFFF" d="M837.335,39.07h5.212v1.632h-5.212V39.07z"/>
	<path fill="#FFFFFF" d="M846.795,40.738v0.3c0,0.168,0.019,0.32,0.058,0.456c0.038,0.136,0.103,0.256,0.194,0.36
		c0.091,0.104,0.218,0.184,0.382,0.24c0.163,0.056,0.374,0.084,0.633,0.084c0.26,0,0.473-0.03,0.642-0.09
		c0.167-0.06,0.302-0.138,0.402-0.234c0.102-0.096,0.171-0.206,0.209-0.33s0.058-0.246,0.058-0.366c0-0.232-0.077-0.422-0.23-0.57
		c-0.153-0.148-0.353-0.276-0.598-0.384c-0.244-0.108-0.527-0.202-0.85-0.282c-0.321-0.08-0.647-0.168-0.979-0.264
		c-0.332-0.096-0.655-0.206-0.973-0.33c-0.316-0.124-0.598-0.282-0.842-0.474c-0.245-0.192-0.444-0.426-0.598-0.702
		c-0.154-0.276-0.23-0.614-0.23-1.014c0-0.344,0.069-0.668,0.209-0.972c0.139-0.304,0.367-0.57,0.684-0.798s0.732-0.41,1.246-0.546
		c0.513-0.136,1.145-0.204,1.894-0.204c0.729,0,1.344,0.06,1.843,0.18c0.499,0.12,0.904,0.286,1.217,0.498
		c0.312,0.212,0.537,0.46,0.677,0.744c0.139,0.284,0.209,0.59,0.209,0.918v0.204h-2.794c0-0.416-0.081-0.716-0.244-0.9
		c-0.173-0.2-0.466-0.3-0.879-0.3c-0.777,0-1.166,0.308-1.166,0.924c0,0.304,0.132,0.54,0.396,0.708
		c0.264,0.168,0.593,0.312,0.986,0.432s0.818,0.238,1.274,0.354c0.456,0.116,0.881,0.268,1.274,0.456s0.723,0.436,0.986,0.744
		c0.265,0.308,0.396,0.714,0.396,1.218c0,0.976-0.37,1.674-1.109,2.094s-1.775,0.63-3.11,0.63c-0.537,0-1.051-0.032-1.54-0.096
		c-0.49-0.064-0.922-0.18-1.297-0.348c-0.374-0.168-0.672-0.396-0.893-0.684s-0.331-0.656-0.331-1.104v-0.552H846.795z"/>
	<path fill="#FFFFFF" d="M861.324,43.354h-2.692v-0.768h-0.043c-0.192,0.288-0.485,0.516-0.879,0.684s-0.85,0.252-1.368,0.252
		c-0.797,0-1.401-0.144-1.814-0.432c-0.412-0.288-0.619-0.744-0.619-1.368v-4.86h2.794v4.428c0,0.232,0.069,0.414,0.209,0.546
		c0.139,0.132,0.343,0.198,0.611,0.198c0.27,0,0.502-0.074,0.699-0.222c0.196-0.148,0.295-0.382,0.295-0.702v-4.248h2.808V43.354z"
		/>
	<path fill="#FFFFFF" d="M863.239,36.862h2.693v0.768h0.043c0.191-0.288,0.484-0.516,0.878-0.684s0.85-0.252,1.368-0.252
		c0.797,0,1.401,0.144,1.814,0.432s0.619,0.744,0.619,1.368v4.86h-2.808v-4.428c0-0.232-0.067-0.414-0.202-0.546
		c-0.134-0.132-0.336-0.198-0.604-0.198s-0.504,0.074-0.705,0.222c-0.202,0.148-0.303,0.382-0.303,0.702v4.248h-2.794V36.862z"/>
	<path fill="#FFFFFF" d="M880.044,37.462h-2.348V36.19h0.36c0.547,0,0.998-0.044,1.354-0.132s0.639-0.198,0.85-0.33
		s0.365-0.276,0.461-0.432c0.096-0.156,0.158-0.302,0.188-0.438h2.045v8.496h-2.909V37.462z"/>
	<path fill="#FFFFFF" d="M889.389,37.462h-2.348V36.19h0.36c0.547,0,0.998-0.044,1.354-0.132s0.639-0.198,0.85-0.33
		s0.365-0.276,0.461-0.432c0.096-0.156,0.158-0.302,0.188-0.438h2.045v8.496h-2.909V37.462z"/>
	<path fill="#FFFFFF" d="M896.056,38.854c0.02-0.456,0.118-0.82,0.296-1.092c0.177-0.272,0.434-0.488,0.77-0.648
		c0.336-0.16,0.706-0.27,1.109-0.33s0.902-0.09,1.497-0.09c1.143,0,1.98,0.146,2.514,0.438c0.532,0.292,0.799,0.786,0.799,1.482
		v3.336c0,0.248,0.015,0.508,0.043,0.78c0.029,0.272,0.125,0.48,0.288,0.624h-2.692c-0.067-0.112-0.108-0.232-0.123-0.36
		c-0.014-0.128-0.026-0.256-0.036-0.384h-0.028c-0.202,0.288-0.497,0.512-0.886,0.672c-0.389,0.16-0.828,0.24-1.317,0.24
		c-0.797,0-1.411-0.154-1.844-0.462c-0.432-0.308-0.647-0.814-0.647-1.518c0-0.384,0.105-0.722,0.316-1.014
		c0.211-0.292,0.49-0.506,0.836-0.642c0.172-0.072,0.364-0.132,0.575-0.18s0.428-0.092,0.648-0.132s0.441-0.076,0.662-0.108
		c0.221-0.032,0.427-0.068,0.619-0.108c0.211-0.04,0.382-0.078,0.512-0.114c0.129-0.036,0.23-0.08,0.302-0.132
		c0.072-0.052,0.12-0.118,0.145-0.198c0.023-0.08,0.036-0.18,0.036-0.3c0-0.2-0.07-0.358-0.209-0.474
		c-0.14-0.116-0.362-0.174-0.67-0.174c-0.394,0-0.66,0.078-0.799,0.234c-0.14,0.156-0.214,0.374-0.224,0.654H896.056z
		 M898.504,41.35c0,0.256,0.067,0.458,0.201,0.606c0.135,0.148,0.336,0.222,0.605,0.222c0.307,0,0.571-0.064,0.792-0.192
		c0.221-0.128,0.331-0.36,0.331-0.696c0-0.272,0.002-0.496,0.007-0.672c0.005-0.176,0.008-0.332,0.008-0.468
		c-0.222,0.08-0.411,0.144-0.569,0.192c-0.158,0.048-0.298,0.086-0.417,0.114c-0.12,0.028-0.222,0.056-0.303,0.084
		c-0.082,0.028-0.156,0.058-0.224,0.09c-0.153,0.08-0.264,0.174-0.331,0.282S898.504,41.166,898.504,41.35z"/>
	<path fill="#FFFFFF" d="M905.2,36.862h2.692v0.768h0.043c0.192-0.288,0.485-0.516,0.879-0.684s0.85-0.252,1.368-0.252
		c0.201,0,0.415,0.01,0.641,0.03s0.441,0.064,0.647,0.132c0.207,0.068,0.398,0.168,0.576,0.3c0.178,0.132,0.319,0.311,0.425,0.534
		c0.326-0.376,0.665-0.636,1.016-0.78s0.784-0.216,1.303-0.216c0.797,0,1.401,0.144,1.814,0.432s0.619,0.744,0.619,1.368v4.86
		h-2.793v-4.428c0-0.232-0.067-0.414-0.202-0.546c-0.135-0.132-0.341-0.198-0.619-0.198c-0.269,0-0.502,0.074-0.698,0.222
		c-0.197,0.148-0.295,0.382-0.295,0.702v4.248h-2.809v-4.428c0-0.232-0.067-0.414-0.201-0.546c-0.135-0.132-0.336-0.198-0.604-0.198
		c-0.27,0-0.505,0.074-0.706,0.222c-0.201,0.148-0.303,0.382-0.303,0.702v4.248H905.2V36.862z"/>
	<path fill="#FFFFFF" d="M919.039,39.07h5.212v1.632h-5.212V39.07z"/>
	<path fill="#FFFFFF" d="M930.673,37.03c0-0.12-0.01-0.234-0.028-0.342c-0.02-0.108-0.067-0.206-0.145-0.294
		c-0.144-0.176-0.379-0.264-0.705-0.264c-0.24,0-0.439,0.038-0.598,0.114s-0.283,0.204-0.374,0.384
		c-0.092,0.18-0.156,0.426-0.195,0.738c-0.038,0.312-0.058,0.7-0.058,1.164h0.029c0.201-0.256,0.487-0.444,0.856-0.564
		c0.37-0.12,0.813-0.18,1.332-0.18c0.932,0,1.654,0.202,2.168,0.606c0.513,0.404,0.77,1.082,0.77,2.034
		c0,0.424-0.058,0.824-0.173,1.2s-0.321,0.704-0.619,0.984c-0.297,0.28-0.708,0.502-1.23,0.666
		c-0.523,0.164-1.188,0.246-1.995,0.246c-0.902,0-1.62-0.096-2.152-0.288c-0.533-0.192-0.941-0.468-1.224-0.828
		c-0.284-0.36-0.466-0.793-0.548-1.302c-0.081-0.508-0.122-1.082-0.122-1.722c0-0.704,0.036-1.336,0.107-1.896
		c0.072-0.56,0.252-1.036,0.54-1.428s0.716-0.69,1.282-0.894s1.344-0.306,2.333-0.306c1.094,0,1.953,0.17,2.577,0.51
		c0.624,0.34,0.95,0.894,0.979,1.662H930.673z M929.752,42.25c0.412,0,0.693-0.13,0.842-0.39c0.149-0.26,0.224-0.622,0.224-1.086
		c0-0.528-0.067-0.91-0.202-1.146c-0.134-0.236-0.432-0.354-0.893-0.354c-0.221,0-0.398,0.034-0.532,0.102
		c-0.135,0.068-0.24,0.164-0.317,0.288s-0.13,0.268-0.158,0.432c-0.029,0.164-0.043,0.342-0.043,0.534
		c0,0.504,0.074,0.9,0.223,1.188C929.044,42.106,929.329,42.25,929.752,42.25z"/>
	<path fill="#FFFFFF" d="M935.324,36.862h2.693v0.792h0.043c0.048-0.104,0.122-0.214,0.223-0.33c0.102-0.116,0.233-0.22,0.396-0.312
		c0.163-0.092,0.36-0.168,0.591-0.228c0.229-0.06,0.499-0.09,0.806-0.09c0.471,0,0.884,0.062,1.238,0.186
		c0.355,0.124,0.655,0.32,0.9,0.588c0.245,0.269,0.43,0.614,0.555,1.038c0.124,0.424,0.187,0.94,0.187,1.548
		c0,0.504-0.033,0.968-0.101,1.392c-0.067,0.424-0.199,0.791-0.396,1.098c-0.197,0.308-0.474,0.548-0.828,0.72
		c-0.355,0.172-0.816,0.258-1.383,0.258c-0.384,0-0.771-0.058-1.159-0.174s-0.698-0.35-0.929-0.702h-0.043v2.82h-2.794V36.862z
		 M938.075,40.066c0,0.288,0.009,0.556,0.028,0.804s0.062,0.464,0.13,0.648s0.168,0.328,0.303,0.432
		c0.134,0.104,0.321,0.156,0.562,0.156c0.249,0,0.446-0.046,0.59-0.138c0.145-0.092,0.252-0.224,0.324-0.396
		c0.072-0.172,0.115-0.378,0.13-0.618c0.014-0.24,0.021-0.508,0.021-0.804c0-0.264-0.01-0.518-0.029-0.762s-0.064-0.46-0.137-0.648
		s-0.18-0.34-0.324-0.456c-0.144-0.116-0.345-0.174-0.604-0.174c-0.413,0-0.682,0.168-0.807,0.504
		C938.137,38.95,938.075,39.434,938.075,40.066z"/>
	<path fill="#FFFFFF" d="M944.742,36.862h2.692v0.768h0.043c0.192-0.288,0.485-0.516,0.879-0.684s0.85-0.252,1.368-0.252
		c0.201,0,0.415,0.01,0.641,0.03s0.441,0.064,0.647,0.132c0.207,0.068,0.398,0.168,0.576,0.3c0.178,0.132,0.319,0.311,0.425,0.534
		c0.326-0.376,0.665-0.636,1.016-0.78s0.784-0.216,1.303-0.216c0.797,0,1.401,0.144,1.814,0.432s0.619,0.744,0.619,1.368v4.86
		h-2.793v-4.428c0-0.232-0.067-0.414-0.202-0.546c-0.135-0.132-0.341-0.198-0.619-0.198c-0.269,0-0.502,0.074-0.698,0.222
		c-0.197,0.148-0.295,0.382-0.295,0.702v4.248h-2.809v-4.428c0-0.232-0.067-0.414-0.201-0.546c-0.135-0.132-0.336-0.198-0.604-0.198
		c-0.27,0-0.505,0.074-0.706,0.222c-0.201,0.148-0.303,0.382-0.303,0.702v4.248h-2.793V36.862z"/>
</g>
<g>
</g>
<g>
</g>
<g>
</g>
<g>
</g>
<g>
</g>
<g>
</g>
<g>
</g>
<g>
</g>
<g>
</g>
<g>
</g>
<g>
</g>
<g>
</g>
<g>
</g>
<g>
</g>
<g>
</g>
</svg>
