<?xml version="1.0" encoding="utf-8"?>
<!-- Generator: Adobe Illustrator 16.0.0, SVG Export Plug-In . SVG Version: 6.00 Build 0)  -->
<!DOCTYPE svg PUBLIC "-//W3C//DTD SVG 1.1//EN" "http://www.w3.org/Graphics/SVG/1.1/DTD/svg11.dtd">
<svg version="1.1" id="Layer_1" xmlns="http://www.w3.org/2000/svg" xmlns:xlink="http://www.w3.org/1999/xlink" x="0px" y="0px"
	 width="1024px" height="80px" viewBox="0 0 1024 80" enable-background="new 0 0 1024 80" xml:space="preserve">
<g>
	<path fill="#FFFFFF" stroke="#FFFFFF" stroke-miterlimit="10" d="M180.96,15.2h-0.16L161.12,68h-4l-19.68-52.8h-0.24V68h-4V10.88
		h6.48l19.52,51.36h0.16l19.04-51.36h6.64V68h-4.08V15.2z"/>
	<path fill="#FFFFFF" stroke="#FFFFFF" stroke-miterlimit="10" d="M196.08,10.88h32.72v3.04h-28.64v22.8h26.72v3.04h-26.72v25.2
		h29.52V68h-33.6V10.88z"/>
	<path fill="#FFFFFF" stroke="#FFFFFF" stroke-miterlimit="10" d="M241.679,10.88l29.84,51.841h0.24V10.88h4V68h-5.28l-29.92-51.84
		h-0.24V68h-4V10.88H241.679z"/>
	<path fill="#FFFFFF" stroke="#FFFFFF" stroke-miterlimit="10" d="M289.998,52.88c0,2.028,0.28,3.854,0.84,5.479
		c0.56,1.628,1.44,3.028,2.64,4.201c1.2,1.174,2.746,2.08,4.64,2.719c1.893,0.641,4.172,0.961,6.84,0.961
		c5.013,0,8.76-1.227,11.24-3.68c2.48-2.453,3.72-5.681,3.72-9.681v-42h4.08v41.36c0,3.199-0.547,5.88-1.64,8.039
		c-1.094,2.16-2.534,3.881-4.32,5.16c-1.788,1.281-3.814,2.188-6.08,2.721c-2.268,0.532-4.6,0.8-7,0.8s-4.734-0.228-7-0.681
		c-2.268-0.451-4.294-1.306-6.08-2.559c-1.788-1.254-3.228-2.961-4.32-5.121c-1.094-2.16-1.64-4.945-1.64-8.359V10.88h4.08V52.88z"
		/>
</g>
<path fill="#FFFFFF" d="M80,68c0,6.627-5.373,12-12,12H12C5.373,80,0,74.627,0,68V12C0,5.373,5.373,0,12,0h56
	c6.627,0,12,5.373,12,12V68z"/>
<g>
	
		<line fill="none" stroke="#004D72" stroke-width="5" stroke-linecap="square" stroke-miterlimit="10" x1="15" y1="26.5" x2="65" y2="26.5"/>
	
		<line fill="none" stroke="#004D72" stroke-width="5" stroke-linecap="square" stroke-miterlimit="10" x1="15" y1="40.5" x2="65" y2="40.5"/>
	
		<line fill="none" stroke="#004D72" stroke-width="5" stroke-linecap="square" stroke-miterlimit="10" x1="15" y1="55.5" x2="65" y2="55.5"/>
</g>
<g>
</g>
<g>
</g>
<g>
</g>
<g>
</g>
<g>
</g>
<g>
</g>
<g>
</g>
<g>
</g>
<g>
</g>
<g>
</g>
<g>
</g>
<g>
</g>
<g>
</g>
<g>
</g>
<g>
</g>
</svg>
