<?xml version="1.0" encoding="utf-8"?>
<!-- Generator: Adobe Illustrator 16.0.0, SVG Export Plug-In . SVG Version: 6.00 Build 0)  -->
<!DOCTYPE svg PUBLIC "-//W3C//DTD SVG 1.1//EN" "http://www.w3.org/Graphics/SVG/1.1/DTD/svg11.dtd">
<svg version="1.1" id="Layer_1" xmlns="http://www.w3.org/2000/svg" xmlns:xlink="http://www.w3.org/1999/xlink" x="0px" y="0px"
	 width="315.333px" height="97.715px" viewBox="0 0 315.333 97.715" enable-background="new 0 0 315.333 97.715"
	 xml:space="preserve">
<g>
	<path fill="#FFFFFF" d="M35.539,12.706c-0.433,0.739-1.466,1.316-2.268,1.316c-5.163-0.143-9.225-0.143-14.699-0.287
		c2.047,0.721,3.428,1.239,5.177,2.243c1.083,0.724,2.256,0.724,1.826,3.145c-2.567,11.353-6.125,23.125-9.68,34.391
		c-0.29,0.666-0.804,1.812-1.672,1.812c-2.997,0.298-6.276,0.298-9.103-0.857c-1.325-0.403-2.394-2.11-2.043-3.43
		c2.764-9.561,7.287-26.097,10.253-37.449c-3.544,0-7.347,0-10.912-0.426c-1.878-0.15-2.021-0.757-1.878-2.999
		c0.144-2.68,0.864-5.534,2.025-7.923c0.512-0.892,1.086-1.47,2.702-1.47c0.952,0.144,30.271,0.728,30.271,0.728
		c2.102,0.307,2.25,1.536,2.25,2.988C37.788,7.179,36.636,10.307,35.539,12.706z"/>
	<path fill="#FFFFFF" d="M71.631,14.022c-7.431,0.434-14.348,0.434-22.352,0.143c1.609,0.521,2.848,1.243,4.003,1.525
		c3.572,1.313,1.667,3.723,0.721,7.291c4.231,0.147,9.388,0,13.48,0.291c3.257,0.287-0.807,12.497-2.853,12.725
		c-1.096,0.151-10.328-0.228-14.476-0.228c-0.876,2.407-1.601,4.96-2.405,7.521c5.244,0.111,10.198-0.461,14.78,0.293
		c1.956,0.281,0,12.039-3.285,12.039c-6.107,0.301-13.233,0-19.503,0c-2.533,0-5.818-5.354-6.251-7.553
		c-0.37-1.665,2.477-8.79,2.996-12.3c-0.519,0-1.528,0-2.275-0.286c-1.091-0.574,0.893-12.211,4.293-12.211
		c1.095,0,1.095,0,1.527,0.143c0.748-2.771,2.188-6.713,2.853-9.393c-0.665,0-4.086,0-3.934-1.163
		c0.448-3.7,1.231-7.422,3.125-10.62c0.378-1.039,2.551-1.326,3.486-1.326c9.531-0.574,20.394-0.574,28.46,0.144
		C77.451,1.348,72.642,14.022,71.631,14.022z"/>
	<path fill="#FFFFFF" d="M97.298,32.356c4.148,6.471,11.799,19.438,12.24,21.158c0.142,0.953,0,1.237-0.293,1.526
		c-2.27,2.114-4.952,3.887-7.503,4.58c-1.021,0.177-1.881-0.11-2.259-0.286c-3.861-3.107-9.536-13.938-13.094-20.344
		c-1.161,4.594-2.833,9.827-4.145,14.523c-0.296,1.42-1.085,2.108-2.121,2.108c-3.263,0-5.957-0.408-8.937-1.933
		c-1.17-0.575-1.827-1.334-1.457-3.295c3.572-14.397,8.008-30.413,12.955-47.807c0.437-1.388,1.962-1.675,3.408-1.675
		c2.416,0,5.093,0.584,7.287,1.469c0.951,0.344,2.103,1.528,1.959,2.68c-1.009,5.388-3.123,11.349-4.44,16.883
		c7.581-2.388,12.076-8.784,15.358-20.14c0.287-0.892,2.041-0.892,2.988-0.748c2.618,0.594,5.306,0.899,7.555,2.13
		c0.738,0.438,1.029,1.729,0.738,2.393C111.566,22.982,104.728,29.229,97.298,32.356z"/>
	<path fill="#FFFFFF" d="M151.591,15.408c-1.173,0.86-9.971,1.596-9.971-0.147c0-0.805-0.291-1.816-2.26-1.673
		c-1.967,0.147-2.977,1.82-2.689,3.263c1.526,7.652,8.804,13.187,8.069,22.265c-1.157,14.573-12.215,17.11-20.585,16.678
		c-4.149-0.285-11.504,0-11.647-4.295c0-4.496,1.089-8.669,2.411-12.509c0.292-0.814,1.529-1.531,2.54-1.819
		c2.105-0.297,4.436-0.297,6.548,0c0.882,0.125,1.532,0.869,1.826,1.579c0.438,0.946,0,2.126,0.146,3.219
		c0.146,0.279,0.146,0.861,0.869,0.861c2.834,0,4.292-1.812,4.149-3.714c-0.871-7.636-9.39-14.319-9.247-22.265
		c0.144-12.939,15.207-16.654,22.99-16.22c2.559,0,5.1,0,7.432,0.868c1.233,0.602,2.54,1.984,2.393,3.274
		C154.419,8.495,154.419,13.012,151.591,15.408z"/>
	<path fill="#FFFFFF" d="M189.84,14.022c-7.414,0.434-14.312,0.434-22.318,0.143c1.607,0.521,2.846,1.243,4.001,1.525
		c3.552,1.313,1.674,3.723,0.737,7.291c4.217,0.147,9.373,0,13.461,0.291c3.255,0.287-0.825,12.497-2.85,12.725
		c-1.086,0.151-10.324-0.228-14.488-0.228c-0.861,2.407-1.603,4.96-2.396,7.521c5.247,0.111,10.2-0.461,14.783,0.293
		c1.953,0.281,0,12.039-3.278,12.039c-6.123,0.301-13.244,0-19.509,0c-2.543,0-5.813-5.354-6.253-7.553
		c-0.367-1.665,2.477-8.79,2.98-12.3c-0.503,0-1.53,0-2.258-0.286c-1.089-0.574,0.875-12.211,4.294-12.211
		c1.093,0,1.093,0,1.524,0.143c0.733-2.771,2.19-6.713,2.851-9.393c-0.66,0-4.085,0-3.938-1.163c0.438-3.7,1.237-7.422,3.131-10.62
		c0.365-1.039,2.542-1.326,3.485-1.326c9.533-0.574,20.396-0.574,28.447,0.144C195.663,1.348,190.881,14.022,189.84,14.022z"/>
	<path fill="#FFFFFF" d="M221.5,35.484c2.984,5.534,7.578,12.756,9.99,17.631c0.291,0.693,0.118,1.926-0.461,2.395
		c-2.251,1.811-4.783,3.246-7.63,4.288c-1.034,0.286-2.479,0.286-2.97-0.575c-4.592-6.281-7.889-13.259-11.889-20.395
		c-1.069,4.575-2.686,10.287-4.051,14.574c-0.298,0.777-1.025,1.924-1.891,1.924c-3.516,0.186-6.278-0.393-9.463-1.516
		c-0.73-0.297-1.186-1.453-1.02-2.185c1.362-7.355,6.967-27.259,9.653-36.795c-1.444,0.287-3.265,0.86-4.699,1.004
		c-0.827,0.144-2.565,0.578-2.565-1.147c0-3.516,1.449-9.624,2.853-10.201c7.259-2.681,11.062-3.285,17.167-3.716
		c12.788-1.003,20.374,7.944,20.227,16.536C234.609,23.913,232.071,31.041,221.5,35.484z M206.607,13.879
		c2.229,0.661,4.408,1.238,5.358,1.529c0.746,0.283,2.051,0.86,1.9,2.39c-0.438,2.763-1.441,5.813-1.9,8.576
		c4.463,0.952,10.4-4.718,10.109-8.78C221.667,11.478,210.727,13.445,206.607,13.879z"/>
	<path fill="#FFFFFF" d="M253.245,53.4c-1.172,1.813-2.568,2.108-4.173,2.108c-2.396,0-5.528-0.87-7.471-2.395
		c-1.321-1.035-1.321-3.142-1.465-4.875c-0.943-14.949-1.826-29.854-1.382-44.757c0-1.099,1.238-2.425,2.556-2.568
		c2.976-0.283,6.106,0.287,8.651,1.469c1.293,0.497,1.668,2.103,1.82,3.341c0.584,8.963,0.135,18.779,0.135,27.567
		c3.57-9.225,8.006-21.028,11.801-30.848c0.414-1.095,2.18-1.529,3.416-1.385c2.822,0.291,5.953,0.899,8.433,2.425
		c1.095,0.716,1.095,2.676,0.661,3.85C269.663,24.503,263.485,36.72,253.245,53.4z"/>
	<path fill="#FFFFFF" d="M311.223,14.022c-7.428,0.434-14.33,0.434-22.33,0.143c1.591,0.521,2.826,1.243,4.003,1.525
		c3.552,1.313,1.651,3.723,0.712,7.291c4.23,0.147,9.4,0,13.469,0.291c3.283,0.287-0.805,12.497-2.832,12.725
		c-1.107,0.151-10.346-0.228-14.48-0.228c-0.87,2.407-1.614,4.96-2.393,7.521c5.233,0.111,10.172-0.461,14.758,0.293
		c1.947,0.281,0,12.039-3.285,12.039c-6.11,0.301-13.239,0-19.48,0c-2.561,0-5.82-5.354-6.275-7.553
		c-0.36-1.665,2.479-8.79,2.986-12.3c-0.508,0-1.529,0-2.244-0.286c-1.104-0.574,0.871-12.211,4.295-12.211
		c1.072,0,1.072,0,1.528,0.143c0.712-2.771,2.187-6.713,2.837-9.393c-0.65,0-4.074,0-3.947-1.163c0.449-3.7,1.232-7.422,3.129-10.62
		c0.379-1.039,2.562-1.326,3.51-1.326c9.537-0.574,20.359-0.574,28.438,0.144C317.043,1.348,312.249,14.022,311.223,14.022z"/>
</g>
</svg>
