<?xml version="1.0" encoding="utf-8"?>
<!-- Generator: Adobe Illustrator 16.0.0, SVG Export Plug-In . SVG Version: 6.00 Build 0)  -->
<svg version="1.2" baseProfile="tiny" id="Layer_1" xmlns="http://www.w3.org/2000/svg" xmlns:xlink="http://www.w3.org/1999/xlink"
	 x="0px" y="0px" width="315.333px" height="97.715px" viewBox="0 0 315.333 97.715" xml:space="preserve">
<g>
	<path fill="#FFFFFF" d="M35.539,12.706c-0.433,0.739-1.466,1.316-2.268,1.316c-5.163-0.143-9.225-0.143-14.699-0.287
		c2.047,0.721,3.428,1.239,5.177,2.243c1.083,0.724,2.256,0.724,1.826,3.145c-2.567,11.353-6.125,23.125-9.68,34.391
		c-0.29,0.666-0.804,1.812-1.672,1.812c-2.997,0.298-6.276,0.298-9.103-0.857c-1.325-0.403-2.394-2.11-2.043-3.43
		c2.764-9.561,7.287-26.097,10.253-37.449c-3.544,0-7.347,0-10.912-0.426c-1.878-0.15-2.021-0.757-1.878-2.999
		c0.144-2.68,0.864-5.534,2.025-7.923c0.512-0.892,1.086-1.47,2.702-1.47c0.952,0.144,30.271,0.728,30.271,0.728
		c2.102,0.307,2.25,1.536,2.25,2.988C37.788,7.179,36.636,10.307,35.539,12.706z"/>
	<path fill="#FFFFFF" d="M71.631,14.022c-7.431,0.434-14.348,0.434-22.352,0.143c1.609,0.521,2.848,1.243,4.003,1.525
		c3.572,1.313,1.667,3.723,0.721,7.291c4.231,0.147,9.388,0,13.48,0.291c3.257,0.287-0.807,12.497-2.853,12.725
		c-1.096,0.151-10.328-0.228-14.476-0.228c-0.876,2.407-1.601,4.96-2.405,7.521c5.244,0.111,10.198-0.461,14.78,0.293
		c1.956,0.281,0,12.039-3.285,12.039c-6.107,0.301-13.233,0-19.503,0c-2.533,0-5.818-5.354-6.251-7.553
		c-0.37-1.665,2.477-8.79,2.996-12.3c-0.519,0-1.528,0-2.275-0.286c-1.091-0.574,0.893-12.211,4.293-12.211
		c1.095,0,1.095,0,1.527,0.143c0.748-2.771,2.188-6.713,2.853-9.393c-0.665,0-4.086,0-3.934-1.163
		c0.448-3.7,1.231-7.422,3.125-10.62c0.378-1.039,2.551-1.326,3.486-1.326c9.531-0.574,20.394-0.574,28.46,0.144
		C77.451,1.348,72.642,14.022,71.631,14.022z"/>
	<path fill="#FFFFFF" d="M97.298,32.356c4.148,6.471,11.799,19.438,12.24,21.158c0.142,0.953,0,1.237-0.293,1.526
		c-2.27,2.114-4.952,3.887-7.503,4.58c-1.021,0.177-1.881-0.11-2.259-0.286c-3.861-3.107-9.536-13.938-13.094-20.344
		c-1.161,4.594-2.833,9.827-4.145,14.523c-0.296,1.42-1.085,2.108-2.121,2.108c-3.263,0-5.957-0.408-8.937-1.933
		c-1.17-0.575-1.827-1.334-1.457-3.295c3.572-14.397,8.008-30.413,12.955-47.807c0.437-1.388,1.962-1.675,3.408-1.675
		c2.416,0,5.093,0.584,7.287,1.469c0.951,0.344,2.103,1.528,1.959,2.68c-1.009,5.388-3.123,11.349-4.44,16.883
		c7.581-2.388,12.076-8.784,15.358-20.14c0.287-0.892,2.041-0.892,2.988-0.748c2.618,0.594,5.306,0.899,7.555,2.13
		c0.738,0.438,1.029,1.729,0.738,2.393C111.566,22.982,104.728,29.229,97.298,32.356z"/>
	<path fill="#FFFFFF" d="M151.591,15.408c-1.173,0.86-9.971,1.596-9.971-0.147c0-0.805-0.291-1.816-2.26-1.673
		c-1.967,0.147-2.977,1.82-2.689,3.263c1.526,7.652,8.804,13.187,8.069,22.265c-1.157,14.573-12.215,17.11-20.585,16.678
		c-4.149-0.285-11.504,0-11.647-4.295c0-4.496,1.089-8.669,2.411-12.509c0.292-0.814,1.529-1.531,2.54-1.819
		c2.105-0.297,4.436-0.297,6.548,0c0.882,0.125,1.532,0.869,1.826,1.579c0.438,0.946,0,2.126,0.146,3.219
		c0.146,0.279,0.146,0.861,0.869,0.861c2.834,0,4.292-1.812,4.149-3.714c-0.871-7.636-9.39-14.319-9.247-22.265
		c0.144-12.939,15.207-16.654,22.99-16.22c2.559,0,5.1,0,7.432,0.868c1.233,0.602,2.54,1.984,2.393,3.274
		C154.419,8.495,154.419,13.012,151.591,15.408z"/>
	<path fill="#FFFFFF" d="M189.84,14.022c-7.414,0.434-14.312,0.434-22.318,0.143c1.607,0.521,2.846,1.243,4.001,1.525
		c3.552,1.313,1.674,3.723,0.737,7.291c4.217,0.147,9.373,0,13.461,0.291c3.255,0.287-0.825,12.497-2.85,12.725
		c-1.086,0.151-10.324-0.228-14.488-0.228c-0.861,2.407-1.603,4.96-2.396,7.521c5.247,0.111,10.2-0.461,14.783,0.293
		c1.953,0.281,0,12.039-3.278,12.039c-6.123,0.301-13.244,0-19.509,0c-2.543,0-5.813-5.354-6.253-7.553
		c-0.367-1.665,2.477-8.79,2.98-12.3c-0.503,0-1.53,0-2.258-0.286c-1.089-0.574,0.875-12.211,4.294-12.211
		c1.093,0,1.093,0,1.524,0.143c0.733-2.771,2.19-6.713,2.851-9.393c-0.66,0-4.085,0-3.938-1.163c0.438-3.7,1.237-7.422,3.131-10.62
		c0.365-1.039,2.542-1.326,3.485-1.326c9.533-0.574,20.396-0.574,28.447,0.144C195.663,1.348,190.881,14.022,189.84,14.022z"/>
	<path fill="#FFFFFF" d="M221.5,35.484c2.984,5.534,7.578,12.756,9.99,17.631c0.291,0.693,0.118,1.926-0.461,2.395
		c-2.251,1.811-4.783,3.246-7.63,4.288c-1.034,0.286-2.479,0.286-2.97-0.575c-4.592-6.281-7.889-13.259-11.889-20.395
		c-1.069,4.575-2.686,10.287-4.051,14.574c-0.298,0.777-1.025,1.924-1.891,1.924c-3.516,0.186-6.278-0.393-9.463-1.516
		c-0.73-0.297-1.186-1.453-1.02-2.185c1.362-7.355,6.967-27.259,9.653-36.795c-1.444,0.287-3.265,0.86-4.699,1.004
		c-0.827,0.144-2.565,0.578-2.565-1.147c0-3.516,1.449-9.624,2.853-10.201c7.259-2.681,11.062-3.285,17.167-3.716
		c12.788-1.003,20.374,7.944,20.227,16.536C234.609,23.913,232.071,31.041,221.5,35.484z M206.607,13.879
		c2.229,0.661,4.408,1.238,5.358,1.529c0.746,0.283,2.051,0.86,1.9,2.39c-0.438,2.763-1.441,5.813-1.9,8.576
		c4.463,0.952,10.4-4.718,10.109-8.78C221.667,11.478,210.727,13.445,206.607,13.879z"/>
	<path fill="#FFFFFF" d="M253.245,53.4c-1.172,1.813-2.568,2.108-4.173,2.108c-2.396,0-5.528-0.87-7.471-2.395
		c-1.321-1.035-1.321-3.142-1.465-4.875c-0.943-14.949-1.826-29.854-1.382-44.757c0-1.099,1.238-2.425,2.556-2.568
		c2.976-0.283,6.106,0.287,8.651,1.469c1.293,0.497,1.668,2.103,1.82,3.341c0.584,8.963,0.135,18.779,0.135,27.567
		c3.57-9.225,8.006-21.028,11.801-30.848c0.414-1.095,2.18-1.529,3.416-1.385c2.822,0.291,5.953,0.899,8.433,2.425
		c1.095,0.716,1.095,2.676,0.661,3.85C269.663,24.503,263.485,36.72,253.245,53.4z"/>
	<path fill="#FFFFFF" d="M311.223,14.022c-7.428,0.434-14.33,0.434-22.33,0.143c1.591,0.521,2.826,1.243,4.003,1.525
		c3.552,1.313,1.651,3.723,0.712,7.291c4.23,0.147,9.4,0,13.469,0.291c3.283,0.287-0.805,12.497-2.832,12.725
		c-1.107,0.151-10.346-0.228-14.48-0.228c-0.87,2.407-1.614,4.96-2.393,7.521c5.233,0.111,10.172-0.461,14.758,0.293
		c1.947,0.281,0,12.039-3.285,12.039c-6.11,0.301-13.239,0-19.48,0c-2.561,0-5.82-5.354-6.275-7.553
		c-0.36-1.665,2.479-8.79,2.986-12.3c-0.508,0-1.529,0-2.244-0.286c-1.104-0.574,0.871-12.211,4.295-12.211
		c1.072,0,1.072,0,1.528,0.143c0.712-2.771,2.187-6.713,2.837-9.393c-0.65,0-4.074,0-3.947-1.163c0.449-3.7,1.232-7.422,3.129-10.62
		c0.379-1.039,2.562-1.326,3.51-1.326c9.537-0.574,20.359-0.574,28.438,0.144C317.043,1.348,312.249,14.022,311.223,14.022z"/>
</g>
<g>
	<path fill="#FFFFFF" d="M4.194,71.135H1.846v-1.271h0.36c0.547,0,0.998-0.044,1.354-0.132s0.639-0.198,0.85-0.33
		c0.211-0.133,0.365-0.276,0.461-0.434c0.096-0.154,0.158-0.301,0.188-0.438h2.045v8.496h-2.91V71.135z"/>
	<path fill="#FFFFFF" d="M13.179,71.135h-2.348v-1.271h0.36c0.547,0,0.998-0.044,1.354-0.132s0.639-0.198,0.85-0.33
		c0.211-0.133,0.365-0.276,0.461-0.434c0.096-0.154,0.158-0.301,0.188-0.438h2.045v8.496H13.18L13.179,71.135L13.179,71.135z"/>
	<path fill="#FFFFFF" d="M22.28,75.036c0,0.112,0.01,0.223,0.028,0.33c0.02,0.106,0.067,0.206,0.145,0.294
		c0.144,0.177,0.379,0.265,0.705,0.265c0.24,0,0.439-0.039,0.598-0.114c0.159-0.076,0.283-0.203,0.375-0.384
		c0.091-0.181,0.155-0.424,0.194-0.731c0.038-0.31,0.058-0.697,0.058-1.17h-0.029c-0.201,0.256-0.487,0.442-0.856,0.563
		c-0.37,0.119-0.813,0.181-1.332,0.181c-0.932,0-1.653-0.203-2.167-0.606s-0.771-1.081-0.771-2.034c0-0.424,0.058-0.822,0.173-1.199
		c0.115-0.377,0.321-0.703,0.619-0.984c0.297-0.278,0.708-0.502,1.231-0.666c0.522-0.163,1.188-0.245,1.994-0.245
		c0.902,0,1.62,0.096,2.152,0.288c0.533,0.191,0.941,0.468,1.225,0.828c0.284,0.359,0.465,0.795,0.547,1.308
		c0.081,0.513,0.122,1.084,0.122,1.717c0,0.712-0.035,1.347-0.107,1.901c-0.072,0.555-0.252,1.029-0.54,1.422
		s-0.716,0.689-1.282,0.895c-0.566,0.205-1.344,0.307-2.332,0.307c-1.104,0-1.966-0.168-2.585-0.504
		c-0.619-0.336-0.943-0.889-0.972-1.656h2.807V75.036z M23.23,72.779c0.211,0,0.387-0.032,0.525-0.102
		c0.14-0.068,0.247-0.164,0.324-0.289c0.077-0.123,0.13-0.268,0.158-0.432c0.029-0.164,0.044-0.342,0.044-0.533
		c0-0.504-0.075-0.9-0.224-1.188c-0.149-0.288-0.435-0.434-0.856-0.434c-0.413,0-0.694,0.131-0.843,0.391
		c-0.149,0.261-0.224,0.623-0.224,1.086c0,0.527,0.067,0.91,0.202,1.146C22.471,72.663,22.769,72.779,23.23,72.779z"/>
	<path fill="#FFFFFF" d="M32.345,68.459h2.909l1.065,6.096h0.043l1.268-6.096h2.707l1.383,6.096h0.028l1.037-6.096h2.793
		l-2.131,8.568h-3.226l-1.253-6.084h-0.043l-1.181,6.084H34.52L32.345,68.459z"/>
	<path fill="#FFFFFF" d="M45.521,74.868h2.707v2.159h-2.707V74.868z"/>
	<path fill="#FFFFFF" d="M53.744,71.364v-0.275c0-1.705,1.311-2.557,3.932-2.557c0.749,0,1.365,0.062,1.851,0.186
		c0.484,0.125,0.871,0.293,1.159,0.505c0.288,0.213,0.489,0.463,0.604,0.75c0.115,0.288,0.173,0.601,0.173,0.937
		c0,0.319-0.031,0.597-0.094,0.827c-0.063,0.231-0.165,0.451-0.31,0.654c-0.144,0.205-0.341,0.405-0.591,0.605
		c-0.249,0.199-0.562,0.425-0.936,0.673c-0.604,0.407-1.118,0.75-1.541,1.024c-0.422,0.275-0.705,0.535-0.85,0.773h4.335v1.561
		h-7.805c0-0.504,0.093-0.955,0.28-1.354c0.188-0.399,0.423-0.756,0.706-1.067c0.282-0.312,0.585-0.584,0.907-0.816
		c0.321-0.232,0.611-0.428,0.871-0.588c0.519-0.32,0.921-0.59,1.209-0.811c0.288-0.22,0.499-0.412,0.634-0.576
		c0.135-0.164,0.214-0.312,0.237-0.449c0.024-0.137,0.036-0.283,0.036-0.443c0-0.336-0.064-0.605-0.194-0.811
		c-0.129-0.204-0.4-0.307-0.813-0.307c-0.278,0-0.492,0.051-0.641,0.149c-0.149,0.101-0.259,0.229-0.331,0.385
		c-0.072,0.155-0.113,0.326-0.123,0.511c-0.009,0.184-0.014,0.354-0.014,0.516L53.744,71.364L53.744,71.364z"/>
	<path fill="#FFFFFF" d="M65.422,74.532c0,0.19,0.014,0.372,0.043,0.54c0.028,0.168,0.081,0.312,0.158,0.438
		c0.077,0.123,0.185,0.225,0.324,0.301c0.139,0.074,0.319,0.113,0.54,0.113c0.374,0,0.652-0.088,0.835-0.265
		c0.183-0.177,0.273-0.505,0.273-0.983c0-0.271-0.026-0.496-0.079-0.672c-0.053-0.176-0.137-0.314-0.252-0.414
		c-0.115-0.101-0.271-0.17-0.468-0.211c-0.197-0.039-0.439-0.061-0.728-0.061h-0.691v-1.271h0.807c0.48,0,0.807-0.107,0.979-0.324
		c0.173-0.215,0.259-0.531,0.259-0.947c0-0.336-0.076-0.582-0.23-0.737c-0.153-0.156-0.398-0.233-0.734-0.233
		c-0.326,0-0.595,0.084-0.806,0.252c-0.212,0.168-0.317,0.491-0.317,0.973h-2.592c0-0.848,0.312-1.473,0.937-1.872
		c0.623-0.416,1.617-0.624,2.98-0.624c1.219,0,2.116,0.184,2.692,0.553c0.576,0.367,0.864,0.963,0.864,1.787
		c0,0.432-0.149,0.803-0.446,1.109c-0.298,0.309-0.729,0.507-1.296,0.595V72.6c0.729,0.111,1.25,0.33,1.562,0.654
		c0.312,0.323,0.468,0.785,0.468,1.385c0,0.457-0.101,0.848-0.303,1.172c-0.201,0.322-0.475,0.588-0.82,0.791
		c-0.346,0.203-0.754,0.354-1.225,0.45c-0.47,0.097-0.974,0.144-1.512,0.144c-0.604,0-1.154-0.037-1.648-0.113
		c-0.495-0.075-0.92-0.212-1.274-0.407c-0.355-0.196-0.629-0.467-0.821-0.811c-0.192-0.345-0.288-0.787-0.288-1.332H65.422z"/>
	<path fill="#FFFFFF" d="M71.83,70.536h2.693v0.912h0.043c0.183-0.288,0.453-0.54,0.813-0.757c0.36-0.215,0.838-0.323,1.433-0.323
		h0.202c0.028,0,0.06,0.002,0.094,0.006c0.033,0.004,0.083,0.01,0.15,0.019v1.823c-0.134-0.016-0.264-0.026-0.389-0.034
		c-0.125-0.009-0.254-0.013-0.389-0.013c-0.566,0-1.018,0.088-1.354,0.265c-0.336,0.176-0.504,0.479-0.504,0.912v3.684H71.83V70.536
		z"/>
	<path fill="#FFFFFF" d="M82.774,76.236h-0.043c-0.058,0.111-0.135,0.224-0.23,0.336c-0.097,0.111-0.226,0.214-0.389,0.306
		c-0.164,0.093-0.358,0.168-0.584,0.229c-0.226,0.06-0.496,0.09-0.813,0.09c-0.471,0-0.886-0.062-1.245-0.187
		c-0.36-0.125-0.663-0.319-0.907-0.588c-0.245-0.269-0.43-0.614-0.555-1.039c-0.125-0.424-0.188-0.938-0.188-1.547
		c0-0.504,0.034-0.969,0.102-1.394c0.066-0.424,0.198-0.789,0.396-1.098c0.196-0.309,0.473-0.549,0.828-0.721
		c0.354-0.172,0.82-0.258,1.396-0.258c0.192,0,0.389,0.014,0.591,0.042c0.201,0.028,0.394,0.073,0.576,0.138
		s0.353,0.154,0.511,0.271c0.158,0.117,0.295,0.258,0.41,0.426h0.029V68.46h2.808v8.567h-2.692L82.774,76.236L82.774,76.236z
		 M82.716,73.824c0-0.288-0.01-0.557-0.029-0.805s-0.062-0.463-0.129-0.647s-0.168-0.328-0.303-0.433
		c-0.135-0.104-0.321-0.155-0.562-0.155c-0.26,0-0.459,0.047-0.598,0.139c-0.14,0.093-0.245,0.224-0.316,0.396
		c-0.072,0.173-0.115,0.379-0.13,0.619c-0.015,0.239-0.021,0.508-0.021,0.804c0,0.265,0.007,0.519,0.021,0.763
		s0.058,0.459,0.13,0.646c0.071,0.188,0.18,0.341,0.323,0.457c0.145,0.115,0.346,0.174,0.605,0.174c0.412,0,0.684-0.168,0.813-0.504
		C82.651,74.939,82.716,74.456,82.716,73.824z"/>
	<path fill="#FFFFFF" d="M94.035,74.412v0.3c0,0.168,0.019,0.32,0.058,0.457c0.038,0.136,0.103,0.256,0.194,0.358
		c0.091,0.104,0.218,0.185,0.382,0.24c0.163,0.057,0.374,0.084,0.633,0.084c0.26,0,0.473-0.029,0.642-0.09
		c0.167-0.061,0.302-0.139,0.402-0.234c0.102-0.096,0.171-0.205,0.209-0.329c0.038-0.124,0.058-0.246,0.058-0.365
		c0-0.231-0.077-0.422-0.23-0.569c-0.153-0.148-0.353-0.277-0.598-0.386c-0.244-0.106-0.527-0.201-0.85-0.28
		c-0.321-0.08-0.647-0.168-0.979-0.265s-0.655-0.207-0.973-0.33c-0.316-0.125-0.598-0.282-0.842-0.476
		c-0.245-0.19-0.444-0.426-0.598-0.701c-0.154-0.276-0.23-0.614-0.23-1.014c0-0.346,0.069-0.668,0.209-0.973
		c0.139-0.305,0.367-0.57,0.684-0.799c0.316-0.229,0.732-0.41,1.246-0.546c0.513-0.136,1.145-0.204,1.894-0.204
		c0.729,0,1.344,0.061,1.843,0.18c0.499,0.121,0.904,0.287,1.217,0.498c0.312,0.213,0.537,0.461,0.677,0.744
		c0.139,0.285,0.209,0.59,0.209,0.918v0.205h-2.794c0-0.416-0.081-0.717-0.244-0.9c-0.173-0.199-0.466-0.301-0.879-0.301
		c-0.777,0-1.166,0.309-1.166,0.926c0,0.304,0.132,0.539,0.396,0.707s0.593,0.312,0.986,0.433c0.393,0.12,0.818,0.237,1.274,0.354
		c0.456,0.116,0.881,0.269,1.274,0.456c0.394,0.188,0.723,0.437,0.986,0.744c0.265,0.308,0.396,0.713,0.396,1.218
		c0,0.977-0.37,1.674-1.109,2.094c-0.739,0.42-1.775,0.631-3.11,0.631c-0.537,0-1.051-0.032-1.54-0.096
		c-0.49-0.064-0.922-0.181-1.297-0.349c-0.374-0.168-0.672-0.396-0.893-0.685c-0.221-0.289-0.331-0.655-0.331-1.104v-0.552H94.035
		L94.035,74.412z"/>
	<path fill="#FFFFFF" d="M101.148,71.879h-1.152v-1.344h1.152v-1.908h2.808v1.908h1.296v1.344h-1.296v3.275
		c0,0.232,0.065,0.391,0.194,0.475c0.13,0.084,0.362,0.127,0.699,0.127c0.058,0,0.122-0.002,0.194-0.006
		c0.071-0.004,0.142-0.011,0.208-0.02v1.297c-0.547,0.048-1.085,0.072-1.612,0.072c-0.489,0-0.896-0.021-1.217-0.062
		c-0.322-0.039-0.576-0.121-0.764-0.246c-0.187-0.123-0.319-0.301-0.396-0.533c-0.077-0.231-0.115-0.536-0.115-0.911L101.148,71.879
		L101.148,71.879z"/>
	<path fill="#FFFFFF" d="M106.346,74.868h2.707v2.159h-2.707V74.868z"/>
	<path fill="#FFFFFF" d="M114.799,68.459h3.341l2.391,5.568h0.028v-5.568h2.693v8.568h-3.283l-2.534-5.904h-0.044v5.904h-2.592
		V68.459z"/>
	<path fill="#FFFFFF" d="M127.341,73.656l-3.125-5.196h3.211l1.383,3.181h0.028l1.426-3.181h3.11l-3.139,5.196v3.371h-2.895
		L127.341,73.656L127.341,73.656z"/>
	<path fill="#FFFFFF" d="M139.481,71.436c0-0.623-0.074-1.08-0.224-1.367c-0.148-0.289-0.463-0.434-0.942-0.434
		c-0.288,0-0.517,0.053-0.685,0.156s-0.295,0.273-0.382,0.51c-0.086,0.236-0.142,0.547-0.165,0.932
		c-0.024,0.384-0.036,0.855-0.036,1.416c0,0.64,0.012,1.166,0.036,1.578c0.023,0.412,0.081,0.736,0.173,0.978
		c0.091,0.239,0.223,0.407,0.396,0.504c0.173,0.097,0.413,0.146,0.72,0.146c0.26,0,0.469-0.054,0.627-0.156
		c0.158-0.104,0.28-0.25,0.367-0.438c0.086-0.188,0.144-0.416,0.173-0.685c0.028-0.27,0.043-0.569,0.043-0.905h2.809v0.299
		c0,0.466-0.058,0.894-0.173,1.285c-0.115,0.392-0.332,0.731-0.648,1.021c-0.316,0.289-0.759,0.514-1.325,0.678
		s-1.296,0.246-2.188,0.246c-0.932,0-1.663-0.114-2.196-0.342c-0.532-0.229-0.934-0.545-1.202-0.948
		c-0.269-0.403-0.439-0.88-0.511-1.429c-0.072-0.547-0.108-1.146-0.108-1.793c0-0.554,0.031-1.09,0.094-1.615
		c0.063-0.523,0.232-0.99,0.511-1.402s0.706-0.744,1.282-0.996c0.576-0.252,1.377-0.379,2.404-0.379
		c1.277,0,2.256,0.213,2.938,0.637s1.022,1.141,1.022,2.147v0.36h-2.81V71.436z"/>
	<path fill="#FFFFFF" d="M150.583,71.135h-2.348v-1.271h0.36c0.547,0,0.998-0.044,1.354-0.132c0.356-0.088,0.639-0.198,0.85-0.33
		c0.211-0.133,0.365-0.276,0.461-0.434c0.096-0.154,0.158-0.301,0.188-0.438h2.045v8.496h-2.909L150.583,71.135L150.583,71.135z"/>
	<path fill="#FFFFFF" d="M164.694,72.864c0,0.606-0.041,1.176-0.122,1.704c-0.081,0.527-0.259,0.984-0.532,1.373
		c-0.273,0.39-0.68,0.693-1.218,0.918c-0.536,0.225-1.257,0.336-2.159,0.336c-0.912,0-1.638-0.098-2.175-0.293
		c-0.538-0.196-0.943-0.479-1.217-0.848c-0.273-0.367-0.449-0.818-0.525-1.354c-0.077-0.535-0.115-1.148-0.115-1.836
		c0-0.607,0.041-1.177,0.122-1.704c0.082-0.528,0.26-0.985,0.533-1.374c0.273-0.388,0.677-0.693,1.208-0.918
		c0.533-0.224,1.256-0.336,2.168-0.336s1.637,0.098,2.174,0.294c0.539,0.195,0.943,0.479,1.218,0.847
		c0.272,0.367,0.448,0.821,0.524,1.361C164.657,71.574,164.694,72.184,164.694,72.864z M159.54,72.875
		c0,0.602,0.012,1.098,0.035,1.488c0.024,0.393,0.077,0.703,0.159,0.936c0.081,0.232,0.194,0.395,0.338,0.486
		c0.146,0.092,0.341,0.139,0.591,0.139c0.239,0,0.435-0.047,0.584-0.139c0.147-0.092,0.264-0.254,0.346-0.486
		c0.08-0.23,0.134-0.543,0.158-0.936c0.022-0.393,0.035-0.889,0.035-1.488c0-0.607-0.013-1.109-0.035-1.506
		c-0.024-0.396-0.078-0.709-0.158-0.941c-0.082-0.232-0.197-0.395-0.346-0.486c-0.149-0.092-0.345-0.139-0.584-0.139
		c-0.25,0-0.445,0.047-0.591,0.139c-0.144,0.093-0.257,0.254-0.338,0.486c-0.082,0.232-0.135,0.545-0.159,0.941
		C159.551,71.766,159.54,72.268,159.54,72.875z"/>
	<path fill="#FFFFFF" d="M173.679,72.864c0,0.606-0.041,1.176-0.122,1.704c-0.082,0.527-0.26,0.984-0.533,1.373
		c-0.273,0.39-0.679,0.693-1.217,0.918c-0.537,0.225-1.258,0.336-2.159,0.336c-0.912,0-1.638-0.098-2.175-0.293
		c-0.538-0.196-0.943-0.479-1.217-0.848c-0.273-0.367-0.449-0.818-0.525-1.354c-0.077-0.535-0.115-1.148-0.115-1.836
		c0-0.607,0.041-1.177,0.122-1.704c0.082-0.528,0.261-0.985,0.533-1.374c0.272-0.388,0.677-0.693,1.209-0.918
		c0.533-0.224,1.256-0.336,2.168-0.336c0.911,0,1.638,0.098,2.174,0.294c0.538,0.195,0.943,0.479,1.218,0.847
		c0.272,0.367,0.448,0.821,0.524,1.361C173.641,71.574,173.679,72.184,173.679,72.864z M168.524,72.875
		c0,0.602,0.014,1.098,0.036,1.488c0.024,0.393,0.077,0.703,0.159,0.936c0.08,0.232,0.193,0.395,0.338,0.486
		s0.341,0.139,0.591,0.139c0.239,0,0.435-0.047,0.583-0.139s0.264-0.254,0.346-0.486c0.082-0.23,0.135-0.543,0.158-0.936
		s0.036-0.889,0.036-1.488c0-0.607-0.013-1.109-0.036-1.506s-0.076-0.709-0.158-0.941s-0.197-0.395-0.346-0.486
		s-0.344-0.139-0.583-0.139c-0.25,0-0.446,0.047-0.591,0.139c-0.145,0.093-0.258,0.254-0.338,0.486
		c-0.082,0.232-0.135,0.545-0.159,0.941C168.538,71.766,168.524,72.268,168.524,72.875z"/>
	<path fill="#FFFFFF" d="M177.54,71.135h-2.348v-1.271h0.359c0.548,0,0.998-0.044,1.354-0.132s0.64-0.198,0.851-0.33
		c0.211-0.133,0.365-0.276,0.461-0.434c0.096-0.154,0.158-0.301,0.188-0.438h2.045v8.496h-2.908v-5.893H177.54z"/>
	<path fill="#FFFFFF" d="M186.525,71.135h-2.349v-1.271h0.361c0.547,0,0.998-0.044,1.354-0.132s0.639-0.198,0.85-0.33
		c0.211-0.133,0.365-0.276,0.461-0.434c0.096-0.154,0.158-0.301,0.188-0.438h2.045v8.496h-2.909L186.525,71.135L186.525,71.135z"/>
	<path fill="#FFFFFF" d="M197.396,68.292h2.246v8.903h-2.246V68.292z"/>
	<path fill="#FFFFFF" d="M205.588,71.364v-0.275c0-1.705,1.312-2.557,3.933-2.557c0.749,0,1.365,0.062,1.851,0.186
		c0.484,0.125,0.871,0.293,1.16,0.505c0.287,0.213,0.488,0.463,0.604,0.75c0.115,0.288,0.173,0.601,0.173,0.937
		c0,0.319-0.031,0.597-0.095,0.827c-0.062,0.231-0.164,0.451-0.31,0.654c-0.144,0.205-0.341,0.405-0.591,0.605
		c-0.249,0.199-0.562,0.425-0.936,0.673c-0.604,0.407-1.119,0.75-1.541,1.024c-0.422,0.275-0.705,0.535-0.851,0.773h4.335v1.561
		h-7.805c0-0.504,0.093-0.955,0.279-1.354c0.188-0.399,0.424-0.756,0.707-1.067c0.281-0.312,0.584-0.584,0.906-0.816
		c0.321-0.232,0.611-0.428,0.871-0.588c0.52-0.32,0.922-0.59,1.209-0.811c0.288-0.22,0.499-0.412,0.635-0.576
		c0.135-0.164,0.213-0.312,0.236-0.449s0.036-0.283,0.036-0.443c0-0.336-0.063-0.605-0.194-0.811
		c-0.129-0.204-0.399-0.307-0.812-0.307c-0.278,0-0.492,0.051-0.641,0.149c-0.149,0.101-0.26,0.229-0.332,0.385
		c-0.071,0.155-0.112,0.326-0.123,0.511c-0.008,0.184-0.014,0.354-0.014,0.516L205.588,71.364L205.588,71.364z"/>
	<path fill="#FFFFFF" d="M217.311,71.135h-2.348v-1.271h0.359c0.547,0,0.998-0.044,1.354-0.132c0.357-0.088,0.64-0.198,0.851-0.33
		c0.211-0.133,0.365-0.276,0.461-0.434c0.097-0.154,0.158-0.301,0.188-0.438h2.045v8.496h-2.909L217.311,71.135L217.311,71.135z"/>
	<path fill="#FFFFFF" d="M223.561,71.364v-0.275c0-1.705,1.311-2.557,3.932-2.557c0.75,0,1.365,0.062,1.852,0.186
		c0.484,0.125,0.871,0.293,1.158,0.505c0.289,0.213,0.49,0.463,0.604,0.75c0.115,0.288,0.173,0.601,0.173,0.937
		c0,0.319-0.031,0.597-0.094,0.827c-0.062,0.231-0.165,0.451-0.311,0.654c-0.144,0.205-0.34,0.405-0.59,0.605
		c-0.25,0.199-0.562,0.425-0.937,0.673c-0.604,0.407-1.118,0.75-1.541,1.024c-0.422,0.275-0.705,0.535-0.851,0.773h4.336v1.561
		h-7.806c0-0.504,0.093-0.955,0.28-1.354s0.423-0.756,0.706-1.067c0.282-0.312,0.585-0.584,0.907-0.816
		c0.32-0.232,0.611-0.428,0.871-0.588c0.519-0.32,0.92-0.59,1.209-0.811c0.287-0.22,0.498-0.412,0.634-0.576
		c0.135-0.164,0.214-0.312,0.237-0.449s0.035-0.283,0.035-0.443c0-0.336-0.063-0.605-0.193-0.811
		c-0.129-0.204-0.4-0.307-0.813-0.307c-0.278,0-0.491,0.051-0.641,0.149c-0.149,0.101-0.259,0.229-0.331,0.385
		s-0.113,0.326-0.123,0.511c-0.01,0.184-0.014,0.354-0.014,0.516L223.561,71.364L223.561,71.364z"/>
	<path fill="#FFFFFF" d="M232.777,74.868h2.707v2.159h-2.707V74.868z"/>
	<path fill="#FFFFFF" d="M239.89,75.036c0,0.112,0.01,0.223,0.028,0.33c0.02,0.106,0.066,0.206,0.145,0.294
		c0.145,0.177,0.379,0.265,0.705,0.265c0.24,0,0.439-0.039,0.598-0.114c0.159-0.076,0.283-0.203,0.375-0.384
		s0.155-0.424,0.194-0.731c0.038-0.31,0.058-0.697,0.058-1.17h-0.029c-0.2,0.256-0.486,0.442-0.855,0.563
		c-0.37,0.119-0.812,0.181-1.332,0.181c-0.932,0-1.652-0.203-2.167-0.606c-0.514-0.403-0.771-1.081-0.771-2.034
		c0-0.424,0.058-0.822,0.173-1.199c0.114-0.377,0.321-0.703,0.618-0.984c0.297-0.278,0.709-0.502,1.231-0.666
		c0.522-0.163,1.188-0.245,1.994-0.245c0.901,0,1.62,0.096,2.151,0.288c0.533,0.191,0.941,0.468,1.226,0.828
		c0.284,0.359,0.465,0.795,0.547,1.308c0.081,0.513,0.122,1.084,0.122,1.717c0,0.712-0.035,1.347-0.107,1.901
		c-0.071,0.555-0.252,1.029-0.539,1.422c-0.289,0.393-0.717,0.689-1.282,0.895s-1.345,0.307-2.332,0.307
		c-1.104,0-1.966-0.168-2.585-0.504s-0.943-0.889-0.973-1.656h2.808V75.036z M240.84,72.779c0.211,0,0.387-0.032,0.525-0.102
		c0.139-0.068,0.246-0.164,0.323-0.289c0.077-0.123,0.13-0.268,0.158-0.432s0.044-0.342,0.044-0.533c0-0.504-0.075-0.9-0.225-1.188
		c-0.148-0.288-0.435-0.434-0.855-0.434c-0.413,0-0.693,0.131-0.844,0.391c-0.148,0.261-0.223,0.623-0.223,1.086
		c0,0.527,0.066,0.91,0.201,1.146C240.083,72.663,240.379,72.779,240.84,72.779z"/>
	<path fill="#FFFFFF" d="M246.024,71.364v-0.275c0-1.705,1.311-2.557,3.932-2.557c0.75,0,1.365,0.062,1.852,0.186
		c0.484,0.125,0.871,0.293,1.158,0.505c0.289,0.213,0.49,0.463,0.604,0.75c0.115,0.288,0.173,0.601,0.173,0.937
		c0,0.319-0.031,0.597-0.094,0.827c-0.062,0.231-0.165,0.451-0.311,0.654c-0.144,0.205-0.34,0.405-0.59,0.605
		c-0.25,0.199-0.562,0.425-0.937,0.673c-0.604,0.407-1.118,0.75-1.541,1.024c-0.422,0.275-0.705,0.535-0.851,0.773h4.336v1.561
		h-7.805c0-0.504,0.092-0.955,0.279-1.354s0.423-0.756,0.706-1.067c0.282-0.312,0.585-0.584,0.907-0.816
		c0.32-0.232,0.611-0.428,0.871-0.588c0.519-0.32,0.921-0.59,1.209-0.811c0.287-0.22,0.498-0.412,0.634-0.576
		c0.135-0.164,0.214-0.312,0.237-0.449s0.035-0.283,0.035-0.443c0-0.336-0.063-0.605-0.193-0.811
		c-0.129-0.204-0.4-0.307-0.812-0.307c-0.279,0-0.492,0.051-0.642,0.149c-0.149,0.101-0.259,0.229-0.331,0.385
		s-0.113,0.326-0.123,0.511c-0.009,0.184-0.014,0.354-0.014,0.516L246.024,71.364L246.024,71.364z"/>
	<path fill="#FFFFFF" d="M257.862,75.036c0,0.112,0.01,0.223,0.028,0.33c0.021,0.106,0.067,0.206,0.146,0.294
		c0.144,0.177,0.379,0.265,0.705,0.265c0.239,0,0.438-0.039,0.598-0.114c0.158-0.076,0.283-0.203,0.375-0.384
		c0.091-0.181,0.154-0.424,0.193-0.731c0.038-0.31,0.059-0.697,0.059-1.17h-0.029c-0.201,0.256-0.486,0.442-0.855,0.563
		c-0.371,0.119-0.813,0.181-1.332,0.181c-0.933,0-1.653-0.203-2.168-0.606c-0.514-0.403-0.771-1.081-0.771-2.034
		c0-0.424,0.058-0.822,0.173-1.199s0.321-0.703,0.619-0.984c0.297-0.278,0.708-0.502,1.23-0.666
		c0.522-0.163,1.188-0.245,1.994-0.245c0.902,0,1.62,0.096,2.152,0.288c0.533,0.191,0.941,0.468,1.225,0.828
		c0.284,0.359,0.465,0.795,0.547,1.308s0.123,1.084,0.123,1.717c0,0.712-0.035,1.347-0.107,1.901s-0.252,1.029-0.54,1.422
		s-0.716,0.689-1.282,0.895s-1.344,0.307-2.332,0.307c-1.104,0-1.966-0.168-2.585-0.504c-0.618-0.336-0.942-0.889-0.972-1.656h2.807
		V75.036z M258.812,72.779c0.211,0,0.388-0.032,0.524-0.102c0.141-0.068,0.248-0.164,0.324-0.289
		c0.077-0.123,0.131-0.268,0.158-0.432c0.029-0.164,0.044-0.342,0.044-0.533c0-0.504-0.075-0.9-0.224-1.188
		c-0.148-0.288-0.436-0.434-0.855-0.434c-0.414,0-0.695,0.131-0.844,0.391c-0.148,0.261-0.225,0.623-0.225,1.086
		c0,0.527,0.068,0.91,0.203,1.146C258.053,72.663,258.351,72.779,258.812,72.779z"/>
	<path fill="#FFFFFF" d="M264.226,74.868h2.707v2.159h-2.707V74.868z"/>
	<path fill="#FFFFFF" d="M271.181,74.532c0,0.19,0.014,0.372,0.043,0.54c0.028,0.168,0.081,0.312,0.157,0.438
		c0.078,0.123,0.186,0.225,0.324,0.301c0.14,0.074,0.319,0.113,0.541,0.113c0.373,0,0.651-0.088,0.834-0.265
		c0.184-0.177,0.273-0.505,0.273-0.983c0-0.271-0.025-0.496-0.079-0.672c-0.053-0.176-0.137-0.314-0.252-0.414
		c-0.114-0.101-0.271-0.17-0.468-0.211c-0.197-0.039-0.439-0.061-0.729-0.061h-0.691v-1.271h0.808c0.479,0,0.808-0.107,0.979-0.324
		c0.173-0.215,0.259-0.531,0.259-0.947c0-0.336-0.076-0.582-0.229-0.737c-0.154-0.156-0.398-0.233-0.734-0.233
		c-0.326,0-0.596,0.084-0.807,0.252s-0.316,0.491-0.316,0.973h-2.592c0-0.848,0.312-1.473,0.937-1.872
		c0.623-0.416,1.617-0.624,2.979-0.624c1.22,0,2.117,0.184,2.692,0.553c0.576,0.367,0.864,0.963,0.864,1.787
		c0,0.432-0.148,0.803-0.446,1.109c-0.298,0.309-0.729,0.507-1.296,0.595V72.6c0.729,0.111,1.25,0.33,1.562,0.654
		c0.312,0.323,0.468,0.785,0.468,1.385c0,0.457-0.101,0.848-0.304,1.172c-0.201,0.322-0.475,0.588-0.819,0.791
		c-0.347,0.203-0.755,0.354-1.226,0.45c-0.47,0.097-0.974,0.144-1.512,0.144c-0.604,0-1.154-0.037-1.648-0.113
		c-0.494-0.075-0.92-0.212-1.273-0.407c-0.355-0.196-0.629-0.467-0.82-0.811c-0.193-0.345-0.289-0.787-0.289-1.332H271.181z"/>
	<path fill="#FFFFFF" d="M282.284,70.704c0-0.119-0.011-0.233-0.029-0.343c-0.02-0.106-0.066-0.205-0.145-0.293
		c-0.145-0.176-0.379-0.266-0.705-0.266c-0.24,0-0.439,0.039-0.598,0.115c-0.159,0.076-0.283,0.203-0.374,0.383
		c-0.093,0.182-0.156,0.428-0.195,0.738c-0.038,0.312-0.058,0.7-0.058,1.164h0.029c0.201-0.256,0.486-0.443,0.855-0.564
		c0.37-0.119,0.812-0.18,1.332-0.18c0.932,0,1.654,0.203,2.168,0.605c0.514,0.403,0.77,1.082,0.77,2.035
		c0,0.424-0.058,0.823-0.172,1.198c-0.115,0.377-0.322,0.705-0.619,0.984c-0.297,0.28-0.709,0.502-1.23,0.666
		c-0.523,0.163-1.188,0.245-1.995,0.245c-0.901,0-1.62-0.096-2.151-0.287c-0.533-0.192-0.941-0.469-1.225-0.828
		c-0.283-0.36-0.466-0.794-0.548-1.303c-0.081-0.508-0.122-1.082-0.122-1.723c0-0.703,0.036-1.336,0.107-1.896
		c0.072-0.56,0.252-1.036,0.539-1.429c0.289-0.392,0.717-0.689,1.283-0.894c0.565-0.205,1.344-0.308,2.332-0.308
		c1.094,0,1.953,0.171,2.577,0.511s0.95,0.896,0.979,1.662h-2.807V70.704z M281.362,75.924c0.412,0,0.693-0.131,0.842-0.391
		c0.149-0.26,0.225-0.621,0.225-1.086c0-0.527-0.067-0.91-0.202-1.146c-0.134-0.234-0.433-0.354-0.894-0.354
		c-0.221,0-0.397,0.033-0.531,0.102c-0.135,0.068-0.24,0.164-0.317,0.289c-0.077,0.123-0.13,0.268-0.157,0.432
		c-0.029,0.164-0.043,0.342-0.043,0.533c0,0.504,0.073,0.9,0.223,1.188C280.654,75.779,280.939,75.924,281.362,75.924z"/>
	<path fill="#FFFFFF" d="M286.17,73.824l3.976-5.124h3.11v5.124h1.152v1.56h-1.152v1.646h-2.692v-1.646h-4.394V73.824z
		 M290.564,70.98h-0.028l-2.06,2.844h2.088V70.98L290.564,70.98z"/>
	<path fill="#FFFFFF" d="M298.066,74.532v0.312c0,0.145,0.015,0.279,0.043,0.408c0.029,0.127,0.082,0.241,0.158,0.342
		c0.077,0.1,0.183,0.18,0.317,0.24c0.133,0.061,0.307,0.09,0.519,0.09c0.461,0,0.763-0.158,0.907-0.475
		c0.144-0.316,0.216-0.766,0.216-1.35c0-0.504-0.084-0.877-0.252-1.117c-0.168-0.239-0.438-0.359-0.813-0.359
		c-0.279,0-0.517,0.051-0.713,0.15c-0.197,0.1-0.318,0.272-0.367,0.521h-2.692l0.375-4.596h6.868v1.561h-4.637l-0.129,1.597
		l0.027,0.022c0.087-0.104,0.201-0.196,0.346-0.28s0.307-0.156,0.489-0.218c0.183-0.06,0.377-0.104,0.583-0.131
		c0.207-0.028,0.406-0.043,0.598-0.043c1.114,0,1.93,0.233,2.448,0.702c0.519,0.468,0.777,1.218,0.777,2.25
		c0,1.08-0.328,1.855-0.986,2.328c-0.657,0.472-1.668,0.707-3.03,0.707c-1.314,0-2.285-0.203-2.908-0.61
		c-0.625-0.408-0.938-0.987-0.938-1.74v-0.312L298.066,74.532L298.066,74.532z"/>
	<path fill="#FFFFFF" d="M1.775,86.459h4.262l1.513,5.628h0.043l1.469-5.628h4.19v8.568H10.56v-6.672h-0.03l-1.887,6.672H6.397
		L4.41,88.355H4.367v6.672H1.775V86.459z"/>
	<path fill="#FFFFFF" d="M18.925,95.195c-0.854,0-1.536-0.086-2.045-0.258c-0.509-0.172-0.897-0.41-1.167-0.713
		c-0.269-0.306-0.443-0.662-0.525-1.074c-0.081-0.412-0.122-0.862-0.122-1.351c0-0.487,0.05-0.94,0.151-1.356
		c0.101-0.416,0.29-0.777,0.568-1.086c0.278-0.308,0.67-0.549,1.174-0.727c0.504-0.176,1.159-0.264,1.966-0.264
		c0.845,0,1.521,0.086,2.03,0.258c0.509,0.173,0.899,0.41,1.174,0.714c0.273,0.306,0.451,0.662,0.532,1.074
		c0.082,0.412,0.123,0.862,0.123,1.351c0,0.487-0.051,0.939-0.151,1.355c-0.102,0.416-0.291,0.777-0.569,1.086
		s-0.669,0.551-1.174,0.727C20.386,95.107,19.731,95.195,18.925,95.195z M19.976,91.788c0-0.399-0.015-0.737-0.043-1.015
		c-0.029-0.275-0.079-0.498-0.151-0.666c-0.072-0.168-0.178-0.287-0.316-0.359c-0.14-0.071-0.314-0.107-0.526-0.107
		c-0.201,0-0.372,0.039-0.511,0.113c-0.14,0.076-0.25,0.198-0.331,0.366c-0.082,0.168-0.14,0.389-0.173,0.659
		c-0.034,0.272-0.051,0.604-0.051,0.996c0,0.4,0.017,0.736,0.051,1.009c0.033,0.272,0.091,0.491,0.173,0.659
		c0.081,0.168,0.191,0.291,0.331,0.367c0.139,0.075,0.31,0.113,0.511,0.113c0.212,0,0.387-0.035,0.526-0.107
		c0.139-0.072,0.244-0.192,0.316-0.36c0.072-0.168,0.122-0.388,0.151-0.66C19.961,92.523,19.976,92.188,19.976,91.788z"/>
	<path fill="#FFFFFF" d="M24.382,88.536h2.693v0.769h0.043c0.191-0.287,0.484-0.517,0.878-0.685s0.85-0.252,1.368-0.252
		c0.797,0,1.401,0.146,1.814,0.433c0.413,0.287,0.619,0.743,0.619,1.367v4.859h-2.808V90.6c0-0.231-0.067-0.414-0.202-0.545
		c-0.134-0.134-0.336-0.199-0.604-0.199s-0.504,0.074-0.705,0.223c-0.202,0.148-0.303,0.382-0.303,0.701v4.248h-2.794L24.382,88.536
		L24.382,88.536z"/>
	<path fill="#FFFFFF" d="M33.527,90.744h5.212v1.632h-5.212V90.744z"/>
	<path fill="#FFFFFF" d="M40.582,86.459h7.143v1.633h-4.233v1.717h3.975v1.631h-3.975v3.588h-2.909L40.582,86.459L40.582,86.459z"/>
	<path fill="#FFFFFF" d="M49.135,88.536h2.693v0.912h0.043c0.183-0.288,0.453-0.54,0.813-0.757c0.36-0.215,0.838-0.323,1.433-0.323
		h0.202c0.028,0,0.06,0.002,0.094,0.006c0.033,0.005,0.083,0.011,0.15,0.019v1.824C54.43,90.2,54.3,90.188,54.175,90.18
		s-0.254-0.013-0.389-0.013c-0.566,0-1.018,0.089-1.354,0.265s-0.504,0.479-0.504,0.912v3.684h-2.794L49.135,88.536L49.135,88.536z"
		/>
	<path fill="#FFFFFF" d="M55.96,86.364h2.794v1.487H55.96V86.364z M55.96,88.536h2.794v6.491H55.96V88.536z"/>
	<path fill="#FFFFFF" d="M68.331,93.036c0,0.112,0.01,0.223,0.028,0.33c0.02,0.108,0.067,0.206,0.145,0.294
		c0.144,0.176,0.379,0.265,0.705,0.265c0.24,0,0.439-0.038,0.598-0.114c0.159-0.076,0.283-0.203,0.375-0.384
		c0.091-0.181,0.155-0.425,0.194-0.731c0.038-0.309,0.058-0.698,0.058-1.17h-0.029c-0.201,0.256-0.487,0.443-0.856,0.562
		c-0.37,0.12-0.813,0.182-1.332,0.182c-0.932,0-1.653-0.203-2.167-0.606c-0.514-0.403-0.771-1.082-0.771-2.034
		c0-0.424,0.058-0.822,0.173-1.199c0.115-0.375,0.321-0.703,0.619-0.984c0.297-0.279,0.708-0.502,1.231-0.666
		c0.522-0.163,1.188-0.245,1.994-0.245c0.902,0,1.62,0.096,2.152,0.288c0.533,0.191,0.941,0.468,1.225,0.828
		c0.284,0.359,0.465,0.795,0.547,1.308c0.081,0.513,0.122,1.084,0.122,1.716c0,0.713-0.035,1.348-0.107,1.902
		c-0.072,0.557-0.252,1.029-0.54,1.422c-0.288,0.393-0.716,0.689-1.282,0.895s-1.344,0.307-2.332,0.307
		c-1.104,0-1.966-0.168-2.585-0.504s-0.943-0.889-0.972-1.656h2.807V93.036z M69.281,90.779c0.211,0,0.387-0.033,0.525-0.102
		c0.14-0.068,0.247-0.164,0.324-0.287c0.077-0.125,0.13-0.27,0.158-0.434c0.029-0.163,0.044-0.342,0.044-0.533
		c0-0.505-0.075-0.9-0.224-1.188c-0.149-0.288-0.435-0.432-0.856-0.432c-0.413,0-0.694,0.129-0.843,0.389
		c-0.149,0.261-0.224,0.623-0.224,1.086c0,0.529,0.067,0.91,0.202,1.146C68.522,90.662,68.82,90.779,69.281,90.779z"/>
	<path fill="#FFFFFF" d="M74.882,90.527c0.02-0.455,0.118-0.819,0.296-1.092c0.177-0.271,0.434-0.487,0.77-0.647
		c0.336-0.16,0.706-0.271,1.109-0.33c0.403-0.06,0.902-0.09,1.497-0.09c1.143,0,1.98,0.146,2.514,0.438
		c0.532,0.291,0.799,0.785,0.799,1.48v3.336c0,0.248,0.015,0.509,0.043,0.779c0.029,0.272,0.125,0.48,0.288,0.625h-2.692
		c-0.067-0.112-0.108-0.232-0.123-0.36c-0.014-0.128-0.026-0.256-0.036-0.384h-0.028c-0.202,0.287-0.497,0.512-0.886,0.672
		c-0.389,0.16-0.828,0.24-1.317,0.24c-0.797,0-1.411-0.154-1.844-0.463c-0.432-0.308-0.647-0.813-0.647-1.518
		c0-0.385,0.105-0.723,0.316-1.015s0.49-0.507,0.836-0.642c0.172-0.072,0.364-0.133,0.575-0.182
		c0.211-0.048,0.428-0.092,0.648-0.132s0.441-0.075,0.662-0.106c0.221-0.033,0.427-0.068,0.619-0.109
		c0.211-0.039,0.382-0.077,0.512-0.113c0.129-0.036,0.23-0.079,0.302-0.132c0.072-0.052,0.12-0.118,0.145-0.198
		c0.023-0.079,0.036-0.18,0.036-0.3c0-0.199-0.07-0.356-0.209-0.474c-0.14-0.117-0.362-0.174-0.67-0.174
		c-0.394,0-0.66,0.077-0.799,0.232c-0.14,0.156-0.214,0.374-0.224,0.654h-2.492V90.527z M77.331,93.023
		c0,0.256,0.067,0.459,0.201,0.605c0.135,0.148,0.336,0.223,0.605,0.223c0.307,0,0.571-0.063,0.792-0.191
		c0.221-0.128,0.331-0.359,0.331-0.696c0-0.271,0.002-0.495,0.007-0.672c0.005-0.176,0.008-0.332,0.008-0.468
		c-0.222,0.08-0.411,0.145-0.569,0.191s-0.298,0.086-0.417,0.113c-0.12,0.028-0.222,0.057-0.303,0.084
		c-0.082,0.028-0.156,0.059-0.224,0.092c-0.153,0.079-0.264,0.174-0.331,0.28C77.364,92.693,77.331,92.84,77.331,93.023z"/>
	<path fill="#FFFFFF" d="M84.026,88.536h2.692v0.769h0.043c0.192-0.287,0.485-0.517,0.879-0.685s0.85-0.252,1.368-0.252
		c0.201,0,0.415,0.011,0.641,0.03c0.226,0.019,0.441,0.063,0.647,0.131c0.207,0.068,0.398,0.169,0.576,0.301
		c0.178,0.132,0.319,0.311,0.425,0.534c0.326-0.376,0.665-0.636,1.016-0.78s0.784-0.216,1.303-0.216
		c0.797,0,1.401,0.146,1.814,0.433c0.413,0.287,0.619,0.743,0.619,1.367v4.859h-2.793V90.6c0-0.231-0.067-0.414-0.202-0.545
		c-0.135-0.134-0.341-0.199-0.619-0.199c-0.269,0-0.502,0.074-0.698,0.223c-0.197,0.148-0.295,0.382-0.295,0.701v4.248h-2.809V90.6
		c0-0.231-0.067-0.414-0.201-0.545c-0.135-0.134-0.336-0.199-0.604-0.199c-0.27,0-0.505,0.074-0.706,0.223s-0.303,0.382-0.303,0.701
		v4.248h-2.793V88.536z"/>
	<path fill="#FFFFFF" d="M97.865,90.744h5.212v1.632h-5.212V90.744z"/>
	<path fill="#FFFFFF" d="M108.52,86.532c0.672,0,1.245,0.052,1.721,0.155c0.475,0.104,0.858,0.252,1.151,0.443
		c0.293,0.192,0.507,0.424,0.642,0.689c0.134,0.27,0.201,0.57,0.201,0.906c0,0.479-0.146,0.877-0.439,1.188
		s-0.723,0.513-1.288,0.601v0.023c0.662,0.072,1.173,0.279,1.533,0.624s0.54,0.805,0.54,1.38c0,0.359-0.056,0.7-0.166,1.021
		c-0.11,0.32-0.314,0.602-0.611,0.846c-0.298,0.244-0.711,0.438-1.238,0.576c-0.528,0.14-1.21,0.209-2.045,0.209
		c-0.836,0-1.518-0.065-2.045-0.197c-0.528-0.132-0.941-0.314-1.238-0.553c-0.298-0.235-0.502-0.516-0.612-0.84
		c-0.11-0.323-0.166-0.678-0.166-1.062c0-0.239,0.039-0.472,0.115-0.694c0.077-0.226,0.194-0.428,0.354-0.606
		c0.158-0.181,0.364-0.332,0.619-0.456c0.254-0.124,0.563-0.206,0.929-0.246v-0.023c-0.519-0.097-0.927-0.291-1.225-0.588
		c-0.297-0.296-0.446-0.695-0.446-1.199c0-0.32,0.067-0.614,0.202-0.883c0.134-0.269,0.348-0.5,0.641-0.695
		c0.293-0.196,0.674-0.348,1.145-0.457C107.265,86.588,107.838,86.532,108.52,86.532z M108.52,91.236
		c-0.23,0-0.421,0.033-0.569,0.102s-0.267,0.162-0.353,0.282c-0.087,0.12-0.146,0.261-0.18,0.42
		c-0.034,0.16-0.051,0.336-0.051,0.528c0,0.191,0.017,0.369,0.051,0.533c0.033,0.164,0.093,0.307,0.18,0.426
		c0.086,0.121,0.204,0.217,0.353,0.289c0.149,0.072,0.339,0.107,0.569,0.107s0.42-0.035,0.568-0.107s0.267-0.168,0.353-0.289
		c0.087-0.119,0.146-0.262,0.181-0.426c0.033-0.164,0.05-0.342,0.05-0.533c0-0.192-0.017-0.368-0.05-0.528
		c-0.034-0.159-0.094-0.3-0.181-0.42c-0.086-0.12-0.204-0.214-0.353-0.282C108.94,91.27,108.75,91.236,108.52,91.236z
		 M108.52,89.963c0.336,0,0.59-0.077,0.763-0.232c0.173-0.156,0.26-0.442,0.26-0.858c0-0.296-0.075-0.548-0.224-0.756
		s-0.415-0.312-0.799-0.312c-0.192,0-0.355,0.026-0.49,0.084c-0.135,0.055-0.24,0.131-0.316,0.228
		c-0.077,0.096-0.132,0.21-0.166,0.342c-0.033,0.132-0.05,0.271-0.05,0.414c0,0.416,0.086,0.702,0.259,0.858
		C107.93,89.886,108.183,89.963,108.52,89.963z"/>
	<path fill="#FFFFFF" d="M114.15,88.536h2.693v0.792h0.043c0.048-0.104,0.122-0.214,0.223-0.33c0.102-0.115,0.233-0.221,0.396-0.312
		s0.36-0.168,0.591-0.229c0.229-0.061,0.499-0.09,0.806-0.09c0.471,0,0.884,0.062,1.238,0.188c0.355,0.123,0.655,0.318,0.9,0.588
		c0.245,0.268,0.43,0.613,0.555,1.037c0.124,0.424,0.187,0.939,0.187,1.549c0,0.504-0.033,0.967-0.101,1.392
		c-0.067,0.425-0.199,0.79-0.396,1.099c-0.197,0.309-0.474,0.549-0.828,0.721c-0.355,0.172-0.816,0.258-1.383,0.258
		c-0.384,0-0.771-0.059-1.159-0.174c-0.388-0.116-0.698-0.351-0.929-0.703h-0.043v2.82h-2.794L114.15,88.536L114.15,88.536z
		 M116.901,91.74c0,0.287,0.009,0.557,0.028,0.804c0.02,0.248,0.062,0.465,0.13,0.647c0.068,0.184,0.168,0.328,0.303,0.433
		c0.134,0.104,0.321,0.155,0.562,0.155c0.249,0,0.446-0.045,0.59-0.137c0.145-0.093,0.252-0.226,0.324-0.396
		c0.072-0.171,0.115-0.378,0.13-0.618c0.014-0.239,0.021-0.508,0.021-0.804c0-0.264-0.01-0.518-0.029-0.762
		s-0.064-0.461-0.137-0.648c-0.072-0.188-0.18-0.34-0.324-0.456c-0.144-0.115-0.345-0.174-0.604-0.174
		c-0.413,0-0.682,0.168-0.807,0.504S116.901,91.107,116.901,91.74z"/>
	<path fill="#FFFFFF" d="M123.568,88.536h2.692v0.769h0.043c0.192-0.287,0.485-0.517,0.879-0.685s0.85-0.252,1.368-0.252
		c0.201,0,0.415,0.011,0.641,0.03c0.226,0.019,0.441,0.063,0.647,0.131c0.207,0.068,0.398,0.169,0.576,0.301
		c0.178,0.132,0.319,0.311,0.425,0.534c0.326-0.376,0.665-0.636,1.016-0.78s0.784-0.216,1.303-0.216
		c0.797,0,1.401,0.146,1.814,0.433c0.413,0.287,0.619,0.743,0.619,1.367v4.859h-2.793V90.6c0-0.231-0.067-0.414-0.202-0.545
		c-0.135-0.134-0.341-0.199-0.619-0.199c-0.269,0-0.502,0.074-0.698,0.223c-0.197,0.148-0.295,0.382-0.295,0.701v4.248h-2.809V90.6
		c0-0.231-0.067-0.414-0.201-0.545c-0.135-0.134-0.336-0.199-0.604-0.199c-0.27,0-0.505,0.074-0.706,0.223s-0.303,0.382-0.303,0.701
		v4.248h-2.793V88.536L123.568,88.536z"/>
	<path fill="#FFFFFF" d="M142.46,86.292h2.246v8.903h-2.246V86.292z"/>
	<path fill="#FFFFFF" d="M154.009,92.412v0.3c0,0.168,0.019,0.32,0.058,0.456c0.038,0.137,0.103,0.257,0.194,0.359
		c0.091,0.104,0.218,0.186,0.382,0.24c0.163,0.057,0.374,0.084,0.633,0.084c0.26,0,0.473-0.029,0.642-0.09
		c0.167-0.061,0.302-0.139,0.402-0.234c0.102-0.096,0.171-0.205,0.209-0.329c0.038-0.124,0.058-0.246,0.058-0.366
		c0-0.23-0.077-0.422-0.23-0.568c-0.153-0.148-0.353-0.277-0.598-0.386c-0.244-0.106-0.527-0.201-0.85-0.28
		c-0.321-0.08-0.647-0.168-0.979-0.266c-0.332-0.096-0.655-0.206-0.973-0.33c-0.316-0.124-0.598-0.281-0.842-0.475
		c-0.245-0.191-0.444-0.426-0.598-0.701c-0.154-0.275-0.23-0.613-0.23-1.014c0-0.345,0.069-0.668,0.209-0.974
		c0.139-0.304,0.367-0.569,0.684-0.798c0.316-0.229,0.732-0.409,1.246-0.546c0.513-0.136,1.145-0.204,1.894-0.204
		c0.729,0,1.344,0.061,1.843,0.182c0.499,0.119,0.904,0.285,1.216,0.498c0.312,0.211,0.537,0.459,0.678,0.742
		c0.139,0.284,0.209,0.592,0.209,0.918v0.204h-2.794c0-0.415-0.081-0.716-0.244-0.899c-0.173-0.199-0.466-0.3-0.879-0.3
		c-0.777,0-1.166,0.308-1.166,0.925c0,0.304,0.132,0.539,0.396,0.707c0.264,0.168,0.593,0.312,0.986,0.433s0.818,0.237,1.274,0.354
		c0.456,0.114,0.881,0.268,1.274,0.455c0.394,0.188,0.724,0.436,0.986,0.743c0.265,0.31,0.396,0.715,0.396,1.22
		c0,0.976-0.369,1.674-1.109,2.094c-0.738,0.42-1.774,0.629-3.109,0.629c-0.537,0-1.051-0.031-1.54-0.096
		c-0.49-0.063-0.922-0.181-1.297-0.349c-0.374-0.168-0.672-0.396-0.893-0.685c-0.221-0.287-0.331-0.655-0.331-1.104v-0.552
		L154.009,92.412L154.009,92.412z"/>
	<path fill="#FFFFFF" d="M161.064,90.527c0.021-0.455,0.118-0.819,0.296-1.092c0.178-0.271,0.434-0.487,0.77-0.647
		s0.707-0.271,1.109-0.33c0.403-0.06,0.902-0.09,1.497-0.09c1.144,0,1.979,0.146,2.515,0.438c0.531,0.291,0.799,0.785,0.799,1.48
		v3.336c0,0.248,0.015,0.509,0.043,0.779c0.029,0.272,0.125,0.48,0.287,0.625h-2.691c-0.066-0.112-0.107-0.232-0.123-0.36
		c-0.014-0.128-0.025-0.256-0.036-0.384H165.5c-0.203,0.287-0.498,0.512-0.887,0.672s-0.828,0.24-1.316,0.24
		c-0.797,0-1.411-0.154-1.844-0.463c-0.433-0.308-0.647-0.813-0.647-1.518c0-0.385,0.104-0.723,0.315-1.015s0.49-0.507,0.836-0.642
		c0.172-0.072,0.364-0.133,0.576-0.182c0.211-0.048,0.428-0.092,0.647-0.132s0.44-0.075,0.661-0.106
		c0.222-0.033,0.428-0.068,0.619-0.109c0.211-0.039,0.383-0.077,0.513-0.113c0.129-0.036,0.229-0.079,0.302-0.132
		c0.072-0.052,0.12-0.118,0.145-0.198c0.023-0.079,0.037-0.18,0.037-0.3c0-0.199-0.07-0.356-0.209-0.474
		c-0.141-0.117-0.363-0.174-0.67-0.174c-0.395,0-0.66,0.077-0.8,0.232c-0.14,0.156-0.214,0.374-0.224,0.654h-2.491V90.527z
		 M163.512,93.023c0,0.256,0.066,0.459,0.201,0.605c0.135,0.148,0.336,0.223,0.604,0.223c0.308,0,0.571-0.063,0.792-0.191
		s0.331-0.359,0.331-0.696c0-0.271,0.002-0.495,0.007-0.672c0.006-0.176,0.008-0.332,0.008-0.468
		c-0.222,0.08-0.41,0.145-0.568,0.191s-0.299,0.086-0.417,0.113c-0.12,0.028-0.222,0.057-0.304,0.084
		c-0.082,0.028-0.156,0.059-0.224,0.092c-0.153,0.079-0.264,0.174-0.331,0.28C163.545,92.693,163.512,92.84,163.512,93.023z"/>
	<path fill="#FFFFFF" d="M170.482,89.879h-1.151v-1.344h1.151v-1.908h2.808v1.908h1.297v1.344h-1.297v3.275
		c0,0.232,0.065,0.391,0.194,0.475c0.13,0.084,0.362,0.126,0.699,0.126c0.058,0,0.122-0.001,0.194-0.006
		c0.07-0.004,0.142-0.01,0.207-0.019v1.297c-0.547,0.048-1.084,0.072-1.611,0.072c-0.489,0-0.896-0.021-1.217-0.062
		c-0.322-0.04-0.576-0.122-0.764-0.246s-0.32-0.302-0.396-0.533c-0.077-0.231-0.115-0.536-0.115-0.911L170.482,89.879
		L170.482,89.879z"/>
	<path fill="#FFFFFF" d="M175.739,90.744h5.213v1.632h-5.213V90.744z"/>
	<path fill="#FFFFFF" d="M185.2,92.412v0.3c0,0.168,0.018,0.32,0.057,0.456c0.039,0.137,0.104,0.257,0.195,0.359
		c0.09,0.104,0.217,0.186,0.381,0.24c0.164,0.057,0.375,0.084,0.633,0.084c0.261,0,0.474-0.029,0.643-0.09
		c0.167-0.061,0.303-0.139,0.402-0.234c0.102-0.096,0.171-0.205,0.209-0.329c0.037-0.124,0.058-0.246,0.058-0.366
		c0-0.23-0.077-0.422-0.229-0.568c-0.153-0.148-0.354-0.277-0.598-0.386c-0.244-0.106-0.527-0.201-0.851-0.28
		c-0.321-0.08-0.647-0.168-0.979-0.266c-0.332-0.096-0.654-0.206-0.973-0.33c-0.316-0.124-0.598-0.281-0.842-0.475
		c-0.245-0.191-0.444-0.426-0.598-0.701c-0.154-0.275-0.23-0.613-0.23-1.014c0-0.345,0.068-0.668,0.209-0.974
		c0.139-0.304,0.367-0.569,0.684-0.798s0.732-0.409,1.246-0.546c0.514-0.136,1.145-0.204,1.895-0.204
		c0.729,0,1.344,0.061,1.843,0.182c0.499,0.119,0.903,0.285,1.217,0.498c0.312,0.211,0.537,0.459,0.677,0.742
		c0.139,0.284,0.209,0.592,0.209,0.918v0.204h-2.793c0-0.415-0.082-0.716-0.244-0.899c-0.174-0.199-0.467-0.3-0.879-0.3
		c-0.777,0-1.166,0.308-1.166,0.925c0,0.304,0.131,0.539,0.396,0.707s0.593,0.312,0.985,0.433c0.394,0.12,0.818,0.237,1.274,0.354
		c0.456,0.114,0.882,0.268,1.274,0.455c0.394,0.188,0.723,0.436,0.986,0.743c0.264,0.31,0.396,0.715,0.396,1.22
		c0,0.976-0.37,1.674-1.108,2.094c-0.74,0.42-1.775,0.629-3.111,0.629c-0.537,0-1.051-0.031-1.539-0.096
		c-0.49-0.063-0.922-0.181-1.297-0.349s-0.672-0.396-0.894-0.685c-0.221-0.287-0.331-0.655-0.331-1.104v-0.552L185.2,92.412
		L185.2,92.412z"/>
	<path fill="#FFFFFF" d="M199.728,95.027h-2.692V94.26h-0.043c-0.191,0.287-0.484,0.516-0.879,0.684
		c-0.394,0.168-0.85,0.252-1.367,0.252c-0.797,0-1.401-0.144-1.814-0.432c-0.412-0.287-0.619-0.744-0.619-1.367v-4.86h2.794v4.428
		c0,0.231,0.069,0.414,0.209,0.547c0.14,0.132,0.343,0.197,0.61,0.197c0.271,0,0.503-0.073,0.699-0.222
		c0.196-0.147,0.295-0.383,0.295-0.702v-4.248h2.809L199.728,95.027L199.728,95.027z"/>
	<path fill="#FFFFFF" d="M201.643,88.536h2.693v0.769h0.043c0.19-0.287,0.483-0.517,0.877-0.685
		c0.395-0.168,0.851-0.252,1.369-0.252c0.797,0,1.4,0.146,1.813,0.433s0.619,0.743,0.619,1.367v4.859h-2.808V90.6
		c0-0.231-0.067-0.414-0.203-0.545c-0.133-0.134-0.336-0.199-0.604-0.199s-0.504,0.074-0.705,0.223s-0.303,0.382-0.303,0.701v4.248
		h-2.794L201.643,88.536L201.643,88.536z"/>
	<path fill="#FFFFFF" d="M218.448,89.136H216.1v-1.271h0.359c0.547,0,0.998-0.044,1.354-0.132s0.64-0.198,0.851-0.33
		c0.211-0.133,0.364-0.276,0.461-0.432c0.096-0.156,0.158-0.304,0.188-0.438h2.045v8.495h-2.908v-5.892H218.448z"/>
	<path fill="#FFFFFF" d="M227.793,89.136h-2.349v-1.271h0.36c0.547,0,0.998-0.044,1.354-0.132c0.356-0.088,0.639-0.198,0.85-0.33
		c0.212-0.133,0.365-0.276,0.462-0.432c0.096-0.156,0.157-0.304,0.188-0.438h2.045v8.495h-2.91V89.136L227.793,89.136z"/>
	<path fill="#FFFFFF" d="M234.459,90.527c0.02-0.455,0.117-0.819,0.295-1.092c0.178-0.271,0.435-0.487,0.771-0.647
		s0.706-0.271,1.108-0.33c0.404-0.06,0.902-0.09,1.498-0.09c1.143,0,1.979,0.146,2.514,0.438c0.531,0.291,0.799,0.785,0.799,1.48
		v3.336c0,0.248,0.016,0.509,0.043,0.779c0.029,0.272,0.125,0.48,0.288,0.625h-2.692c-0.066-0.112-0.107-0.232-0.123-0.36
		c-0.014-0.128-0.025-0.256-0.035-0.384h-0.028c-0.202,0.287-0.497,0.512-0.886,0.672s-0.828,0.24-1.317,0.24
		c-0.797,0-1.411-0.154-1.844-0.463c-0.433-0.308-0.647-0.813-0.647-1.518c0-0.385,0.105-0.723,0.316-1.015s0.49-0.507,0.836-0.642
		c0.172-0.072,0.363-0.133,0.575-0.182c0.211-0.048,0.428-0.092,0.647-0.132c0.221-0.04,0.441-0.075,0.662-0.106
		c0.221-0.033,0.428-0.068,0.619-0.109c0.211-0.039,0.382-0.077,0.512-0.113c0.129-0.036,0.23-0.079,0.303-0.132
		c0.072-0.052,0.119-0.118,0.145-0.198c0.023-0.079,0.036-0.18,0.036-0.3c0-0.199-0.069-0.356-0.209-0.474s-0.362-0.174-0.67-0.174
		c-0.394,0-0.66,0.077-0.8,0.232c-0.139,0.156-0.213,0.374-0.223,0.654h-2.492V90.527z M236.909,93.023
		c0,0.256,0.066,0.459,0.2,0.605c0.136,0.148,0.336,0.223,0.604,0.223c0.308,0,0.572-0.063,0.793-0.191s0.33-0.359,0.33-0.696
		c0-0.271,0.002-0.495,0.008-0.672c0.005-0.176,0.008-0.332,0.008-0.468c-0.223,0.08-0.411,0.145-0.568,0.191
		c-0.158,0.047-0.299,0.086-0.418,0.113c-0.119,0.028-0.222,0.057-0.303,0.084c-0.082,0.028-0.156,0.059-0.225,0.092
		c-0.152,0.079-0.264,0.174-0.33,0.28C236.941,92.693,236.909,92.84,236.909,93.023z"/>
	<path fill="#FFFFFF" d="M243.604,88.536h2.691v0.769h0.043c0.193-0.287,0.486-0.517,0.879-0.685
		c0.395-0.168,0.851-0.252,1.369-0.252c0.201,0,0.414,0.011,0.641,0.03c0.227,0.019,0.441,0.063,0.646,0.131
		c0.207,0.068,0.398,0.169,0.576,0.301s0.319,0.311,0.426,0.534c0.326-0.376,0.664-0.636,1.016-0.78s0.783-0.216,1.303-0.216
		c0.797,0,1.401,0.146,1.814,0.433c0.412,0.287,0.619,0.743,0.619,1.367v4.859h-2.793V90.6c0-0.231-0.067-0.414-0.203-0.545
		c-0.135-0.134-0.34-0.199-0.618-0.199c-0.269,0-0.502,0.074-0.698,0.223c-0.197,0.148-0.295,0.382-0.295,0.701v4.248h-2.809V90.6
		c0-0.231-0.067-0.414-0.201-0.545c-0.135-0.134-0.336-0.199-0.604-0.199c-0.271,0-0.506,0.074-0.707,0.223
		s-0.303,0.382-0.303,0.701v4.248h-2.793V88.536L243.604,88.536z"/>
	<path fill="#FFFFFF" d="M257.443,90.744h5.212v1.632h-5.212V90.744z"/>
	<path fill="#FFFFFF" d="M269.077,88.704c0-0.12-0.01-0.233-0.027-0.343c-0.021-0.107-0.067-0.205-0.146-0.293
		c-0.144-0.176-0.379-0.264-0.704-0.264c-0.24,0-0.439,0.037-0.599,0.112c-0.158,0.076-0.283,0.204-0.374,0.385
		c-0.092,0.181-0.156,0.427-0.195,0.737c-0.037,0.312-0.058,0.7-0.058,1.164h0.028c0.201-0.256,0.488-0.443,0.856-0.562
		c0.37-0.121,0.813-0.182,1.332-0.182c0.933,0,1.653,0.202,2.168,0.605c0.513,0.404,0.771,1.082,0.771,2.035
		c0,0.424-0.059,0.823-0.174,1.199s-0.32,0.703-0.619,0.983c-0.297,0.28-0.707,0.502-1.229,0.666
		c-0.522,0.163-1.188,0.245-1.995,0.245c-0.902,0-1.619-0.096-2.152-0.287s-0.94-0.469-1.224-0.828
		c-0.284-0.359-0.466-0.794-0.548-1.303c-0.081-0.508-0.122-1.082-0.122-1.721c0-0.705,0.036-1.337,0.106-1.896
		c0.072-0.561,0.252-1.036,0.541-1.428c0.287-0.393,0.715-0.69,1.281-0.896c0.566-0.203,1.344-0.306,2.334-0.306
		c1.094,0,1.952,0.17,2.576,0.51c0.624,0.341,0.95,0.895,0.979,1.662h-2.807V88.704z M268.157,93.924
		c0.411,0,0.692-0.131,0.842-0.391c0.148-0.26,0.224-0.622,0.224-1.086c0-0.528-0.067-0.91-0.202-1.146
		c-0.134-0.236-0.432-0.354-0.893-0.354c-0.221,0-0.398,0.033-0.532,0.103c-0.136,0.067-0.24,0.164-0.317,0.287
		c-0.076,0.125-0.13,0.269-0.158,0.433c-0.029,0.164-0.043,0.342-0.043,0.535c0,0.504,0.074,0.898,0.223,1.188
		C267.448,93.779,267.733,93.924,268.157,93.924z"/>
	<path fill="#FFFFFF" d="M273.728,88.536h2.692v0.792h0.043c0.049-0.104,0.123-0.214,0.224-0.33
		c0.103-0.115,0.233-0.221,0.396-0.312c0.164-0.092,0.36-0.168,0.592-0.229c0.229-0.061,0.498-0.09,0.806-0.09
		c0.472,0,0.884,0.062,1.237,0.188c0.355,0.123,0.656,0.318,0.9,0.588c0.245,0.268,0.43,0.613,0.555,1.037s0.188,0.939,0.188,1.549
		c0,0.504-0.033,0.967-0.102,1.392c-0.066,0.425-0.198,0.79-0.396,1.099c-0.196,0.309-0.474,0.549-0.827,0.721
		c-0.355,0.172-0.816,0.258-1.384,0.258c-0.384,0-0.771-0.059-1.159-0.174c-0.388-0.116-0.697-0.351-0.929-0.703h-0.043v2.82h-2.794
		L273.728,88.536L273.728,88.536z M276.479,91.74c0,0.287,0.009,0.557,0.027,0.804c0.021,0.248,0.062,0.465,0.131,0.647
		c0.068,0.184,0.168,0.328,0.303,0.433s0.321,0.155,0.562,0.155c0.248,0,0.445-0.045,0.59-0.137
		c0.145-0.093,0.252-0.226,0.324-0.396s0.115-0.378,0.129-0.618c0.015-0.239,0.021-0.508,0.021-0.804
		c0-0.264-0.01-0.518-0.029-0.762c-0.019-0.244-0.063-0.461-0.137-0.648c-0.072-0.188-0.18-0.34-0.324-0.456
		c-0.144-0.115-0.345-0.174-0.604-0.174c-0.413,0-0.682,0.168-0.807,0.504S276.479,91.107,276.479,91.74z"/>
	<path fill="#FFFFFF" d="M283.146,88.536h2.692v0.769h0.043c0.191-0.287,0.484-0.517,0.879-0.685
		c0.394-0.168,0.85-0.252,1.367-0.252c0.201,0,0.416,0.011,0.642,0.03c0.226,0.019,0.44,0.063,0.647,0.131
		c0.207,0.068,0.397,0.169,0.576,0.301c0.178,0.132,0.318,0.311,0.424,0.534c0.326-0.376,0.666-0.636,1.017-0.78
		s0.784-0.216,1.303-0.216c0.798,0,1.401,0.146,1.813,0.433c0.414,0.287,0.619,0.743,0.619,1.367v4.859h-2.793V90.6
		c0-0.231-0.066-0.414-0.201-0.545c-0.135-0.134-0.342-0.199-0.619-0.199c-0.27,0-0.502,0.074-0.698,0.223s-0.295,0.382-0.295,0.701
		v4.248h-2.81V90.6c0-0.231-0.066-0.414-0.201-0.545c-0.135-0.134-0.336-0.199-0.604-0.199c-0.27,0-0.505,0.074-0.705,0.223
		c-0.201,0.148-0.304,0.382-0.304,0.701v4.248h-2.793V88.536L283.146,88.536z"/>
</g>
</svg>
