<?xml version="1.0" encoding="utf-8"?>
<!-- Generator: Adobe Illustrator 16.0.0, SVG Export Plug-In . SVG Version: 6.00 Build 0)  -->
<!DOCTYPE svg PUBLIC "-//W3C//DTD SVG 1.1//EN" "http://www.w3.org/Graphics/SVG/1.1/DTD/svg11.dtd">
<svg version="1.1" id="Layer_1" xmlns="http://www.w3.org/2000/svg" xmlns:xlink="http://www.w3.org/1999/xlink" x="0px" y="0px"
	 width="505.197px" height="112.795px" viewBox="0 0 505.197 112.795" enable-background="new 0 0 505.197 112.795"
	 xml:space="preserve">
<rect fill="#F36F37" width="505" height="30"/>
<line fill="none" stroke="#FFFFFF" stroke-width="2" stroke-miterlimit="10" x1="118" y1="25" x2="118" y2="5"/>
<line fill="none" stroke="#FFFFFF" stroke-width="2" stroke-miterlimit="10" x1="265" y1="25" x2="265" y2="5"/>
<line fill="none" stroke="#FFFFFF" stroke-width="2" stroke-miterlimit="10" x1="376" y1="25" x2="376" y2="5"/>
<g enable-background="new    ">
	<path fill="#FFFFFF" d="M38.048,9.238h1.746v11.826h-1.746V9.238z"/>
	<path fill="#FFFFFF" d="M42.098,9.238h2.268l4.68,9.864H49.1V9.238h1.746v11.826h-2.412l-4.554-9.576h-0.036v9.576h-1.746V9.238z"
		/>
	<path fill="#FFFFFF" d="M53.15,9.238h1.746v11.826H53.15V9.238z"/>
	<path fill="#FFFFFF" d="M61.521,21.064h-1.764v-10.53H56.21V9.238h8.874v1.296h-3.564V21.064z"/>
	<path fill="#FFFFFF" d="M66.398,9.238h1.746v11.826h-1.746V9.238z"/>
	<path fill="#FFFFFF" d="M73.238,9.238h2.34l3.815,11.826h-1.836l-1.008-3.24h-4.536l-1.044,3.24h-1.836L73.238,9.238z
		 M72.374,16.618h3.815l-1.8-5.706h-0.054L72.374,16.618z"/>
	<path fill="#FFFFFF" d="M84.703,21.064h-1.764v-10.53h-3.546V9.238h8.874v1.296h-3.564V21.064z"/>
	<path fill="#FFFFFF" d="M89.582,9.238h7.325v1.296h-5.579v3.708h5.273v1.296h-5.273v4.23h5.832v1.296h-7.578V9.238z"/>
	<path fill="#FFFFFF" d="M98.959,9.238h3.798c1.104,0,1.983,0.156,2.637,0.468c0.654,0.312,1.155,0.735,1.503,1.27
		c0.349,0.534,0.573,1.161,0.676,1.881c0.102,0.72,0.152,1.488,0.152,2.304c0,0.744-0.065,1.471-0.197,2.179
		c-0.133,0.708-0.378,1.338-0.738,1.89s-0.85,0.996-1.467,1.332c-0.618,0.336-1.413,0.504-2.386,0.504h-3.978V9.238z
		 M100.705,19.876h1.836c0.756,0,1.353-0.146,1.791-0.44c0.438-0.294,0.773-0.669,1.008-1.125s0.384-0.963,0.45-1.521
		c0.065-0.558,0.099-1.101,0.099-1.629c0-0.563-0.026-1.128-0.081-1.691c-0.054-0.564-0.188-1.071-0.404-1.521
		c-0.217-0.45-0.55-0.815-0.999-1.098c-0.45-0.282-1.071-0.423-1.863-0.423h-1.836V19.876z"/>
</g>
<g enable-background="new    ">
	<path fill="#FFFFFF" d="M155.804,9.238h1.746v11.826h-1.746V9.238z"/>
	<path fill="#FFFFFF" d="M159.854,9.238h2.268l4.68,9.864h0.054V9.238h1.746v11.826h-2.412l-4.554-9.576H161.6v9.576h-1.746V9.238z"
		/>
	<path fill="#FFFFFF" d="M175.676,9.238h3.618c0.204,0,0.453,0.007,0.747,0.019c0.294,0.012,0.606,0.048,0.936,0.107
		c0.33,0.061,0.654,0.159,0.972,0.297c0.318,0.139,0.606,0.333,0.864,0.585c0.258,0.252,0.468,0.573,0.63,0.963
		c0.162,0.391,0.243,0.867,0.243,1.432c0,0.552-0.102,1.041-0.306,1.467s-0.486,0.783-0.846,1.071
		c-0.36,0.288-0.789,0.507-1.287,0.657c-0.498,0.149-1.047,0.225-1.647,0.225h-2.178v5.004h-1.746V9.238z M177.422,14.872h2.088
		c0.324,0,0.627-0.048,0.909-0.144c0.282-0.096,0.528-0.237,0.738-0.423c0.21-0.187,0.378-0.423,0.504-0.711s0.189-0.63,0.189-1.026
		c0-0.647-0.192-1.167-0.576-1.557c-0.384-0.39-1.014-0.585-1.89-0.585h-1.962V14.872z"/>
	<path fill="#FFFFFF" d="M185.234,9.238h4.59c1.128,0,2.016,0.261,2.664,0.783c0.647,0.521,0.972,1.251,0.972,2.187
		c0,0.324-0.036,0.646-0.108,0.964c-0.071,0.317-0.194,0.611-0.368,0.882c-0.175,0.27-0.399,0.504-0.676,0.702
		c-0.275,0.197-0.618,0.339-1.025,0.423v0.036c0.611,0.06,1.092,0.278,1.439,0.656c0.349,0.378,0.534,0.819,0.559,1.323l0.126,2.017
		c0.012,0.323,0.042,0.594,0.09,0.81s0.102,0.394,0.162,0.531c0.06,0.138,0.132,0.246,0.216,0.323
		c0.084,0.079,0.18,0.142,0.288,0.189h-2.106c-0.071-0.06-0.138-0.156-0.197-0.288c-0.061-0.132-0.108-0.279-0.145-0.44
		c-0.036-0.162-0.066-0.33-0.09-0.505c-0.024-0.174-0.042-0.333-0.054-0.477l-0.108-1.836c-0.024-0.408-0.107-0.726-0.252-0.954
		c-0.144-0.228-0.314-0.398-0.513-0.513s-0.417-0.187-0.657-0.216c-0.24-0.03-0.468-0.046-0.684-0.046h-2.376v5.274h-1.747V9.238z
		 M186.98,14.603h1.728c0.264,0,0.563-0.012,0.9-0.036c0.335-0.023,0.653-0.108,0.954-0.252c0.3-0.144,0.555-0.369,0.765-0.675
		c0.21-0.307,0.314-0.747,0.314-1.323s-0.222-1.035-0.666-1.377c-0.443-0.342-1.079-0.513-1.907-0.513h-2.088V14.603z"/>
	<path fill="#FFFFFF" d="M199.922,9.005c0.972,0,1.758,0.18,2.357,0.54c0.601,0.359,1.065,0.831,1.396,1.412
		c0.33,0.583,0.549,1.242,0.656,1.98c0.108,0.738,0.162,1.479,0.162,2.223c0,0.744-0.054,1.482-0.162,2.214
		c-0.107,0.732-0.326,1.39-0.656,1.972s-0.795,1.053-1.396,1.413c-0.6,0.359-1.386,0.54-2.357,0.54c-0.984,0-1.776-0.181-2.376-0.54
		c-0.601-0.36-1.062-0.831-1.387-1.413c-0.323-0.582-0.54-1.239-0.647-1.972c-0.108-0.731-0.162-1.47-0.162-2.214
		c0-0.743,0.054-1.484,0.162-2.223c0.107-0.738,0.324-1.397,0.647-1.98c0.324-0.581,0.786-1.053,1.387-1.412
		C198.146,9.185,198.938,9.005,199.922,9.005z M199.922,10.192c-0.612,0-1.099,0.132-1.458,0.396c-0.36,0.264-0.634,0.62-0.819,1.07
		c-0.187,0.45-0.31,0.976-0.369,1.575c-0.061,0.601-0.09,1.242-0.09,1.926c0,0.685,0.029,1.326,0.09,1.927
		c0.06,0.6,0.183,1.125,0.369,1.574c0.186,0.45,0.459,0.805,0.819,1.062c0.359,0.258,0.846,0.387,1.458,0.387
		c0.611,0,1.098-0.129,1.458-0.387c0.359-0.258,0.633-0.612,0.818-1.062c0.187-0.449,0.309-0.975,0.369-1.574
		c0.06-0.601,0.09-1.242,0.09-1.927c0-0.684-0.03-1.325-0.09-1.926c-0.061-0.6-0.183-1.125-0.369-1.575
		c-0.186-0.45-0.459-0.807-0.818-1.07C201.02,10.324,200.533,10.192,199.922,10.192z"/>
	<path fill="#FFFFFF" d="M213.332,12.515c-0.024-0.312-0.078-0.609-0.162-0.892c-0.084-0.281-0.216-0.527-0.396-0.737
		s-0.417-0.378-0.711-0.504s-0.657-0.189-1.089-0.189c-0.612,0-1.099,0.132-1.458,0.396c-0.36,0.264-0.634,0.62-0.819,1.07
		c-0.187,0.45-0.31,0.976-0.369,1.575c-0.061,0.601-0.09,1.242-0.09,1.926c0,0.685,0.029,1.326,0.09,1.927
		c0.06,0.6,0.183,1.125,0.369,1.574c0.186,0.45,0.459,0.805,0.819,1.062c0.359,0.258,0.846,0.387,1.458,0.387
		c0.611,0,1.092-0.135,1.439-0.405c0.348-0.27,0.609-0.605,0.783-1.008c0.174-0.401,0.282-0.834,0.324-1.296
		s0.062-0.891,0.062-1.287h-2.808v-1.188h4.392v6.138h-1.313v-1.602h-0.036c-0.192,0.504-0.556,0.936-1.089,1.296
		c-0.534,0.359-1.191,0.54-1.972,0.54c-0.924,0-1.671-0.171-2.24-0.514c-0.57-0.342-1.012-0.798-1.323-1.368
		c-0.312-0.569-0.522-1.224-0.63-1.962c-0.108-0.737-0.162-1.503-0.162-2.295c0-0.743,0.054-1.484,0.162-2.223
		c0.107-0.738,0.324-1.397,0.647-1.98c0.324-0.581,0.786-1.053,1.387-1.412c0.6-0.36,1.392-0.54,2.376-0.54
		c0.672,0,1.244,0.071,1.719,0.216c0.474,0.144,0.864,0.33,1.17,0.558c0.306,0.229,0.546,0.48,0.72,0.756
		c0.174,0.276,0.303,0.543,0.388,0.802c0.083,0.258,0.138,0.494,0.161,0.711c0.024,0.216,0.036,0.372,0.036,0.468H213.332z"/>
	<path fill="#FFFFFF" d="M217.274,9.238h4.59c1.128,0,2.016,0.261,2.664,0.783c0.647,0.521,0.972,1.251,0.972,2.187
		c0,0.324-0.036,0.646-0.108,0.964c-0.071,0.317-0.194,0.611-0.368,0.882c-0.175,0.27-0.399,0.504-0.676,0.702
		c-0.275,0.197-0.618,0.339-1.025,0.423v0.036c0.611,0.06,1.092,0.278,1.439,0.656c0.349,0.378,0.534,0.819,0.559,1.323l0.126,2.017
		c0.012,0.323,0.042,0.594,0.09,0.81s0.102,0.394,0.162,0.531c0.06,0.138,0.132,0.246,0.216,0.323
		c0.084,0.079,0.18,0.142,0.288,0.189h-2.106c-0.071-0.06-0.138-0.156-0.197-0.288c-0.061-0.132-0.108-0.279-0.145-0.44
		c-0.036-0.162-0.066-0.33-0.09-0.505c-0.024-0.174-0.042-0.333-0.054-0.477l-0.108-1.836c-0.024-0.408-0.107-0.726-0.252-0.954
		c-0.144-0.228-0.314-0.398-0.513-0.513s-0.417-0.187-0.657-0.216c-0.24-0.03-0.468-0.046-0.684-0.046h-2.376v5.274h-1.746V9.238z
		 M219.021,14.603h1.728c0.264,0,0.563-0.012,0.9-0.036c0.335-0.023,0.653-0.108,0.954-0.252c0.3-0.144,0.555-0.369,0.765-0.675
		c0.21-0.307,0.314-0.747,0.314-1.323s-0.222-1.035-0.666-1.377c-0.443-0.342-1.079-0.513-1.907-0.513h-2.088V14.603z"/>
	<path fill="#FFFFFF" d="M227.588,9.238h7.325v1.296h-5.579v3.708h5.273v1.296h-5.273v4.23h5.832v1.296h-7.578V9.238z"/>
	<path fill="#FFFFFF" d="M242.815,12.299c0-0.312-0.035-0.598-0.107-0.855s-0.195-0.479-0.369-0.666
		c-0.174-0.186-0.402-0.33-0.684-0.432c-0.282-0.103-0.634-0.153-1.054-0.153c-0.744,0-1.32,0.162-1.728,0.486
		c-0.408,0.324-0.612,0.804-0.612,1.439c0,0.553,0.165,0.979,0.495,1.278s0.744,0.54,1.242,0.72c0.498,0.181,1.035,0.336,1.61,0.468
		c0.576,0.133,1.113,0.315,1.611,0.55c0.498,0.233,0.912,0.555,1.242,0.963s0.495,0.972,0.495,1.691
		c0,0.685-0.135,1.251-0.405,1.701c-0.27,0.45-0.618,0.811-1.044,1.08c-0.426,0.271-0.9,0.459-1.422,0.567
		c-0.522,0.107-1.035,0.162-1.539,0.162c-0.828,0-1.519-0.088-2.07-0.262s-0.993-0.429-1.322-0.765
		c-0.331-0.336-0.564-0.747-0.702-1.233c-0.139-0.485-0.207-1.047-0.207-1.683h1.746c0,0.336,0.018,0.669,0.054,0.999
		s0.141,0.624,0.314,0.882c0.174,0.259,0.441,0.468,0.802,0.63c0.359,0.162,0.857,0.243,1.494,0.243
		c0.707,0,1.296-0.188,1.764-0.567c0.468-0.378,0.702-0.885,0.702-1.521c0-0.42-0.097-0.765-0.288-1.035
		c-0.192-0.27-0.444-0.492-0.756-0.666c-0.312-0.174-0.669-0.32-1.071-0.44s-0.813-0.24-1.233-0.36s-0.831-0.255-1.232-0.405
		c-0.402-0.149-0.76-0.345-1.071-0.585c-0.312-0.239-0.564-0.543-0.756-0.909c-0.192-0.365-0.288-0.818-0.288-1.358
		c0-0.264,0.048-0.585,0.144-0.963c0.097-0.378,0.291-0.735,0.586-1.071c0.293-0.336,0.713-0.624,1.26-0.864
		c0.546-0.239,1.269-0.359,2.169-0.359c1.355,0,2.352,0.275,2.988,0.827c0.636,0.553,0.966,1.375,0.989,2.467H242.815z"/>
	<path fill="#FFFFFF" d="M252.751,12.299c0-0.312-0.035-0.598-0.107-0.855s-0.195-0.479-0.369-0.666
		c-0.174-0.186-0.402-0.33-0.684-0.432c-0.282-0.103-0.634-0.153-1.054-0.153c-0.744,0-1.32,0.162-1.728,0.486
		c-0.408,0.324-0.612,0.804-0.612,1.439c0,0.553,0.165,0.979,0.495,1.278s0.744,0.54,1.242,0.72c0.498,0.181,1.035,0.336,1.61,0.468
		c0.576,0.133,1.113,0.315,1.611,0.55c0.498,0.233,0.912,0.555,1.242,0.963s0.495,0.972,0.495,1.691
		c0,0.685-0.135,1.251-0.405,1.701c-0.27,0.45-0.618,0.811-1.044,1.08c-0.426,0.271-0.9,0.459-1.422,0.567
		c-0.522,0.107-1.035,0.162-1.539,0.162c-0.828,0-1.519-0.088-2.07-0.262s-0.993-0.429-1.322-0.765
		c-0.331-0.336-0.564-0.747-0.702-1.233c-0.139-0.485-0.207-1.047-0.207-1.683h1.746c0,0.336,0.018,0.669,0.054,0.999
		s0.141,0.624,0.314,0.882c0.174,0.259,0.441,0.468,0.802,0.63c0.359,0.162,0.857,0.243,1.494,0.243
		c0.707,0,1.296-0.188,1.764-0.567c0.468-0.378,0.702-0.885,0.702-1.521c0-0.42-0.097-0.765-0.288-1.035
		c-0.192-0.27-0.444-0.492-0.756-0.666c-0.312-0.174-0.669-0.32-1.071-0.44s-0.813-0.24-1.233-0.36s-0.831-0.255-1.232-0.405
		c-0.402-0.149-0.76-0.345-1.071-0.585c-0.312-0.239-0.564-0.543-0.756-0.909c-0.192-0.365-0.288-0.818-0.288-1.358
		c0-0.264,0.048-0.585,0.144-0.963c0.097-0.378,0.291-0.735,0.586-1.071c0.293-0.336,0.713-0.624,1.26-0.864
		c0.546-0.239,1.269-0.359,2.169-0.359c1.355,0,2.352,0.275,2.988,0.827c0.636,0.553,0.966,1.375,0.989,2.467H252.751z"/>
</g>
<g enable-background="new    ">
	<path fill="#FFFFFF" d="M307.522,21.064h-1.764v-10.53h-3.546V9.238h8.874v1.296h-3.564V21.064z"/>
	<path fill="#FFFFFF" d="M312.4,9.238h7.326v1.296h-5.58v3.708h5.274v1.296h-5.274v4.23h5.832v1.296H312.4V9.238z"/>
	<path fill="#FFFFFF" d="M327.628,12.299c0-0.312-0.035-0.598-0.107-0.855s-0.195-0.479-0.369-0.666
		c-0.174-0.186-0.402-0.33-0.684-0.432c-0.283-0.103-0.634-0.153-1.054-0.153c-0.744,0-1.319,0.162-1.728,0.486
		s-0.612,0.804-0.612,1.439c0,0.553,0.165,0.979,0.495,1.278s0.744,0.54,1.242,0.72c0.498,0.181,1.035,0.336,1.611,0.468
		c0.575,0.133,1.112,0.315,1.61,0.55c0.498,0.233,0.912,0.555,1.242,0.963c0.329,0.408,0.495,0.972,0.495,1.691
		c0,0.685-0.135,1.251-0.405,1.701s-0.618,0.811-1.044,1.08c-0.426,0.271-0.9,0.459-1.422,0.567
		c-0.521,0.107-1.035,0.162-1.539,0.162c-0.828,0-1.518-0.088-2.07-0.262c-0.552-0.174-0.992-0.429-1.322-0.765
		s-0.564-0.747-0.703-1.233c-0.138-0.485-0.207-1.047-0.207-1.683h1.746c0,0.336,0.019,0.669,0.055,0.999s0.141,0.624,0.314,0.882
		c0.174,0.259,0.441,0.468,0.801,0.63c0.361,0.162,0.858,0.243,1.494,0.243c0.709,0,1.297-0.188,1.765-0.567
		c0.468-0.378,0.702-0.885,0.702-1.521c0-0.42-0.097-0.765-0.288-1.035c-0.192-0.27-0.444-0.492-0.757-0.666
		c-0.312-0.174-0.668-0.32-1.07-0.44s-0.812-0.24-1.232-0.36c-0.421-0.12-0.832-0.255-1.233-0.405
		c-0.402-0.149-0.759-0.345-1.071-0.585c-0.312-0.239-0.564-0.543-0.756-0.909c-0.192-0.365-0.288-0.818-0.288-1.358
		c0-0.264,0.048-0.585,0.144-0.963s0.291-0.735,0.586-1.071c0.293-0.336,0.713-0.624,1.26-0.864
		c0.546-0.239,1.269-0.359,2.169-0.359c1.355,0,2.352,0.275,2.987,0.827c0.637,0.553,0.967,1.375,0.99,2.467H327.628z"/>
	<path fill="#FFFFFF" d="M335.854,21.064h-1.764v-10.53h-3.546V9.238h8.874v1.296h-3.564V21.064z"/>
	<path fill="#FFFFFF" d="M340.732,9.238h1.746v11.826h-1.746V9.238z"/>
	<path fill="#FFFFFF" d="M344.782,9.238h2.268l4.68,9.864h0.055V9.238h1.746v11.826h-2.412l-4.555-9.576h-0.035v9.576h-1.746V9.238z
		"/>
	<path fill="#FFFFFF" d="M362.565,12.515c-0.024-0.312-0.078-0.609-0.162-0.892c-0.084-0.281-0.216-0.527-0.396-0.737
		s-0.417-0.378-0.711-0.504s-0.657-0.189-1.089-0.189c-0.612,0-1.099,0.132-1.458,0.396c-0.36,0.264-0.634,0.62-0.819,1.07
		c-0.187,0.45-0.31,0.976-0.369,1.575c-0.061,0.601-0.09,1.242-0.09,1.926c0,0.685,0.029,1.326,0.09,1.927
		c0.06,0.6,0.183,1.125,0.369,1.574c0.186,0.45,0.459,0.805,0.819,1.062c0.359,0.258,0.846,0.387,1.458,0.387
		c0.611,0,1.092-0.135,1.439-0.405c0.348-0.27,0.609-0.605,0.783-1.008c0.174-0.401,0.282-0.834,0.324-1.296
		s0.062-0.891,0.062-1.287h-2.808v-1.188h4.392v6.138h-1.313v-1.602h-0.036c-0.192,0.504-0.556,0.936-1.089,1.296
		c-0.534,0.359-1.191,0.54-1.972,0.54c-0.924,0-1.671-0.171-2.24-0.514c-0.57-0.342-1.012-0.798-1.323-1.368
		c-0.312-0.569-0.522-1.224-0.63-1.962c-0.108-0.737-0.162-1.503-0.162-2.295c0-0.743,0.054-1.484,0.162-2.223
		c0.107-0.738,0.324-1.397,0.647-1.98c0.324-0.581,0.786-1.053,1.387-1.412c0.6-0.36,1.392-0.54,2.376-0.54
		c0.672,0,1.244,0.071,1.719,0.216c0.474,0.144,0.864,0.33,1.17,0.558c0.306,0.229,0.546,0.48,0.72,0.756
		c0.174,0.276,0.303,0.543,0.388,0.802c0.083,0.258,0.138,0.494,0.161,0.711c0.024,0.216,0.036,0.372,0.036,0.468H362.565z"/>
</g>
<g enable-background="new    ">
	<path fill="#FFFFFF" d="M423.506,17.015c-0.036,0.564-0.136,1.104-0.298,1.62c-0.161,0.516-0.41,0.972-0.746,1.368
		c-0.336,0.396-0.771,0.711-1.305,0.944c-0.535,0.234-1.186,0.352-1.953,0.352c-1.008,0-1.812-0.181-2.412-0.54
		c-0.601-0.36-1.062-0.831-1.387-1.413s-0.533-1.239-0.629-1.972c-0.097-0.731-0.145-1.47-0.145-2.214
		c0-0.743,0.054-1.484,0.162-2.223c0.107-0.738,0.324-1.397,0.648-1.98c0.323-0.581,0.785-1.053,1.385-1.412
		c0.601-0.36,1.393-0.54,2.377-0.54c1.451,0,2.502,0.323,3.149,0.972c0.648,0.647,0.996,1.548,1.044,2.7h-1.836
		c-0.012-0.336-0.057-0.654-0.135-0.954s-0.207-0.564-0.387-0.792s-0.42-0.408-0.721-0.54c-0.3-0.132-0.672-0.198-1.115-0.198
		c-0.612,0-1.098,0.132-1.459,0.396c-0.359,0.264-0.633,0.62-0.818,1.07s-0.309,0.976-0.369,1.575
		c-0.061,0.601-0.09,1.242-0.09,1.926c0,0.685,0.029,1.326,0.09,1.927c0.061,0.6,0.184,1.125,0.369,1.574
		c0.186,0.45,0.459,0.805,0.818,1.062c0.361,0.258,0.847,0.387,1.459,0.387c0.527,0,0.953-0.093,1.277-0.279
		c0.324-0.186,0.573-0.429,0.747-0.729s0.291-0.633,0.351-0.999c0.061-0.366,0.097-0.729,0.108-1.089H423.506z"/>
	<path fill="#FFFFFF" d="M429.518,9.005c0.972,0,1.758,0.18,2.358,0.54c0.6,0.359,1.064,0.831,1.395,1.412
		c0.33,0.583,0.549,1.242,0.657,1.98s0.162,1.479,0.162,2.223c0,0.744-0.054,1.482-0.162,2.214c-0.108,0.732-0.327,1.39-0.657,1.972
		s-0.795,1.053-1.395,1.413c-0.601,0.359-1.387,0.54-2.358,0.54c-0.983,0-1.776-0.181-2.376-0.54c-0.6-0.36-1.062-0.831-1.386-1.413
		c-0.324-0.582-0.54-1.239-0.647-1.972c-0.109-0.731-0.162-1.47-0.162-2.214c0-0.743,0.053-1.484,0.162-2.223
		c0.107-0.738,0.323-1.397,0.647-1.98c0.323-0.581,0.786-1.053,1.386-1.412C427.741,9.185,428.534,9.005,429.518,9.005z
		 M429.518,10.192c-0.612,0-1.098,0.132-1.458,0.396c-0.359,0.264-0.633,0.62-0.818,1.07c-0.187,0.45-0.31,0.976-0.369,1.575
		c-0.061,0.601-0.09,1.242-0.09,1.926c0,0.685,0.029,1.326,0.09,1.927c0.06,0.6,0.183,1.125,0.369,1.574
		c0.186,0.45,0.459,0.805,0.818,1.062c0.36,0.258,0.846,0.387,1.458,0.387s1.099-0.129,1.458-0.387
		c0.36-0.258,0.633-0.612,0.819-1.062c0.186-0.449,0.309-0.975,0.368-1.574c0.061-0.601,0.091-1.242,0.091-1.927
		c0-0.684-0.03-1.325-0.091-1.926c-0.06-0.6-0.183-1.125-0.368-1.575c-0.187-0.45-0.459-0.807-0.819-1.07
		C430.616,10.324,430.13,10.192,429.518,10.192z"/>
	<path fill="#FFFFFF" d="M436.231,9.238h2.952l2.844,9.378h0.036l2.844-9.378h2.935v11.826h-1.746V10.732h-0.037l-3.149,10.332
		h-1.746l-3.132-10.332h-0.054v10.332h-1.746V9.238z"/>
	<path fill="#FFFFFF" d="M450.182,9.238h3.617c0.204,0,0.453,0.007,0.747,0.019s0.606,0.048,0.937,0.107
		c0.33,0.061,0.653,0.159,0.972,0.297c0.318,0.139,0.606,0.333,0.864,0.585s0.468,0.573,0.63,0.963
		c0.162,0.391,0.243,0.867,0.243,1.432c0,0.552-0.103,1.041-0.306,1.467c-0.205,0.426-0.486,0.783-0.847,1.071
		c-0.359,0.288-0.789,0.507-1.287,0.657c-0.498,0.149-1.047,0.225-1.646,0.225h-2.178v5.004h-1.746V9.238z M451.928,14.872h2.088
		c0.323,0,0.627-0.048,0.908-0.144c0.282-0.096,0.528-0.237,0.738-0.423c0.21-0.187,0.378-0.423,0.504-0.711s0.189-0.63,0.189-1.026
		c0-0.647-0.192-1.167-0.576-1.557s-1.015-0.585-1.89-0.585h-1.962V14.872z"/>
	<path fill="#FFFFFF" d="M459.739,9.238h1.746v10.53h5.76v1.296h-7.506V9.238z"/>
	<path fill="#FFFFFF" d="M468.56,9.238h7.325v1.296h-5.579v3.708h5.273v1.296h-5.273v4.23h5.832v1.296h-7.578V9.238z"/>
	<path fill="#FFFFFF" d="M482.076,21.064h-1.764v-10.53h-3.546V9.238h8.874v1.296h-3.564V21.064z"/>
	<path fill="#FFFFFF" d="M486.955,9.238h7.325v1.296h-5.579v3.708h5.273v1.296h-5.273v4.23h5.832v1.296h-7.578V9.238z"/>
</g>
<g enable-background="new    ">
	<path fill="#FFFFFF" d="M26.143,15.91v3.194c0,0.797-0.283,1.478-0.849,2.044c-0.566,0.565-1.247,0.849-2.044,0.849h-8.357
		c-0.797,0-1.479-0.283-2.044-0.849C12.283,20.582,12,19.901,12,19.104v-8.357c0-0.797,0.283-1.479,0.849-2.044
		c0.566-0.566,1.247-0.849,2.044-0.849h8.357c0.422,0,0.813,0.084,1.175,0.251c0.101,0.047,0.161,0.124,0.181,0.23
		c0.02,0.114-0.01,0.211-0.09,0.292L24.023,9.12c-0.067,0.066-0.144,0.101-0.231,0.101c-0.02,0-0.05-0.007-0.09-0.021
		C23.548,9.16,23.397,9.14,23.25,9.14h-8.357c-0.442,0-0.821,0.157-1.135,0.473c-0.315,0.314-0.472,0.692-0.472,1.135v8.357
		c0,0.441,0.157,0.82,0.472,1.135c0.314,0.314,0.693,0.472,1.135,0.472h8.357c0.442,0,0.82-0.157,1.135-0.472
		c0.314-0.314,0.472-0.693,0.472-1.135v-2.552c0-0.087,0.03-0.16,0.091-0.221l0.643-0.643c0.067-0.067,0.144-0.101,0.231-0.101
		c0.041,0,0.081,0.01,0.121,0.03C26.076,15.673,26.143,15.77,26.143,15.91z M28.463,10.998l-8.177,8.177
		c-0.161,0.16-0.352,0.241-0.572,0.241c-0.221,0-0.412-0.081-0.573-0.241l-4.319-4.319c-0.161-0.161-0.241-0.352-0.241-0.572
		c0-0.222,0.08-0.412,0.241-0.573l1.104-1.104c0.161-0.161,0.352-0.241,0.573-0.241s0.412,0.08,0.573,0.241l2.642,2.642l6.499-6.499
		c0.161-0.16,0.352-0.241,0.572-0.241c0.221,0,0.412,0.081,0.573,0.241l1.105,1.105c0.161,0.16,0.241,0.352,0.241,0.572
		S28.624,10.838,28.463,10.998z"/>
</g>
<g enable-background="new    ">
	<path fill="#FFFFFF" d="M142.434,15.91v3.194c0,0.797-0.283,1.478-0.849,2.044c-0.566,0.565-1.247,0.849-2.044,0.849h-8.357
		c-0.797,0-1.479-0.283-2.044-0.849c-0.566-0.566-0.849-1.247-0.849-2.044v-8.357c0-0.797,0.283-1.479,0.849-2.044
		c0.566-0.566,1.247-0.849,2.044-0.849h8.357c0.422,0,0.813,0.084,1.175,0.251c0.101,0.047,0.161,0.124,0.181,0.23
		c0.02,0.114-0.01,0.211-0.09,0.292l-0.492,0.492c-0.067,0.066-0.144,0.101-0.231,0.101c-0.02,0-0.05-0.007-0.09-0.021
		c-0.154-0.04-0.305-0.061-0.452-0.061h-8.357c-0.442,0-0.821,0.157-1.135,0.473c-0.315,0.314-0.472,0.692-0.472,1.135v8.357
		c0,0.441,0.157,0.82,0.472,1.135c0.314,0.314,0.693,0.472,1.135,0.472h8.357c0.442,0,0.82-0.157,1.135-0.472
		c0.314-0.314,0.472-0.693,0.472-1.135v-2.552c0-0.087,0.03-0.16,0.091-0.221l0.643-0.643c0.067-0.067,0.144-0.101,0.231-0.101
		c0.041,0,0.081,0.01,0.121,0.03C142.367,15.673,142.434,15.77,142.434,15.91z M144.754,10.998l-8.177,8.177
		c-0.161,0.16-0.352,0.241-0.572,0.241c-0.221,0-0.412-0.081-0.573-0.241l-4.319-4.319c-0.161-0.161-0.241-0.352-0.241-0.572
		c0-0.222,0.08-0.412,0.241-0.573l1.104-1.104c0.161-0.161,0.352-0.241,0.573-0.241s0.412,0.08,0.573,0.241l2.642,2.642l6.499-6.499
		c0.161-0.16,0.352-0.241,0.572-0.241c0.221,0,0.412,0.081,0.573,0.241l1.105,1.105c0.161,0.16,0.241,0.352,0.241,0.572
		S144.915,10.838,144.754,10.998z"/>
</g>
<g enable-background="new    ">
	<path fill="#FFFFFF" d="M289.394,15.91v3.194c0,0.797-0.283,1.478-0.85,2.044c-0.566,0.565-1.247,0.849-2.044,0.849h-8.356
		c-0.798,0-1.479-0.283-2.045-0.849c-0.566-0.566-0.849-1.247-0.849-2.044v-8.357c0-0.797,0.282-1.479,0.849-2.044
		c0.566-0.566,1.247-0.849,2.045-0.849h8.356c0.422,0,0.813,0.084,1.175,0.251c0.102,0.047,0.161,0.124,0.182,0.23
		c0.02,0.114-0.01,0.211-0.091,0.292l-0.492,0.492c-0.067,0.066-0.144,0.101-0.231,0.101c-0.02,0-0.05-0.007-0.09-0.021
		c-0.154-0.04-0.305-0.061-0.452-0.061h-8.356c-0.443,0-0.821,0.157-1.136,0.473c-0.315,0.314-0.472,0.692-0.472,1.135v8.357
		c0,0.441,0.156,0.82,0.472,1.135c0.314,0.314,0.692,0.472,1.136,0.472h8.356c0.442,0,0.82-0.157,1.136-0.472
		c0.314-0.314,0.471-0.693,0.471-1.135v-2.552c0-0.087,0.031-0.16,0.092-0.221l0.643-0.643c0.066-0.067,0.144-0.101,0.23-0.101
		c0.041,0,0.08,0.01,0.121,0.03C289.325,15.673,289.394,15.77,289.394,15.91z M291.714,10.998l-8.178,8.177
		c-0.16,0.16-0.352,0.241-0.572,0.241s-0.412-0.081-0.572-0.241l-4.318-4.319c-0.162-0.161-0.242-0.352-0.242-0.572
		c0-0.222,0.08-0.412,0.242-0.573l1.104-1.104c0.162-0.161,0.352-0.241,0.573-0.241s0.411,0.08,0.573,0.241l2.641,2.642l6.5-6.499
		c0.16-0.16,0.352-0.241,0.572-0.241s0.412,0.081,0.572,0.241l1.105,1.105c0.16,0.16,0.24,0.352,0.24,0.572
		S291.874,10.838,291.714,10.998z"/>
</g>
<g enable-background="new    ">
	<path fill="#FFFFFF" d="M400.429,15.91v3.194c0,0.797-0.283,1.478-0.849,2.044c-0.565,0.565-1.247,0.849-2.044,0.849h-8.357
		c-0.797,0-1.479-0.283-2.044-0.849c-0.565-0.566-0.849-1.247-0.849-2.044v-8.357c0-0.797,0.283-1.479,0.849-2.044
		c0.565-0.566,1.247-0.849,2.044-0.849h8.357c0.422,0,0.813,0.084,1.176,0.251c0.1,0.047,0.16,0.124,0.18,0.23
		c0.021,0.114-0.01,0.211-0.09,0.292L398.31,9.12c-0.066,0.066-0.145,0.101-0.23,0.101c-0.021,0-0.051-0.007-0.091-0.021
		c-0.154-0.04-0.305-0.061-0.452-0.061h-8.357c-0.441,0-0.82,0.157-1.135,0.473c-0.314,0.314-0.473,0.692-0.473,1.135v8.357
		c0,0.441,0.158,0.82,0.473,1.135s0.693,0.472,1.135,0.472h8.357c0.441,0,0.82-0.157,1.135-0.472s0.473-0.693,0.473-1.135v-2.552
		c0-0.087,0.029-0.16,0.09-0.221l0.643-0.643c0.067-0.067,0.145-0.101,0.231-0.101c0.04,0,0.081,0.01,0.12,0.03
		C400.362,15.673,400.429,15.77,400.429,15.91z M402.749,10.998l-8.176,8.177c-0.161,0.16-0.352,0.241-0.572,0.241
		c-0.222,0-0.412-0.081-0.573-0.241l-4.319-4.319c-0.16-0.161-0.24-0.352-0.24-0.572c0-0.222,0.08-0.412,0.24-0.573l1.105-1.104
		c0.16-0.161,0.352-0.241,0.572-0.241s0.412,0.08,0.572,0.241l2.643,2.642l6.498-6.499c0.161-0.16,0.352-0.241,0.572-0.241
		c0.222,0,0.412,0.081,0.573,0.241l1.104,1.105c0.161,0.16,0.241,0.352,0.241,0.572S402.91,10.838,402.749,10.998z"/>
</g>
<g enable-background="new    ">
	<path fill="#004D72" d="M267.321,80.971v1.8c0,1.009,0.096,1.921,0.287,2.736c0.191,0.817,0.516,1.537,0.973,2.16
		c0.455,0.624,1.092,1.104,1.908,1.44c0.815,0.336,1.871,0.504,3.168,0.504c1.296,0,2.363-0.181,3.203-0.54
		c0.84-0.36,1.513-0.828,2.017-1.404s0.852-1.235,1.044-1.98c0.191-0.743,0.288-1.476,0.288-2.195c0-1.392-0.385-2.531-1.151-3.42
		c-0.77-0.888-1.765-1.656-2.988-2.305c-1.225-0.647-2.641-1.211-4.248-1.691c-1.609-0.479-3.24-1.008-4.896-1.584
		s-3.275-1.235-4.859-1.98c-1.584-0.743-2.988-1.691-4.213-2.844c-1.224-1.152-2.221-2.556-2.987-4.212
		c-0.769-1.656-1.152-3.683-1.152-6.084c0-2.063,0.348-4.007,1.044-5.832c0.695-1.824,1.836-3.42,3.42-4.788s3.66-2.459,6.229-3.276
		c2.566-0.816,5.724-1.224,9.468-1.224c3.647,0,6.72,0.36,9.216,1.08c2.495,0.72,4.523,1.717,6.084,2.988
		c1.56,1.272,2.688,2.761,3.384,4.464c0.695,1.704,1.044,3.54,1.044,5.508v1.224h-13.968c0-2.495-0.408-4.295-1.224-5.399
		c-0.864-1.2-2.329-1.8-4.393-1.8c-3.888,0-5.832,1.849-5.832,5.543c0,1.825,0.66,3.24,1.98,4.248
		c1.32,1.009,2.963,1.873,4.932,2.593c1.968,0.72,4.092,1.429,6.373,2.124c2.278,0.696,4.402,1.608,6.371,2.735
		c1.968,1.129,3.611,2.617,4.933,4.465c1.319,1.848,1.979,4.283,1.979,7.308c0,5.856-1.849,10.044-5.544,12.563
		c-3.696,2.521-8.881,3.78-15.552,3.78c-2.689,0-5.256-0.192-7.704-0.576c-2.448-0.385-4.608-1.08-6.479-2.088
		c-1.873-1.008-3.361-2.376-4.465-4.104c-1.104-1.729-1.656-3.936-1.656-6.624v-3.312H267.321z"/>
	<path fill="#004D72" d="M310.665,55.051h-12.96v-9.792h40.464v9.792h-12.96v41.616h-14.544V55.051z"/>
	<path fill="#004D72" d="M343.136,45.259h35.712v9.792H357.68v10.296h19.872v9.792H357.68v11.736h22.104v9.792h-36.648V45.259z"/>
	<path fill="#004D72" d="M386.335,45.259h22.464c3.84,0,6.948,0.517,9.324,1.548c2.376,1.033,4.235,2.316,5.58,3.852
		c1.343,1.537,2.243,3.229,2.7,5.076c0.455,1.848,0.684,3.564,0.684,5.148c0,2.304-0.349,4.417-1.044,6.336
		c-0.696,1.921-1.836,3.576-3.42,4.968c-1.584,1.394-3.636,2.474-6.156,3.24c-2.52,0.769-5.58,1.152-9.18,1.152h-6.408v20.088
		h-14.544V45.259z M400.879,67.651h3.96c1.44,0,2.628-0.181,3.564-0.54c0.936-0.36,1.68-0.828,2.231-1.404s0.924-1.261,1.116-2.052
		c0.191-0.793,0.288-1.62,0.288-2.484c0-1.008-0.108-1.932-0.324-2.771s-0.611-1.572-1.188-2.196
		c-0.576-0.624-1.345-1.116-2.305-1.476s-2.159-0.54-3.6-0.54h-3.744V67.651z"/>
	<path fill="#004D72" d="M454.23,77.443l19.872-30.744h15.552v30.744h5.76v9.359h-5.76v9.864H476.19v-9.864h-21.96V77.443z
		 M476.19,60.379h-0.144L465.75,77.443h10.44V60.379z"/>
</g>
</svg>
